<svg width="715" height="70" viewBox="0 0 715 70" fill="none" xmlns="http://www.w3.org/2000/svg">
<path d="M62.9727 26.7999H44.5634C44.4328 25.2767 44.0846 23.8949 43.5189 22.6545C42.9749 21.4142 42.2132 20.3479 41.234 19.4558C40.2766 18.5418 39.1124 17.8455 37.7415 17.3668C36.3706 16.8663 34.8147 16.616 33.0739 16.616C30.0274 16.616 27.4488 17.3559 25.3381 18.8356C23.2491 20.3153 21.6606 22.4369 20.5725 25.2005C19.5063 27.9641 18.9731 31.2825 18.9731 35.1559C18.9731 39.2468 19.5172 42.6741 20.6052 45.4377C21.715 48.1795 23.3143 50.2467 25.4033 51.6394C27.4923 53.0103 30.0057 53.6957 32.9433 53.6957C34.6189 53.6957 36.1203 53.489 37.4477 53.0756C38.7751 52.6404 39.9284 52.0202 40.9076 51.2151C41.8868 50.4099 42.6811 49.4416 43.2904 48.31C43.9214 47.1567 44.3458 45.862 44.5634 44.4258L62.9727 44.5564C62.7551 47.3852 61.9608 50.2685 60.5899 53.2061C59.219 56.122 57.2714 58.8203 54.7472 61.301C52.2448 63.7599 49.1439 65.7401 45.4447 67.2416C41.7454 68.7431 37.4477 69.4938 32.5516 69.4938C26.4152 69.4938 20.9098 68.1773 16.0355 65.5443C11.1829 62.9113 7.34222 59.0379 4.51337 53.9242C1.70628 48.8105 0.302734 42.5544 0.302734 35.1559C0.302734 27.7138 1.73892 21.4468 4.61129 16.3549C7.48366 11.2412 11.357 7.37875 16.2313 4.7675C21.1057 2.1345 26.5458 0.817993 32.5516 0.817993C36.7731 0.817993 40.6574 1.39464 44.2043 2.54794C47.7513 3.70125 50.863 5.38768 53.5395 7.60723C56.2161 9.80503 58.3703 12.5142 60.0024 15.7347C61.6344 18.9553 62.6245 22.6437 62.9727 26.7999Z" fill="#E95252"/>
<path d="M86.5065 68.5798H66.9222L88.9872 1.73193H113.794L135.859 68.5798H116.275L101.652 20.1412H101.13L86.5065 68.5798ZM82.8508 42.2063H119.669V55.7847H82.8508V42.2063Z" fill="#E95252"/>
<path d="M142.297 68.5798V1.73193H171.152C176.113 1.73193 180.454 2.71115 184.175 4.66959C187.896 6.62802 190.79 9.38071 192.858 12.9277C194.925 16.4746 195.959 20.6199 195.959 25.3637C195.959 30.151 194.892 34.2964 192.76 37.7998C190.649 41.3032 187.679 44.0015 183.849 45.8946C180.041 47.7878 175.591 48.7344 170.499 48.7344H153.265V34.6336H166.843C168.976 34.6336 170.793 34.2637 172.294 33.5239C173.817 32.7622 174.982 31.6851 175.787 30.2924C176.614 28.8998 177.027 27.2569 177.027 25.3637C177.027 23.4488 176.614 21.8168 175.787 20.4676C174.982 19.0967 173.817 18.0522 172.294 17.3341C170.793 16.5943 168.976 16.2243 166.843 16.2243H160.446V68.5798H142.297Z" fill="#E95252"/>
<path d="M267.376 35.1559C267.376 42.5979 265.929 48.8758 263.035 53.9895C260.141 59.0814 256.235 62.9439 251.317 65.5769C246.399 68.1882 240.916 69.4938 234.866 69.4938C228.773 69.4938 223.268 68.1773 218.35 65.5443C213.454 62.8895 209.559 59.0162 206.665 53.9242C203.792 48.8105 202.356 42.5544 202.356 35.1559C202.356 27.7138 203.792 21.4468 206.665 16.3549C209.559 11.2412 213.454 7.37875 218.35 4.7675C223.268 2.1345 228.773 0.817993 234.866 0.817993C240.916 0.817993 246.399 2.1345 251.317 4.7675C256.235 7.37875 260.141 11.2412 263.035 16.3549C265.929 21.4468 267.376 27.7138 267.376 35.1559ZM248.706 35.1559C248.706 31.152 248.173 27.7791 247.106 25.0373C246.062 22.2737 244.506 20.1847 242.439 18.7703C240.393 17.3341 237.869 16.616 234.866 16.616C231.863 16.616 229.328 17.3341 227.261 18.7703C225.215 20.1847 223.66 22.2737 222.593 25.0373C221.549 27.7791 221.027 31.152 221.027 35.1559C221.027 39.1598 221.549 42.5435 222.593 45.3071C223.66 48.0489 225.215 50.1379 227.261 51.5741C229.328 52.9885 231.863 53.6957 234.866 53.6957C237.869 53.6957 240.393 52.9885 242.439 51.5741C244.506 50.1379 246.062 48.0489 247.106 45.3071C248.173 42.5435 248.706 39.1598 248.706 35.1559Z" fill="#E95252"/>
<path d="M294.084 68.5798V1.73193H312.232V27.8444H336.256V1.73193H354.404V68.5798H336.256V42.4674H312.232V68.5798H294.084Z" fill="#E95252"/>
<path d="M402.582 1.73193H420.73V44.5564C420.73 49.6483 419.511 54.0548 417.074 57.7758C414.659 61.4751 411.286 64.3366 406.955 66.3603C402.625 68.3622 397.599 69.3632 391.876 69.3632C386.109 69.3632 381.061 68.3622 376.73 66.3603C372.4 64.3366 369.027 61.4751 366.612 57.7758C364.218 54.0548 363.021 49.6483 363.021 44.5564V1.73193H381.169V42.9896C381.169 45.0569 381.626 46.9065 382.54 48.5385C383.454 50.1488 384.716 51.4109 386.327 52.3248C387.959 53.2388 389.808 53.6957 391.876 53.6957C393.965 53.6957 395.814 53.2388 397.424 52.3248C399.035 51.4109 400.297 50.1488 401.211 48.5385C402.125 46.9065 402.582 45.0569 402.582 42.9896V1.73193Z" fill="#E95252"/>
<path d="M487.194 1.73193V68.5798H472.049L447.895 33.4586H447.503V68.5798H429.355V1.73193H444.761L468.524 36.7226H469.046V1.73193H487.194Z" fill="#E95252"/>
<path d="M493.951 16.3549V1.73193H552.051V16.3549H531.944V68.5798H514.057V16.3549H493.951Z" fill="#E95252"/>
<path d="M577.029 1.73193V68.5798H558.881V1.73193H577.029Z" fill="#E95252"/>
<path d="M643.469 1.73193V68.5798H628.324L604.17 33.4586H603.778V68.5798H585.63V1.73193H601.036L624.799 36.7226H625.321V1.73193H643.469Z" fill="#E95252"/>
<path d="M695.466 23.797C695.183 22.6437 694.737 21.6318 694.127 20.7614C693.518 19.8692 692.756 19.1185 691.842 18.5092C690.95 17.8781 689.906 17.4103 688.709 17.1056C687.534 16.7792 686.239 16.616 684.825 16.616C681.778 16.616 679.178 17.345 677.024 18.803C674.891 20.2609 673.259 22.3608 672.128 25.1026C671.018 27.8444 670.463 31.152 670.463 35.0253C670.463 38.9422 670.996 42.2933 672.062 45.0786C673.129 47.864 674.717 49.9965 676.828 51.4762C678.939 52.9559 681.561 53.6957 684.694 53.6957C687.458 53.6957 689.753 53.2932 691.581 52.488C693.431 51.6829 694.813 50.5405 695.727 49.0608C696.641 47.5811 697.098 45.8402 697.098 43.8383L700.231 44.1647H684.955V31.239H714.593V40.5089C714.593 46.6019 713.298 51.8135 710.709 56.1438C708.141 60.4523 704.594 63.7599 700.068 66.0665C695.563 68.3514 690.395 69.4938 684.564 69.4938C678.057 69.4938 672.345 68.112 667.427 65.3484C662.509 62.5849 658.669 58.6462 655.905 53.5325C653.163 48.4188 651.792 42.3368 651.792 35.2865C651.792 29.7593 652.63 24.8632 654.306 20.5982C656.003 16.3332 658.353 12.7318 661.356 9.79415C664.359 6.83474 667.83 4.6043 671.768 3.10283C675.707 1.57961 679.929 0.817993 684.433 0.817993C688.393 0.817993 692.071 1.38376 695.466 2.51531C698.882 3.62508 701.896 5.21359 704.507 7.28083C707.14 9.32631 709.262 11.7526 710.872 14.5597C712.482 17.3668 713.461 20.4459 713.81 23.797H695.466Z" fill="#E95252"/>
</svg>
