<svg width="321" height="134" viewBox="0 0 321 134" fill="none" xmlns="http://www.w3.org/2000/svg">
<g clip-path="url(#clip0_445_588)">
<path d="M130.799 77.5533C130.799 77.5533 136.974 77.8753 136.877 72.6796C136.878 72.0943 136.761 71.5147 136.534 70.9756C136.306 70.4365 135.971 69.9489 135.551 69.5419C135.13 69.135 134.631 68.8172 134.085 68.6074C133.538 68.3976 132.955 68.3001 132.37 68.3209H127.69L127.773 55.0517C127.773 53.1202 126.202 50.7574 122.906 50.7252C120.543 50.7252 118.811 51.7618 118.457 53.4615C117.91 51.8133 116.655 50.8475 114.279 50.7831C111.607 50.7059 109.315 52.0708 109.296 56.8673C109.296 56.8673 104.145 56.9188 103.186 56.9188C101.705 51.6845 98.8786 50.6222 97.1724 50.6222C95.4663 50.6222 92.5884 51.0471 90.9402 56.8158C90.6453 56.8797 90.3402 56.8797 90.0453 56.8158C88.5388 52.4957 83.3431 50.7059 79.7441 50.7059C76.1451 50.7059 71.1298 52.1867 68.9987 56.0947C66.9513 52.47 62.5605 50.6608 59.0065 50.6608C55.4526 50.6608 51.2034 51.9485 49.6775 54.5238C49.4442 53.5115 48.8918 52.601 48.1019 51.9264C47.312 51.2518 46.3263 50.8487 45.29 50.7766C44.2537 50.7045 43.2217 50.9671 42.346 51.5258C41.4702 52.0846 40.7971 52.9098 40.4258 53.8799C38.6681 50.8346 33.524 50.3003 30.4143 50.7445C31.5861 46.6755 34.2 37.559 34.2773 35.37C34.5927 28.9318 28.1867 29.4404 28.1867 29.4404C28.1867 29.4404 25.8947 36.5224 25.2895 38.1384C25.811 29.9554 18.1173 30.9276 18.1173 30.9276C18.1173 30.9276 17.0614 37.3658 16.585 39.4647C13.0117 35.0481 9.20031 37.6105 9.20031 37.6105L9.12305 102.45L121.567 102.553C131.34 102.476 136.465 97.132 136.697 89.1744C136.909 81.8477 132.506 78.1779 130.799 77.5405" fill="#053775"/>
<path d="M42.6792 56.0948C42.6429 55.8084 42.6681 55.5175 42.7529 55.2415C42.8378 54.9655 42.9804 54.7107 43.1713 54.4941C43.3623 54.2775 43.5971 54.1041 43.8603 53.9852C44.1234 53.8664 44.4088 53.8049 44.6976 53.8049C44.9863 53.8049 45.2717 53.8664 45.5349 53.9852C45.798 54.1041 46.0329 54.2775 46.2238 54.4941C46.4147 54.7107 46.5573 54.9655 46.6422 55.2415C46.7271 55.5175 46.7522 55.8084 46.716 56.0948V72.4995C46.7522 72.7859 46.7271 73.0768 46.6422 73.3528C46.5573 73.6288 46.4147 73.8835 46.2238 74.1001C46.0329 74.3167 45.798 74.4902 45.5349 74.6091C45.2717 74.7279 44.9863 74.7894 44.6976 74.7894C44.4088 74.7894 44.1234 74.7279 43.8603 74.6091C43.5971 74.4902 43.3623 74.3167 43.1713 74.1001C42.9804 73.8835 42.8378 73.6288 42.7529 73.3528C42.6681 73.0768 42.6429 72.7859 42.6792 72.4995V56.0948Z" fill="#7DC242"/>
<path d="M48.7827 64.3614V64.3034C48.7827 58.509 52.8968 53.7576 58.556 53.7576C64.2152 53.7576 68.2842 58.4446 68.2842 64.2455V64.3034C68.2842 70.0978 64.1637 74.8493 58.5045 74.8493C52.8453 74.8493 48.7827 70.1622 48.7827 64.3614ZM64.0607 64.3614V64.3034C64.0607 60.8074 61.7558 57.8652 58.5045 57.8652C55.2532 57.8652 52.9998 60.7173 52.9998 64.2133V64.2712C52.9998 67.7672 55.3047 70.7095 58.556 70.7095C61.8073 70.7095 64.0607 67.8509 64.0607 64.3549" fill="#7DC242"/>
<path d="M69.9839 64.4645V64.4066C69.9839 58.6122 73.9112 53.8286 79.5511 53.8286C81.7812 53.739 83.9652 54.48 85.6803 55.9081C85.931 56.1306 86.1309 56.4045 86.2665 56.7111C86.402 57.0177 86.47 57.3499 86.4658 57.6851C86.4805 57.9601 86.4406 58.2354 86.3484 58.4949C86.2562 58.7545 86.1135 58.9932 85.9285 59.1973C85.7436 59.4014 85.52 59.5669 85.2708 59.6842C85.0215 59.8014 84.7515 59.8681 84.4764 59.8805C84.0355 59.8732 83.6095 59.7192 83.266 59.4427C82.238 58.5132 80.9048 57.9931 79.5189 57.9812C76.4286 57.9812 74.2009 60.8462 74.2009 64.3486V64.4066C74.2009 67.9154 76.3771 70.8448 79.5189 70.8448C80.257 70.8557 80.9897 70.7189 81.6741 70.4425C82.3585 70.1661 82.9807 69.7556 83.5042 69.2353C83.829 68.9247 84.2588 68.7478 84.7082 68.7395C85.2319 68.7695 85.7231 69.0031 86.0768 69.3905C86.4305 69.7779 86.6187 70.2883 86.601 70.8126C86.6017 71.1131 86.5415 71.4106 86.4243 71.6872C86.307 71.9638 86.135 72.2138 85.9185 72.4222C85.0687 73.281 84.0493 73.9536 82.9254 74.3969C81.8014 74.8403 80.5975 75.0448 79.3902 74.9975C73.9949 74.9975 69.9839 70.3491 69.9839 64.4774" fill="#7DC242"/>
<path d="M88.0814 71.7074L94.584 55.5474C94.7477 55.0359 95.0672 54.5884 95.4978 54.2675C95.9284 53.9465 96.4485 53.7683 96.9855 53.7576H97.2173C97.7523 53.7639 98.2713 53.9409 98.6987 54.2628C99.126 54.5848 99.4393 55.0349 99.593 55.5474L106.096 71.7074C106.228 71.9924 106.303 72.301 106.314 72.6152C106.346 73.1597 106.161 73.6946 105.799 74.1025C105.437 74.5104 104.927 74.7581 104.383 74.7913C103.931 74.7767 103.496 74.6175 103.141 74.337C102.786 74.0565 102.531 73.6696 102.413 73.2332L101.125 70.0141H92.9294L91.6417 73.3942C91.5108 73.7974 91.2575 74.1497 90.9172 74.4024C90.5768 74.6551 90.1663 74.7955 89.7425 74.8042C89.4785 74.791 89.2198 74.7256 88.9813 74.6117C88.7429 74.4978 88.5294 74.3377 88.3533 74.1407C88.1773 73.9436 88.0421 73.7136 87.9556 73.4639C87.8691 73.2141 87.8331 72.9497 87.8496 72.686C87.8675 72.3512 87.9506 72.0232 88.0943 71.7203L88.0814 71.7074ZM99.638 66.0289L97.0627 59.2558L94.4874 66.0289H99.638Z" fill="#7DC242"/>
<path d="M112.077 56.0948C112.077 55.5091 112.31 54.9474 112.724 54.5333C113.138 54.1191 113.7 53.8865 114.285 53.8865C114.871 53.8865 115.433 54.1191 115.847 54.5333C116.261 54.9474 116.494 55.5091 116.494 56.0948V72.7892C116.494 73.3748 116.261 73.9365 115.847 74.3507C115.433 74.7648 114.871 74.9975 114.285 74.9975C113.7 74.9975 113.138 74.7648 112.724 74.3507C112.31 73.9365 112.077 73.3748 112.077 72.7892V56.0948Z" fill="white"/>
<path d="M120.395 56.0047C120.4 55.4221 120.631 54.864 121.039 54.4484C121.448 54.0328 122.002 53.7921 122.584 53.7771C122.867 53.7862 123.145 53.8512 123.403 53.9682C123.661 54.0852 123.893 54.252 124.087 54.459C124.28 54.6659 124.43 54.909 124.529 55.1743C124.628 55.4396 124.674 55.7218 124.664 56.0047V70.8127H131.855C132.354 70.8999 132.805 71.1601 133.131 71.5476C133.456 71.935 133.635 72.4248 133.635 72.9309C133.635 73.4369 133.456 73.9267 133.131 74.3142C132.805 74.7016 132.354 74.9618 131.855 75.049H122.326C121.238 75.049 120.395 74.0189 120.395 72.7184V56.0047Z" fill="white"/>
<path d="M30.2596 88.8783V88.8204C30.2371 87.4252 30.4948 86.0398 31.0174 84.746C31.5399 83.4522 32.3168 82.2764 33.3019 81.2883C34.2871 80.3001 35.4605 79.5197 36.7527 78.9932C38.0449 78.4667 39.4296 78.2048 40.8248 78.2231C43.8765 78.2231 45.8917 78.9248 47.7008 80.2125C47.9864 80.4217 48.2191 80.6949 48.3801 81.0101C48.5411 81.3254 48.6259 81.6741 48.6279 82.0281C48.6314 82.6126 48.4029 83.1747 47.9925 83.5911C47.5822 84.0075 47.0235 84.2441 46.4389 84.2493C45.941 84.2571 45.456 84.0909 45.0676 83.7793C43.8027 82.823 42.2489 82.3277 40.6638 82.3757C37.4447 82.3757 34.8694 85.2665 34.8694 88.756V88.814C34.8694 92.561 37.4061 95.3166 40.9729 95.3166C42.4709 95.3684 43.9455 94.9349 45.177 94.0804V91.151H42.1833C41.671 91.151 41.1797 90.9475 40.8175 90.5853C40.4553 90.2231 40.2518 89.7318 40.2518 89.2196C40.2475 88.9632 40.2943 88.7086 40.3895 88.4705C40.4846 88.2325 40.6262 88.0157 40.806 87.833C40.9858 87.6502 41.2001 87.505 41.4366 87.4059C41.6731 87.3069 41.9269 87.2559 42.1833 87.2559H47.2502C47.5446 87.2567 47.8359 87.3161 48.1072 87.4305C48.3785 87.5449 48.6243 87.7121 48.8304 87.9224C49.0365 88.1327 49.1987 88.3818 49.3076 88.6553C49.4166 88.9289 49.47 89.2213 49.4649 89.5157V94.4925C49.5031 95.0687 49.3777 95.6439 49.1032 96.152C48.8286 96.66 48.4162 97.0801 47.9133 97.3639C45.7938 98.7026 43.3381 99.4125 40.8312 99.4113C34.5539 99.4113 30.2339 94.9045 30.2339 88.8655" fill="white"/>
<path d="M52.0723 80.6503C52.1032 80.0693 52.3558 79.5223 52.778 79.122C53.2003 78.7217 53.7599 78.4985 54.3417 78.4985C54.9236 78.4985 55.4832 78.7217 55.9055 79.122C56.3277 79.5223 56.5803 80.0693 56.6112 80.6503V96.997C56.5803 97.578 56.3277 98.125 55.9055 98.5253C55.4832 98.9256 54.9236 99.1488 54.3417 99.1488C53.7599 99.1488 53.2003 98.9256 52.778 98.5253C52.3558 98.125 52.1032 97.578 52.0723 96.997V80.6503Z" fill="white"/>
<path d="M59.4766 90.2881V80.6308C59.5075 80.0498 59.7601 79.5028 60.1823 79.1025C60.6046 78.7021 61.1642 78.479 61.746 78.479C62.3279 78.479 62.8875 78.7021 63.3098 79.1025C63.732 79.5028 63.9846 80.0498 64.0155 80.6308V90.1529C64.0155 93.4879 65.6959 95.2134 68.4643 95.2134C71.2328 95.2134 72.9132 93.5459 72.9132 90.2946V80.6372C72.9849 80.0904 73.2531 79.5883 73.6677 79.2245C74.0823 78.8608 74.615 78.6602 75.1666 78.6602C75.7181 78.6602 76.2508 78.8608 76.6654 79.2245C77.08 79.5883 77.3482 80.0904 77.4199 80.6372V90.1272C77.4199 96.3336 73.9111 99.3854 68.4064 99.3854C62.9017 99.3854 59.4766 96.3079 59.4766 90.2753" fill="white"/>
<path d="M79.7053 96.9068C79.3461 96.6434 79.0803 96.2723 78.9466 95.8474C78.8129 95.4225 78.8183 94.9661 78.9619 94.5445C79.1056 94.1229 79.38 93.7581 79.7453 93.5033C80.1105 93.2484 80.5476 93.1168 80.9929 93.1275C81.4548 93.126 81.9054 93.2702 82.2805 93.5396C83.7928 94.7105 85.6474 95.3528 87.5599 95.368C89.4141 95.368 90.5344 94.6405 90.5344 93.4365V93.3786C90.5344 92.239 89.8262 91.6531 86.3817 90.7711C82.2226 89.7152 79.5443 88.5757 79.5443 84.5003V84.4423C79.5443 80.7275 82.5509 78.2681 86.7616 78.2681C89.0711 78.2322 91.3421 78.8625 93.3028 80.0836C93.612 80.2666 93.8675 80.5278 94.0438 80.8408C94.2201 81.1539 94.311 81.5078 94.3072 81.867C94.3064 82.1437 94.2505 82.4174 94.1429 82.6723C94.0353 82.9272 93.878 83.1582 93.6803 83.3517C93.4826 83.5452 93.2483 83.6975 92.9912 83.7996C92.7341 83.9017 92.4592 83.9517 92.1826 83.9466C91.7781 83.9479 91.3812 83.8364 91.0366 83.6247C89.7411 82.7868 88.245 82.3111 86.7036 82.2469C84.9653 82.2469 84.0511 83.0388 84.0511 84.0367V84.0947C84.0511 85.4403 84.9331 85.878 88.4999 86.7858C92.6847 87.8739 95.0411 89.3611 95.0411 92.9408V92.9987C95.0411 97.0677 91.9186 99.3533 87.4698 99.3533C84.7017 99.3545 82.0018 98.495 79.7439 96.8939" fill="white"/>
<path d="M102.587 82.4915H98.2285C97.6684 82.4915 97.1312 82.2691 96.7352 81.873C96.3392 81.477 96.1167 80.9399 96.1167 80.3798C96.1167 79.8197 96.3392 79.2826 96.7352 78.8866C97.1312 78.4906 97.6684 78.2681 98.2285 78.2681H111.485C112.045 78.2681 112.582 78.4906 112.978 78.8866C113.374 79.2826 113.597 79.8197 113.597 80.3798C113.597 80.9399 113.374 81.477 112.978 81.873C112.582 82.2691 112.045 82.4915 111.485 82.4915H107.126V96.9712C107.168 97.2918 107.141 97.6178 107.047 97.9273C106.953 98.2367 106.794 98.5226 106.581 98.7657C106.368 99.0088 106.105 99.2036 105.81 99.337C105.516 99.4705 105.196 99.5395 104.873 99.5395C104.549 99.5395 104.23 99.4705 103.935 99.337C103.64 99.2036 103.378 99.0088 103.164 98.7657C102.951 98.5226 102.792 98.2367 102.698 97.9273C102.604 97.6178 102.577 97.2918 102.619 96.9712L102.587 82.4915Z" fill="white"/>
<path d="M112.302 88.8783V88.8203C112.295 86.0029 113.406 83.2978 115.393 81.3002C117.38 79.3025 120.079 78.1759 122.896 78.1683C125.714 78.1606 128.419 79.2724 130.417 81.2592C132.414 83.246 133.541 85.945 133.548 88.7624V88.8203C133.552 90.2154 133.281 91.5975 132.751 92.8878C132.221 94.1781 131.441 95.3513 130.458 96.3405C129.474 97.3296 128.305 98.1153 127.017 98.6527C125.73 99.19 124.349 99.4686 122.954 99.4724C121.559 99.4762 120.177 99.2052 118.887 98.6748C117.597 98.1445 116.423 97.3652 115.434 96.3814C114.445 95.3977 113.659 94.2287 113.122 92.9413C112.585 91.6539 112.306 90.2733 112.302 88.8783V88.8783ZM128.952 88.8783V88.8203C128.952 85.305 126.441 82.3821 122.9 82.3821C119.359 82.3821 116.906 85.2471 116.906 88.7624V88.8203C116.906 92.3356 119.417 95.2586 122.958 95.2586C126.499 95.2586 128.952 92.3871 128.952 88.8718" fill="white"/>
<path d="M30.3499 75.0747C34.3867 74.9781 36.7174 73.9158 38.2561 72.9243C38.735 72.6417 39.1256 72.2311 39.3838 71.7385C39.642 71.246 39.7576 70.6912 39.7176 70.1366V65.3014C39.7261 65.0208 39.679 64.7413 39.5789 64.479C39.4788 64.2167 39.3277 63.9768 39.1343 63.7733C38.9409 63.5697 38.7091 63.4065 38.4523 63.2931C38.1955 63.1797 37.9187 63.1183 37.638 63.1124H32.8737C32.6277 63.1191 32.3854 63.1745 32.1609 63.2754C31.9364 63.3763 31.7341 63.5208 31.5659 63.7004C31.3976 63.8801 31.2667 64.0913 31.1806 64.3219C31.0946 64.5526 31.0551 64.798 31.0646 65.0439C31.0595 65.286 31.1023 65.5266 31.1906 65.752C31.2789 65.9774 31.411 66.1832 31.5791 66.3573C31.7473 66.5315 31.9483 66.6706 32.1704 66.7668C32.3926 66.8629 32.6317 66.9141 32.8737 66.9174H35.6872V69.7631C34.5457 70.5789 33.1689 70.9994 31.7664 70.9607C28.412 70.9607 26.0363 68.2888 26.0363 64.6447V63.7241C26.0363 60.3376 28.4893 57.891 31.5153 57.891C33.0119 57.8508 34.4758 58.3335 35.6551 59.2559C36.0163 59.5565 36.4728 59.7186 36.9427 59.7131C37.2198 59.7064 37.4928 59.6451 37.7461 59.5326C37.9994 59.4202 38.228 59.2589 38.4188 59.0579C38.6096 58.8569 38.7589 58.6203 38.858 58.3615C38.9571 58.1027 39.0042 57.8268 38.9965 57.5498C38.9975 57.2102 38.9202 56.875 38.7706 56.5701C38.6209 56.2653 38.403 55.9991 38.1338 55.7922C36.2709 54.4327 33.9991 53.7512 31.6955 53.8607C29.9734 53.8508 28.279 54.2949 26.7832 55.1483C30.2405 43.6239 33.9489 32.7304 29.8606 32.6145C29.8606 32.6145 23.5705 50.6931 20.8471 57.4532C22.3086 46.6627 25.6887 33.9923 20.1646 33.7734C18.6967 39.4197 17.5893 50.384 16.2051 57.1957C16.2051 53.1718 17.8855 39.439 12.2456 39.6901V99.4434H27.4399C27.4399 88.8912 27.2918 89.5736 27.2918 78.1264C27.4399 75.1004 27.4399 75.1713 30.395 75.1004" fill="#7DC242"/>
<path fill-rule="evenodd" clip-rule="evenodd" d="M199.588 116.684C198.542 116.679 197.517 116.381 196.632 115.822C195.747 115.264 195.037 114.468 194.582 113.526C194.307 113.033 194.307 113.033 186.909 95.622C185.342 91.9582 186.557 88.3519 189.997 86.4464L197.337 82.3797C198.395 81.7637 199.592 81.429 200.816 81.4078C202.238 81.4082 203.61 81.9316 204.672 82.8785C205.587 82.091 206.615 81.4445 207.722 80.9602C209.349 80.2138 211.117 79.8215 212.907 79.8093C213.221 79.8093 213.547 79.8093 213.847 79.8477H213.962C214.354 79.8984 214.741 79.9796 215.12 80.0906C216.025 78.6924 217.287 77.5621 218.777 76.8168C218.577 76.4379 218.416 76.0394 218.297 75.6275C218.259 75.4805 218.221 75.3334 218.195 75.1863C217.767 72.7374 218.393 70.6209 219.896 69.1567C218.368 68.1061 217.241 66.569 216.699 64.7958C216.022 65.1116 215.323 65.3787 214.608 65.5951C213.21 66.0259 211.755 66.2479 210.292 66.2537C204.326 66.2537 199.384 62.219 197.401 55.7162C196.036 51.392 196.155 46.7352 197.74 42.4867C198.565 40.2388 199.9 38.2128 201.639 36.5675C203.379 34.9222 205.476 33.7025 207.766 33.0042C209.151 32.5849 210.59 32.3695 212.038 32.3647C213.483 32.3628 214.918 32.6049 216.283 33.0809C216.631 31.8736 217.304 30.7853 218.229 29.935C219.154 29.0846 220.294 28.5051 221.527 28.2597C223.015 27.9568 224.563 28.194 225.893 28.9286C227.223 29.6632 228.248 30.8473 228.784 32.2688C231.285 30.1856 234.436 29.0413 237.691 29.0334C238.686 29.0339 239.678 29.1367 240.651 29.3403C242.301 29.692 243.785 30.779 245.543 32.1601L246.029 32.5374C247.989 30.4789 250.649 29.2289 253.484 29.0334C253.849 29.0334 254.188 28.995 254.52 28.995C255.83 28.9711 257.133 29.199 258.357 29.6664C258.854 29.8726 259.326 30.1343 259.764 30.4465C261.203 29.443 262.907 28.8889 264.661 28.8544L265.864 28.816C266.324 28.816 266.727 28.7776 266.925 28.7776H267.187C267.462 28.7776 267.737 28.7776 268.018 28.7776C268.3 28.7776 268.587 28.7776 268.869 28.7776H269.508H269.79C273.306 28.7776 275.768 31.2138 275.768 34.6986C275.768 34.9416 275.768 34.9736 275.685 35.8368C275.621 36.5209 275.499 37.8701 275.257 40.5876C275.862 41.125 276.346 41.7848 276.676 42.5234C277.007 43.262 277.177 44.0624 277.175 44.8717C277.183 45.2139 277.161 45.5562 277.111 45.8948H281.932C285.724 45.8948 287.802 48.024 288.403 50.3707C289.068 49.4179 289.954 48.6408 290.985 48.1062C292.016 47.5716 293.162 47.2954 294.324 47.3015C294.548 47.3015 294.784 47.3015 295.014 47.3015C296.487 47.3936 297.886 47.9765 298.988 48.9571C300.09 49.9376 300.832 51.2593 301.095 52.7109C303.966 67.5837 303.953 67.7116 303.87 68.6963V68.8753C304.285 68.8816 304.7 68.9136 305.111 68.9712C306.377 69.0974 307.601 69.491 308.703 70.1259C309.806 70.7609 310.761 71.6226 311.505 72.6542C312.868 74.6514 313.404 77.099 313.001 79.4832C312.941 79.9734 312.845 80.4585 312.713 80.9347C312.522 81.679 312.206 82.3859 311.78 83.0255C311.823 83.5629 311.806 84.1033 311.729 84.6369C311.706 84.7942 311.674 84.9501 311.633 85.1036C311.32 86.4306 310.55 87.6052 309.459 88.4222C307.539 89.9777 305.139 90.8185 302.668 90.8008C302.11 90.7973 301.553 90.7589 300.999 90.6857C299.616 90.5186 298.287 90.0472 297.107 89.3054C295.927 88.5636 294.927 87.5697 294.177 86.3953C293.626 87.2818 292.853 88.0087 291.934 88.5035C291.016 88.9982 289.983 89.2436 288.94 89.2151C288.759 89.2246 288.578 89.2246 288.396 89.2151C287.566 89.1585 286.753 88.9413 286.005 88.5757C285.094 89.0394 284.092 89.297 283.07 89.3302H282.623C281.465 89.3509 280.314 89.1468 279.234 88.7291C278.18 89.2725 277.022 89.5843 275.838 89.6435H275.576C274.33 89.6291 273.104 89.3261 271.994 88.758C270.885 88.19 269.922 87.3725 269.182 86.3697C268.766 87.4751 268.041 88.4377 267.093 89.1428C266.145 89.8478 265.015 90.2658 263.837 90.3468C263.568 90.3468 263.306 90.3916 263.05 90.3916C262.17 90.3977 261.298 90.2168 260.492 89.8609C258.983 90.8858 257.264 91.5608 255.46 91.8367C254.853 91.9325 254.24 91.9817 253.625 91.9838C252.584 91.9852 251.549 91.8278 250.556 91.517C249.59 96.0952 246.476 99.6056 242.013 100.718C241.11 100.944 240.182 101.057 239.251 101.057C237.838 101.05 236.436 100.799 235.108 100.315C233.653 99.7854 232.452 98.7258 231.744 97.3484C231.248 97.4312 230.745 97.474 230.242 97.4763C229.956 97.4775 229.669 97.4626 229.385 97.4316C228.489 98.3559 227.396 99.0663 226.188 99.5097C225.35 99.7951 224.471 99.9399 223.585 99.9381C222.718 99.9409 221.855 99.8093 221.028 99.548C219.73 101.355 217.96 102.77 215.912 103.64C215.496 103.828 215.069 103.992 214.634 104.133C214.847 105.574 214.601 107.046 213.932 108.34C213.263 109.634 212.205 110.685 210.906 111.345L203.374 115.521C202.239 116.219 200.945 116.613 199.614 116.665" fill="#053775"/>
<path fill-rule="evenodd" clip-rule="evenodd" d="M212.907 56.5731C209.774 57.5323 207.523 55.3519 206.628 52.417C205.579 49.0089 205.988 43.5227 210.317 42.1863C210.964 41.9568 211.651 41.8633 212.335 41.9117C213.02 41.9601 213.687 42.1494 214.294 42.4677C214.575 42.6324 214.887 42.7383 215.21 42.7789C215.533 42.8196 215.861 42.7942 216.174 42.7042C216.797 42.4669 217.302 41.996 217.583 41.3917C217.863 40.7875 217.897 40.0976 217.677 39.4688C216.916 36.9623 212.657 36.2717 209.441 37.2884C202.267 39.4944 199.901 47.6277 201.998 54.4887C203.546 59.5592 207.676 63.2806 213.738 61.4263C219.8 59.572 222.562 53.4336 220.714 47.3592C220.266 45.9077 219.435 44.891 217.229 45.5624L211.475 47.308C209.908 47.7876 208.917 49.0792 209.486 50.876C209.857 52.1036 210.803 52.532 212.312 52.0717L216.436 50.7928C216.692 53.6702 215.464 55.7611 212.875 56.5476" fill="white"/>
<path fill-rule="evenodd" clip-rule="evenodd" d="M221.622 40.9651C222.402 49.9872 222.434 50.1598 222.473 50.3581C222.869 52.385 224.353 53.4081 227.102 52.8773C227.398 52.8452 227.684 52.7515 227.942 52.6022C228.2 52.453 228.424 52.2514 228.599 52.0105C228.774 51.7697 228.897 51.4948 228.96 51.2036C229.022 50.9124 229.023 50.6113 228.963 50.3197C228.765 49.2838 227.984 48.8682 226.75 49.1048C226.399 49.1751 226.29 48.8618 226.239 48.5869L226.2 48.4142C225.459 40.1018 225.465 40.0059 225.446 39.9036C225.235 38.8166 224.525 38.4394 223.361 38.6632C223.087 38.6826 222.82 38.7608 222.578 38.8924C222.337 39.0241 222.127 39.2062 221.962 39.4264C221.797 39.6465 221.681 39.8996 221.622 40.1684C221.564 40.4372 221.564 40.7154 221.622 40.9842V40.9651ZM220.797 35.562C220.843 35.8253 220.942 36.0766 221.087 36.3008C221.232 36.5251 221.421 36.7177 221.643 36.867C221.864 37.0163 222.114 37.1193 222.376 37.1697C222.639 37.2202 222.908 37.2171 223.17 37.1605C223.82 37.0231 224.391 36.6378 224.762 36.0864C225.134 35.535 225.276 34.8607 225.158 34.2065C225.114 33.9434 225.016 33.6923 224.87 33.4692C224.724 33.2462 224.533 33.0561 224.309 32.9111C224.085 32.7661 223.833 32.6694 223.57 32.6271C223.307 32.5848 223.038 32.5978 222.78 32.6655C222.147 32.8139 221.593 33.1933 221.227 33.7293C220.86 34.2652 220.707 34.9189 220.797 35.562V35.562Z" fill="white"/>
<path fill-rule="evenodd" clip-rule="evenodd" d="M254.098 37.122C255.006 37.0581 255.914 37.4034 256.656 37.3522C257.09 37.3572 257.512 37.2044 257.843 36.922C258.173 36.6397 258.391 36.2471 258.454 35.8169C258.517 35.3868 258.422 34.9483 258.187 34.5827C257.951 34.2172 257.591 33.9494 257.174 33.8291C256.233 33.4989 255.23 33.381 254.239 33.4838C250.102 33.7715 247.077 37.7103 247.371 41.8665C247.627 45.5048 250.306 47.9921 253.797 47.7491C255.032 47.666 256.215 47.2212 257.199 46.4703C257.518 46.2715 257.781 45.9943 257.962 45.6653C258.143 45.3362 258.237 44.9661 258.235 44.5904C258.205 44.1769 258.013 43.7919 257.7 43.5198C257.388 43.2478 256.98 43.1108 256.566 43.1389C256.256 43.1609 255.958 43.2719 255.709 43.4586C255.182 43.8353 254.559 44.0568 253.913 44.0981C252.391 44.2004 251.163 42.9727 251.042 41.2654C250.92 39.5582 251.981 37.2563 254.092 37.1093" fill="white"/>
<path fill-rule="evenodd" clip-rule="evenodd" d="M270.116 33.2281C269.868 33.2108 269.62 33.2432 269.386 33.3234C269.151 33.4036 268.935 33.53 268.75 33.6951C268.566 33.8602 268.416 34.0607 268.31 34.2847C268.204 34.5087 268.144 34.7517 268.133 34.9992C267.836 34.466 267.398 34.0248 266.867 33.7237C266.336 33.4226 265.732 33.2733 265.122 33.292C261.285 33.356 259.488 38.062 259.552 41.4381C259.616 44.9741 261.618 47.2504 263.862 47.1929C265.141 47.1929 266.548 46.3105 267.59 44.9549C267.961 46.2913 268.965 47.033 271.094 46.9947C271.366 47.0154 271.64 46.9786 271.898 46.8866C272.155 46.7947 272.39 46.6497 272.588 46.4609C272.786 46.2722 272.942 46.0441 273.046 45.7912C273.15 45.5384 273.199 45.2665 273.191 44.9933C273.191 44.0214 272.552 43.5226 271.388 43.5418C271.34 43.5497 271.291 43.5466 271.245 43.5329C271.199 43.5191 271.156 43.495 271.12 43.4624C271.085 43.4298 271.057 43.3895 271.039 43.3445C271.021 43.2996 271.014 43.2512 271.017 43.2029C271.746 34.9353 271.765 34.8394 271.765 34.7499C271.782 34.535 271.751 34.319 271.672 34.1182C271.594 33.9173 271.471 33.7369 271.313 33.5904C271.155 33.4439 270.965 33.3352 270.759 33.2724C270.553 33.2097 270.335 33.1945 270.122 33.2281H270.116ZM265.071 43.74C263.792 43.74 263.203 42.4996 263.152 41.0033C263.101 39.5071 263.837 36.6681 265.71 36.6361C266.746 36.6361 267.692 37.6848 267.724 39.5391C267.801 41.0161 267.014 43.7145 265.071 43.74Z" fill="white"/>
<path fill-rule="evenodd" clip-rule="evenodd" d="M229.359 59.6742C229.914 59.93 230.541 59.9821 231.13 59.8212C231.733 59.6276 232.243 59.2169 232.561 58.6688C232.879 58.1206 232.982 57.4741 232.85 56.8543C232.73 56.526 232.532 56.2314 232.274 55.9955C232.016 55.7596 231.705 55.5892 231.367 55.4988C229.805 54.933 228.101 54.8925 226.514 55.3837C222.594 56.5091 220.305 60.0003 221.283 63.4147C222.114 66.2985 225.311 66.8036 228.048 67.1745C230.209 67.4686 231.041 67.8139 231.29 68.7091C231.52 70.135 230.363 71.2284 228.899 71.6504C228.04 71.8805 227.136 71.8805 226.277 71.6504C225.729 71.5129 225.156 71.5129 224.608 71.6504C223.221 72.0532 222.651 72.8461 222.926 74.419C223.018 74.7704 223.205 75.0895 223.467 75.3411C223.729 75.5928 224.055 75.7671 224.41 75.8449C226.091 76.3468 227.882 76.3468 229.564 75.8449C233.643 74.6748 236.815 70.8255 235.625 66.6821C234.89 64.1245 232.505 63.4851 229.269 62.9416C227.549 62.673 225.957 62.7561 225.606 61.5285C225.433 60.4159 226.06 59.898 227.153 59.6102C227.883 59.4067 228.659 59.454 229.359 59.7445" fill="#A0CF67"/>
<path fill-rule="evenodd" clip-rule="evenodd" d="M236.054 55.6588C237.269 71.2286 237.294 71.5099 237.333 71.7529C237.537 72.7951 238.055 73.0317 239.686 72.6864L247.557 71.1518C249.027 70.8641 249.993 69.873 249.692 68.3256C249.481 67.2322 248.669 66.8294 247.224 67.1107L241.425 68.2297L241.111 64.1311L245.491 63.2806C246.962 62.9929 247.768 61.9123 247.499 60.5056C247.282 59.3802 246.521 58.971 245.178 59.2268L240.805 60.0772L240.581 56.6627L246.188 55.5757C246.518 55.5439 246.836 55.4411 247.121 55.2742C247.407 55.1073 247.652 54.8804 247.842 54.6092C248.031 54.338 248.159 54.029 248.217 53.7034C248.274 53.3779 248.261 53.0437 248.177 52.7239C247.96 51.6305 247.211 51.2597 245.882 51.5218L238.209 53.018C236.712 53.3058 235.983 54.1946 236.098 55.6588" fill="#91C848"/>
<path fill-rule="evenodd" clip-rule="evenodd" d="M251.144 53.4143C250.716 68.6132 250.728 68.7603 250.735 68.8562C250.831 69.9304 251.521 70.4164 252.838 70.2949C254.264 70.1734 254.987 69.4509 255.025 68.0889L255.275 58.8813L262.468 68.2999C262.728 68.6411 263.072 68.9089 263.467 69.0771C263.861 69.2452 264.293 69.3079 264.719 69.259C265.021 69.2663 265.322 69.2098 265.602 69.0934C265.881 68.9769 266.133 68.803 266.341 68.583C266.549 68.363 266.709 68.1017 266.809 67.8161C266.91 67.5305 266.949 67.227 266.925 66.9252C267.328 51.7519 267.347 51.624 267.334 51.5281C267.238 50.4283 266.547 49.9487 265.198 50.0638C263.849 50.1789 263.088 50.9142 263.043 52.2506L262.781 61.6244L255.665 52.1867C255.407 51.8119 255.055 51.5125 254.644 51.3192C254.232 51.1259 253.777 51.0457 253.324 51.0869C253.024 51.0823 252.725 51.1407 252.448 51.2584C252.171 51.3761 251.922 51.5505 251.717 51.7704C251.511 51.9902 251.354 52.2507 251.256 52.5349C251.157 52.8192 251.119 53.1209 251.144 53.4207" fill="#91C848"/>
<path fill-rule="evenodd" clip-rule="evenodd" d="M268.85 65.397C268.502 65.8095 268.28 66.3133 268.21 66.8485C268.196 66.9759 268.196 67.1046 268.21 67.2321C268.21 68.3319 268.85 68.8754 270.071 68.8754H280.839C282.258 68.8754 283.045 68.236 283.204 66.9572C283.204 66.8613 283.204 66.7653 283.204 66.6694C283.204 65.6464 282.52 65.1029 281.235 65.1029H274.201L283.71 53.8492C284.148 53.3871 284.447 52.8109 284.573 52.1867C284.573 52.0908 284.573 52.0204 284.573 51.9245C284.573 51.0421 283.933 50.3835 282.316 50.3835H272.597C271.177 50.3835 270.416 51.023 270.263 52.3018C270.25 52.4208 270.25 52.5409 270.263 52.6599C270.263 53.6573 270.902 54.1817 272.181 54.1817H278.307" fill="#91C848"/>
<path fill-rule="evenodd" clip-rule="evenodd" d="M293.754 58.063C294.17 60.5568 294.298 60.8701 294.598 62.7372L290.998 62.4174L293.754 58.063ZM295.839 68.6965C295.926 69.0835 296.146 69.428 296.46 69.6707C296.774 69.9134 297.162 70.0392 297.559 70.0265C298.089 70.1155 298.632 69.9914 299.07 69.6811C299.509 69.3708 299.807 68.8996 299.899 68.3704C299.899 68.1018 299.752 66.8997 297.182 53.6063C297.101 53.0957 296.841 52.6305 296.449 52.2942C296.056 51.9579 295.556 51.7725 295.04 51.7712C294.491 51.7095 293.936 51.8091 293.443 52.0578C292.95 52.3065 292.541 52.6936 292.264 53.1715L284.15 66.2539C283.966 66.5653 283.849 66.9115 283.805 67.2706C283.735 68.1018 284.176 68.8563 285.423 68.965C285.916 69.022 286.414 68.9263 286.851 68.6907C287.288 68.4551 287.642 68.0911 287.865 67.6479C288.211 67.1235 288.543 66.5736 288.901 65.9982L295.359 66.5672L295.839 68.6965Z" fill="#91C848"/>
<path fill-rule="evenodd" clip-rule="evenodd" d="M191.346 93.9532C198.558 110.898 198.693 111.217 198.84 111.46C199.479 112.554 200.061 112.618 201.621 111.754L209.147 107.585C209.494 107.43 209.803 107.202 210.053 106.915C210.303 106.629 210.488 106.291 210.594 105.926C210.701 105.561 210.726 105.177 210.67 104.801C210.613 104.426 210.475 104.066 210.266 103.749C209.627 102.604 208.636 102.4 207.255 103.174L201.711 106.249L199.793 101.773L203.987 99.5033C204.315 99.3432 204.605 99.1146 204.838 98.833C205.07 98.5515 205.24 98.2233 205.335 97.8708C205.43 97.5182 205.449 97.1494 205.389 96.7891C205.33 96.4288 205.194 96.0853 204.991 95.7819C204.352 94.6054 203.399 94.3816 202.12 95.0913L197.925 97.4124L196.34 93.691L201.704 90.7177C203.118 89.944 203.546 88.5118 202.664 86.926C202.024 85.7751 201.116 85.6024 199.844 86.2866L192.497 90.3469C191.065 91.1461 190.649 92.361 191.327 93.9532" fill="white"/>
<path fill-rule="evenodd" clip-rule="evenodd" d="M213.828 96.3063C212.031 97.112 210.919 96.0889 209.531 96.7091C209.296 96.8033 209.082 96.943 208.902 97.1202C208.721 97.2974 208.577 97.5085 208.479 97.7415C208.38 97.9745 208.329 98.2247 208.327 98.4777C208.325 98.7307 208.374 98.9815 208.47 99.2156C208.562 99.4651 208.714 99.6881 208.912 99.8653C209.111 100.043 209.35 100.169 209.608 100.232C211.247 100.568 212.949 100.377 214.474 99.6888C217.031 98.5506 219.627 95.9354 218.253 92.8535C216.712 89.3942 210.414 91.37 209.717 89.8098C209.506 89.1704 209.902 88.7292 210.497 88.4607C211.884 87.8213 213.016 88.1666 214.212 87.6358C214.666 87.4535 215.03 87.0996 215.225 86.6508C215.42 86.2021 215.43 85.6945 215.254 85.238C215.133 84.9641 214.94 84.7281 214.696 84.5547C214.451 84.3814 214.165 84.2773 213.866 84.2533C212.498 84.1687 211.13 84.4304 209.889 85.0142C207.172 86.2227 205.33 88.8507 206.283 91.8048C207.805 95.2193 213.713 93.7231 214.672 94.9507C214.87 95.5902 214.467 96.0377 213.822 96.3191" fill="white"/>
<path fill-rule="evenodd" clip-rule="evenodd" d="M226.859 78.8119C226.596 78.8772 226.35 78.9944 226.133 79.1566C225.917 79.3188 225.735 79.5228 225.598 79.7564C225.462 79.99 225.374 80.2485 225.339 80.5168C225.304 80.785 225.323 81.0576 225.395 81.3184C224.907 80.8638 224.303 80.5528 223.65 80.4196C222.997 80.2865 222.319 80.3364 221.693 80.5639C217.709 81.9386 217.46 87.4056 218.662 90.8904C219.941 94.5414 222.773 96.2231 225.056 95.4302C226.335 94.989 227.55 93.6079 228.17 91.8495C229.001 93.1283 230.305 93.544 232.492 92.7894C232.784 92.718 233.057 92.5857 233.293 92.4014C233.53 92.217 233.725 91.9847 233.866 91.7197C234.007 91.4546 234.09 91.1628 234.11 90.8635C234.13 90.5641 234.086 90.2638 233.982 89.9824C233.637 88.9785 232.818 88.7036 231.623 89.0936C231.574 89.116 231.522 89.1278 231.469 89.1281C231.415 89.1284 231.363 89.1173 231.314 89.0955C231.266 89.0736 231.222 89.0416 231.187 89.0016C231.152 88.9615 231.126 88.9144 231.111 88.8634C229.091 80.0331 229.084 79.9116 229.046 79.8413C228.993 79.6121 228.888 79.3979 228.74 79.2152C228.592 79.0324 228.404 78.8858 228.191 78.7865C227.978 78.6873 227.744 78.638 227.509 78.6424C227.274 78.6467 227.043 78.7047 226.833 78.8119H226.859ZM225.171 91.4211C223.86 91.8815 222.805 90.7817 222.274 89.2215C221.744 87.6613 221.533 84.4899 223.476 83.8185C224.551 83.4476 225.893 84.2405 226.552 86.1459C227.076 87.6741 227.153 90.7305 225.171 91.4211Z" fill="white"/>
<path fill-rule="evenodd" clip-rule="evenodd" d="M241.348 76.7915C240.897 76.2963 240.318 75.9347 239.675 75.7464C239.033 75.558 238.35 75.5502 237.703 75.7236C233.867 76.6764 232.888 82.1753 233.777 85.7241C234.698 89.4199 237.384 91.1911 239.743 90.5517C240.527 90.3583 241.246 89.9606 241.827 89.399C242.408 88.8375 242.829 88.132 243.049 87.3546C243.426 90.0146 243.17 91.9008 240.99 92.4699C240.279 92.6444 239.534 92.6334 238.829 92.4379C238.372 92.2484 237.871 92.193 237.384 92.2781C236.832 92.4355 236.361 92.7983 236.069 93.2918C235.776 93.7853 235.684 94.3721 235.811 94.9317C235.872 95.2306 236.008 95.5092 236.206 95.7416C236.404 95.9741 236.657 96.1529 236.942 96.2616C238.331 96.7815 239.842 96.875 241.284 96.5302C244.801 95.6542 247.416 92.0543 246.681 86.8111C245.114 75.8451 245.114 75.7428 245.095 75.6469C245.06 75.4135 244.972 75.1911 244.839 74.9963C244.706 74.8015 244.53 74.6393 244.325 74.5219C244.121 74.4044 243.892 74.3348 243.656 74.3181C243.421 74.3015 243.185 74.3382 242.966 74.4256C242.689 74.4711 242.425 74.5735 242.19 74.7263C241.955 74.8791 241.754 75.079 241.6 75.3134C241.446 75.5478 241.343 75.8115 241.296 76.0879C241.249 76.3643 241.26 76.6474 241.329 76.9193L241.348 76.7915ZM240.191 86.8495C238.848 87.182 237.895 85.9862 237.499 84.3941C237.128 82.9043 237.173 79.6241 239.174 79.1189C240.274 78.844 241.546 79.7583 242.032 81.6766C242.441 83.2751 242.275 86.3379 240.216 86.8495H240.191Z" fill="white"/>
<path fill-rule="evenodd" clip-rule="evenodd" d="M254.008 72.5776C249.718 73.2618 247.569 78.0446 248.254 82.1689C248.81 85.7112 251.272 88.2241 255.166 87.6103C256.198 87.4757 257.189 87.1206 258.072 86.5689C258.954 86.0173 259.708 85.282 260.281 84.4132C260.417 84.2462 260.518 84.0541 260.58 83.8478C260.641 83.6415 260.661 83.4252 260.639 83.2111C260.511 82.4374 260.191 81.6445 259.175 81.8108C257.896 82.0154 257.212 83.6587 255.338 83.9528C254.341 84.1127 252.295 83.7418 251.994 81.8044C251.994 81.7085 251.994 81.5806 251.962 81.4847L257.512 80.6023C259.379 80.3082 260.518 80.1291 260.415 78.2365C260.403 77.8997 260.366 77.5642 260.307 77.2326C259.795 74.0355 257.576 72.0533 254.04 72.6096L254.008 72.5776ZM252.033 78.8887C252.006 78.2431 252.218 77.6105 252.629 77.1116C253.039 76.6127 253.619 76.2824 254.258 76.1839C254.514 76.1295 254.78 76.1303 255.036 76.1864C255.292 76.2425 255.534 76.3525 255.744 76.5092C255.955 76.6659 256.13 76.8656 256.257 77.0951C256.384 77.3245 256.461 77.5785 256.483 77.84C256.493 77.9527 256.493 78.0662 256.483 78.1789L252.033 78.8887Z" fill="white"/>
<path fill-rule="evenodd" clip-rule="evenodd" d="M261.886 74.2721C261.886 84.5027 261.886 84.6434 261.886 84.7585C261.988 85.7368 262.608 86.1652 263.695 86.0373C263.955 86.0422 264.213 85.991 264.452 85.8872C264.69 85.7835 264.903 85.6296 265.077 85.436C265.25 85.2425 265.38 85.0138 265.457 84.7656C265.534 84.5173 265.557 84.2554 265.524 83.9976V77.3157C265.572 76.8154 265.787 76.3459 266.135 75.9837C266.484 75.6214 266.944 75.3878 267.442 75.3207C267.871 75.2696 268.312 75.3719 268.862 75.3207C269.408 75.2487 269.906 74.9697 270.252 74.5413C270.598 74.1129 270.767 73.5679 270.723 73.0188C270.627 72.1108 269.872 71.3116 268.12 71.4906C266.91 71.7706 265.86 72.5175 265.198 73.5687V73.4536C265.202 73.2631 265.162 73.0743 265.084 72.9008C265.005 72.7274 264.888 72.5738 264.742 72.4512C264.596 72.3287 264.425 72.2402 264.241 72.1924C264.056 72.1446 263.863 72.1386 263.676 72.1748C262.468 72.3027 261.867 72.9805 261.86 74.2785" fill="white"/>
<path fill-rule="evenodd" clip-rule="evenodd" d="M282.06 71.2285C281.812 71.2174 281.565 71.2555 281.333 71.3408C281.1 71.426 280.887 71.5566 280.706 71.725C280.524 71.8934 280.378 72.0962 280.276 72.3216C280.173 72.5471 280.117 72.7906 280.109 73.038C279.807 72.5074 279.362 72.0715 278.826 71.779C278.289 71.4866 277.682 71.3491 277.072 71.382C273.236 71.5162 271.529 76.2479 271.644 79.624C271.772 83.16 273.811 85.3787 276.056 85.3212C277.334 85.2764 278.728 84.394 279.745 83.0193C280.135 84.3493 281.158 85.0718 283.287 85.0015C283.562 85.0164 283.837 84.9731 284.093 84.8744C284.35 84.7757 284.583 84.6239 284.777 84.4289C284.97 84.2338 285.121 84 285.218 83.7428C285.315 83.4855 285.357 83.2106 285.34 82.9362C285.308 81.9707 284.669 81.4783 283.505 81.5167C283.458 81.5266 283.409 81.5255 283.362 81.5135C283.315 81.5014 283.272 81.4787 283.235 81.4471C283.199 81.4156 283.17 81.376 283.151 81.3315C283.133 81.287 283.125 81.2388 283.128 81.1906C283.716 72.8782 283.767 72.8142 283.767 72.7183C283.78 72.5028 283.744 72.2872 283.662 72.0877C283.579 71.8881 283.453 71.7099 283.291 71.5664C283.13 71.423 282.938 71.318 282.73 71.2595C282.523 71.2009 282.304 71.1903 282.092 71.2285H282.06ZM277.239 81.8364C275.96 81.8747 275.32 80.6279 275.32 79.1317C275.32 77.6354 275.96 74.7773 277.827 74.7133C278.863 74.6749 279.822 75.73 279.886 77.5779C279.886 79.0421 279.144 81.7597 277.207 81.8364H277.239Z" fill="white"/>
<path fill-rule="evenodd" clip-rule="evenodd" d="M289.298 73.639C287.623 83.1471 287.61 83.2302 287.604 83.3709C287.54 84.2852 288.045 84.7904 289.068 84.8671C289.308 84.9144 289.555 84.9092 289.792 84.8519C290.03 84.7947 290.252 84.6868 290.444 84.5355C290.636 84.3843 290.793 84.1933 290.904 83.9758C291.015 83.7582 291.078 83.5191 291.088 83.275L292.175 77.079C292.305 76.6193 292.587 76.2171 292.975 75.9384C293.363 75.6596 293.834 75.5207 294.311 75.5444C294.707 75.5444 295.104 75.7299 295.622 75.7746C296.141 75.7982 296.65 75.6206 297.041 75.2788C297.433 74.937 297.678 74.4573 297.725 73.9395C297.783 73.0891 297.214 72.2195 295.558 72.1044C294.393 72.1729 293.301 72.6938 292.514 73.5559V73.4408C292.546 73.2636 292.539 73.0817 292.493 72.9078C292.446 72.7338 292.363 72.572 292.248 72.4337C292.133 72.2954 291.989 72.184 291.826 72.1072C291.663 72.0305 291.486 71.9902 291.306 71.9893C290.168 71.9062 289.496 72.4433 289.285 73.639" fill="white"/>
<path fill-rule="evenodd" clip-rule="evenodd" d="M304.899 73.3896C301.063 72.8589 298.032 76.3501 297.521 79.9884C297.079 83.1215 298.512 85.8902 301.996 86.3825C302.904 86.537 303.835 86.4936 304.724 86.2552C305.614 86.0168 306.441 85.5891 307.15 85.0014C307.466 84.7834 307.684 84.4507 307.758 84.0742C307.853 83.3901 307.758 82.6292 306.882 82.5077C305.743 82.3478 304.739 83.5627 303.083 83.3325C302.201 83.211 300.564 82.367 300.807 80.6406C300.807 80.5575 300.858 80.4552 300.865 80.3656L305.788 81.0626C307.444 81.2928 308.461 81.4335 308.857 79.7838C308.941 79.4974 308.998 79.2043 309.03 78.9078C309.433 76.0496 308.058 73.7925 304.919 73.3704L304.899 73.3896ZM301.587 78.1661C301.732 77.6118 302.077 77.1304 302.554 76.8142C303.032 76.498 303.61 76.3692 304.177 76.4524C304.409 76.4725 304.634 76.5418 304.837 76.6558C305.04 76.7698 305.217 76.9258 305.355 77.1134C305.493 77.301 305.589 77.5159 305.637 77.7438C305.686 77.9716 305.685 78.2071 305.635 78.4346C305.621 78.5341 305.599 78.6324 305.571 78.7287L301.587 78.1661Z" fill="white"/>
<path d="M237.492 44.0277C236.488 44.7374 234.666 43.8486 234.935 42.0711C235.103 41.379 235.524 40.7753 236.117 40.3797C236.709 39.9841 237.428 39.8255 238.132 39.9354C239.526 40.0953 240.843 41.7194 240.165 43.8486C239.957 44.5108 239.615 45.123 239.16 45.6474C238.705 46.1717 238.148 46.597 237.522 46.8968C236.896 47.1966 236.215 47.3645 235.521 47.3902C234.827 47.4158 234.136 47.2985 233.49 47.0457C231.635 46.336 230.018 44.1939 230.67 40.9969C231.232 38.2666 234.091 34.8329 238.234 34.2255C239.789 33.9831 241.38 34.1688 242.838 34.7626C242.026 34.2355 241.118 33.8767 240.165 33.7075C235.21 32.6525 230.695 35.5299 228.854 40.1017C226.827 45.0955 229.711 48.2798 231.181 49.1878C234.596 51.3234 241.412 49.3604 242.691 43.676C242.846 43.11 242.884 42.518 242.802 41.9367C242.72 41.3554 242.52 40.7971 242.214 40.2962C241.908 39.7953 241.502 39.3625 241.022 39.0244C240.542 38.6863 239.998 38.4502 239.423 38.3305C236.827 37.7998 234.679 39.9354 234.474 41.5276C234.135 44.2003 236.655 44.7247 237.479 44.0213" fill="#91C848"/>
<path d="M236.559 40.8242C237.556 40.1145 239.379 41.0033 239.117 42.7809C238.945 43.4707 238.522 44.0717 237.931 44.4666C237.34 44.8615 236.623 45.0219 235.92 44.9165C234.526 44.763 233.208 43.1389 233.886 41.0033C234.095 40.3409 234.438 39.7286 234.893 39.2042C235.349 38.6798 235.907 38.2545 236.533 37.9548C237.16 37.655 237.841 37.4871 238.535 37.4616C239.229 37.436 239.921 37.5533 240.568 37.8062C242.416 38.516 244.04 40.658 243.382 43.8551C242.819 46.579 239.961 50.019 235.824 50.6265C234.266 50.8632 232.673 50.6754 231.213 50.083C232.022 50.6171 232.932 50.9784 233.886 51.1444C238.848 52.1802 243.35 49.3221 245.197 44.7502C247.212 39.7692 244.302 36.5785 242.851 35.6706C239.443 33.5413 232.62 35.5043 231.341 41.1887C231.185 41.7548 231.146 42.3471 231.229 42.9287C231.311 43.5102 231.511 44.0687 231.818 44.5694C232.125 45.0701 232.532 45.5024 233.013 45.8393C233.494 46.1762 234.04 46.4105 234.615 46.5278C237.173 47.0649 239.353 44.9293 239.558 43.3307C239.897 40.658 237.377 40.1337 236.559 40.837" fill="#43B649"/>
</g>
<defs>
<clipPath id="clip0_445_588">
<rect width="321" height="134" fill="white"/>
</clipPath>
</defs>
</svg>
