<svg width="224" height="224" viewBox="0 0 224 224" fill="none" xmlns="http://www.w3.org/2000/svg">
<rect width="224" height="224" rx="112" fill="#B9D2FF"/>
<circle cx="112" cy="112" r="112" fill="#B9D2FF"/>
<path d="M57.3131 140.016C77.5417 179.838 117.969 200.011 147.611 185.073C165.225 176.196 174.291 160.945 175.133 138.406C175.544 134.31 173.488 131.989 171.432 131.852C166.497 131.525 165.263 136.358 163.617 140.045C161.238 145.37 156.545 151.31 149.158 155.033C130.072 164.651 103.298 150.198 89.356 122.752C75.414 95.3051 79.5838 65.2578 98.6696 55.6394C104.808 52.546 111.555 52.0494 118.479 53.637C125.515 55.2502 130.971 61.1324 138.005 62.7504C139.253 63.0374 140.318 62.9572 140.991 62.2867C143.294 59.9928 139.483 55.05 137.289 52.8653C117.261 36.6581 93.8805 31.024 74.3569 40.8631C44.7153 55.8012 37.0846 100.193 57.3131 140.016Z" fill="white"/>
<path d="M100.325 78.2294L90.6753 104.236C89.4352 107.578 89.3241 111.249 90.723 114.528C91.9284 117.354 93.6813 120.999 95.9586 124.55C98.1663 127.991 100.598 131.165 102.563 133.572C104.359 135.77 107.745 135.25 108.934 132.672L112.096 125.817C112.914 124.046 114.686 122.911 116.637 122.911H142.899C145.451 122.911 147.723 121.298 148.564 118.889L151.418 110.717C152.553 107.467 150.14 104.068 146.697 104.068H126.473C123.08 104.068 120.673 100.762 121.715 97.5328L122.189 96.0633C122.855 93.9984 124.777 92.5989 126.947 92.5989H165.012C167.129 92.5989 169.017 91.2649 169.725 89.2689L173.584 78.378C174.737 75.1238 172.323 71.708 168.871 71.708H109.7C105.519 71.708 101.779 74.3093 100.325 78.2294Z" fill="white"/>
</svg>
