<svg width="682" height="188" viewBox="0 0 682 188" fill="none" xmlns="http://www.w3.org/2000/svg">
<path d="M233.215 163.832H228.607L228.247 161.24C227.131 162.86 224.719 164.372 221.083 164.372C213.991 164.372 208.159 159.152 208.159 151.088C208.159 143.06 214.243 137.768 221.443 137.768C228.751 137.768 232.135 142.088 233.251 145.652L227.779 147.56C227.383 145.976 225.691 143.096 221.443 143.096C217.987 143.096 213.919 145.4 213.919 151.088C213.919 156.416 217.447 159.188 221.587 159.188C225.799 159.188 227.563 156.452 227.887 155.012H220.219V150.188H233.215V163.832ZM243.118 163.832H237.646V145.94H243.118V163.832ZM237.178 140.468C237.178 138.704 238.618 137.264 240.346 137.264C242.146 137.264 243.586 138.704 243.586 140.468C243.586 142.232 242.146 143.672 240.346 143.672C238.618 143.672 237.178 142.232 237.178 140.468ZM256.12 159.332C258.208 159.332 260.152 157.892 260.152 154.868C260.152 151.844 258.208 150.44 256.12 150.44C254.068 150.44 252.088 151.844 252.088 154.868C252.088 157.856 254.068 159.332 256.12 159.332ZM256.12 145.4C261.484 145.4 265.624 149.324 265.624 154.868C265.624 160.412 261.484 164.372 256.12 164.372C250.792 164.372 246.616 160.412 246.616 154.868C246.616 149.324 250.792 145.4 256.12 145.4ZM277.39 150.44C275.122 150.44 273.286 152.024 273.286 154.904C273.286 157.748 275.194 159.332 277.462 159.332C279.586 159.332 280.774 158 281.17 156.668L285.994 158.144C285.202 161.276 282.25 164.372 277.462 164.372C272.134 164.372 267.85 160.448 267.85 154.904C267.85 149.324 272.026 145.4 277.282 145.4C282.214 145.4 285.094 148.424 285.886 151.628L280.99 153.104C280.594 151.736 279.514 150.44 277.39 150.44ZM288.211 158.9C288.211 155.732 290.551 153.932 293.503 153.5L297.715 152.852C298.687 152.708 299.011 152.24 299.011 151.628C299.011 150.584 298.111 149.684 296.383 149.684C294.475 149.684 293.431 150.98 293.323 152.312L288.571 151.34C288.787 148.784 291.163 145.4 296.419 145.4C302.215 145.4 304.339 148.64 304.339 152.312V161.06C304.339 162.464 304.519 163.652 304.555 163.832H299.623C299.587 163.688 299.443 163.04 299.443 161.816C298.507 163.328 296.779 164.336 294.403 164.336C290.479 164.336 288.211 161.744 288.211 158.9ZM295.735 160.376C297.355 160.376 299.011 159.584 299.011 156.812V156.02L295.627 156.56C294.475 156.74 293.611 157.28 293.611 158.54C293.611 159.476 294.223 160.376 295.735 160.376ZM326.047 150.44C323.779 150.44 321.943 152.024 321.943 154.904C321.943 157.748 323.851 159.332 326.119 159.332C328.243 159.332 329.431 158 329.827 156.668L334.651 158.144C333.859 161.276 330.907 164.372 326.119 164.372C320.791 164.372 316.507 160.448 316.507 154.904C316.507 149.324 320.683 145.4 325.939 145.4C330.871 145.4 333.751 148.424 334.543 151.628L329.647 153.104C329.251 151.736 328.171 150.44 326.047 150.44ZM346.015 159.332C348.103 159.332 350.047 157.892 350.047 154.868C350.047 151.844 348.103 150.44 346.015 150.44C343.963 150.44 341.983 151.844 341.983 154.868C341.983 157.856 343.963 159.332 346.015 159.332ZM346.015 145.4C351.379 145.4 355.519 149.324 355.519 154.868C355.519 160.412 351.379 164.372 346.015 164.372C340.687 164.372 336.511 160.412 336.511 154.868C336.511 149.324 340.687 145.4 346.015 145.4ZM364.513 153.572V163.832H359.041V145.94H364.333V147.992C365.305 146.3 367.501 145.472 369.337 145.472C373.837 145.472 375.853 148.676 375.853 152.6V163.832H370.381V153.536C370.381 151.772 369.445 150.44 367.465 150.44C365.665 150.44 364.513 151.772 364.513 153.572ZM394.782 163.832H389.31V137.768H394.782V163.832ZM398.355 158.9C398.355 155.732 400.695 153.932 403.647 153.5L407.859 152.852C408.831 152.708 409.155 152.24 409.155 151.628C409.155 150.584 408.255 149.684 406.527 149.684C404.619 149.684 403.575 150.98 403.467 152.312L398.715 151.34C398.931 148.784 401.307 145.4 406.563 145.4C412.359 145.4 414.483 148.64 414.483 152.312V161.06C414.483 162.464 414.663 163.652 414.699 163.832H409.767C409.731 163.688 409.587 163.04 409.587 161.816C408.651 163.328 406.923 164.336 404.547 164.336C400.623 164.336 398.355 161.744 398.355 158.9ZM405.879 160.376C407.499 160.376 409.155 159.584 409.155 156.812V156.02L405.771 156.56C404.619 156.74 403.755 157.28 403.755 158.54C403.755 159.476 404.367 160.376 405.879 160.376ZM440.583 163.832L436.011 154.328H433.995V163.832H428.307V138.308H438.423C443.463 138.308 446.703 141.764 446.703 146.3C446.703 149.756 444.795 152.384 441.663 153.5L446.847 163.832H440.583ZM433.995 149.432H437.343C439.683 149.432 440.943 148.136 440.943 146.336C440.943 144.428 439.683 143.24 437.343 143.24H433.995V149.432ZM454.306 152.744H461.47C461.398 151.376 460.462 149.72 457.87 149.72C455.566 149.72 454.414 151.412 454.306 152.744ZM461.866 157.388L466.438 158.684C465.574 161.78 462.73 164.372 458.194 164.372C453.262 164.372 448.87 160.844 448.87 154.832C448.87 149.072 453.154 145.4 457.798 145.4C463.342 145.4 466.762 148.82 466.762 154.58C466.762 155.336 466.69 156.164 466.654 156.272H454.198C454.306 158.288 456.142 159.728 458.266 159.728C460.246 159.728 461.362 158.792 461.866 157.388ZM468.799 158.756L473.443 157.928C473.515 159.152 474.379 160.34 476.251 160.34C477.655 160.34 478.339 159.584 478.339 158.792C478.339 158.144 477.907 157.604 476.575 157.316L474.523 156.848C470.707 156.02 469.195 153.86 469.195 151.34C469.195 148.064 472.075 145.4 476.071 145.4C481.255 145.4 483.055 148.64 483.235 150.728L478.699 151.556C478.555 150.368 477.799 149.36 476.143 149.36C475.099 149.36 474.199 149.972 474.199 150.908C474.199 151.664 474.811 152.096 475.603 152.24L477.979 152.708C481.687 153.464 483.487 155.696 483.487 158.324C483.487 161.384 481.147 164.372 476.359 164.372C470.743 164.372 468.943 160.736 468.799 158.756ZM492.517 170.672H487.045V145.94H492.337V147.776C493.093 146.624 495.037 145.508 497.593 145.508C502.777 145.508 505.909 149.468 505.909 154.832C505.909 160.304 502.381 164.228 497.377 164.228C495.073 164.228 493.345 163.436 492.517 162.428V170.672ZM500.545 154.868C500.545 151.88 498.637 150.44 496.477 150.44C494.353 150.44 492.445 151.88 492.445 154.868C492.445 157.82 494.353 159.332 496.477 159.332C498.637 159.332 500.545 157.856 500.545 154.868ZM517.647 159.332C519.735 159.332 521.679 157.892 521.679 154.868C521.679 151.844 519.735 150.44 517.647 150.44C515.595 150.44 513.615 151.844 513.615 154.868C513.615 157.856 515.595 159.332 517.647 159.332ZM517.647 145.4C523.011 145.4 527.151 149.324 527.151 154.868C527.151 160.412 523.011 164.372 517.647 164.372C512.319 164.372 508.143 160.412 508.143 154.868C508.143 149.324 512.319 145.4 517.647 145.4ZM536.146 153.572V163.832H530.674V145.94H535.966V147.992C536.938 146.3 539.134 145.472 540.97 145.472C545.47 145.472 547.486 148.676 547.486 152.6V163.832H542.014V153.536C542.014 151.772 541.078 150.44 539.098 150.44C537.298 150.44 536.146 151.772 536.146 153.572ZM550.608 158.756L555.252 157.928C555.324 159.152 556.188 160.34 558.06 160.34C559.464 160.34 560.148 159.584 560.148 158.792C560.148 158.144 559.716 157.604 558.384 157.316L556.332 156.848C552.516 156.02 551.004 153.86 551.004 151.34C551.004 148.064 553.884 145.4 557.88 145.4C563.064 145.4 564.864 148.64 565.044 150.728L560.508 151.556C560.364 150.368 559.608 149.36 557.952 149.36C556.908 149.36 556.008 149.972 556.008 150.908C556.008 151.664 556.62 152.096 557.412 152.24L559.788 152.708C563.496 153.464 565.296 155.696 565.296 158.324C565.296 161.384 562.956 164.372 558.168 164.372C552.552 164.372 550.752 160.736 550.608 158.756ZM567.738 158.9C567.738 155.732 570.078 153.932 573.03 153.5L577.242 152.852C578.214 152.708 578.538 152.24 578.538 151.628C578.538 150.584 577.638 149.684 575.91 149.684C574.002 149.684 572.958 150.98 572.85 152.312L568.098 151.34C568.314 148.784 570.69 145.4 575.946 145.4C581.742 145.4 583.866 148.64 583.866 152.312V161.06C583.866 162.464 584.046 163.652 584.082 163.832H579.15C579.114 163.688 578.97 163.04 578.97 161.816C578.034 163.328 576.306 164.336 573.93 164.336C570.006 164.336 567.738 161.744 567.738 158.9ZM575.262 160.376C576.882 160.376 578.538 159.584 578.538 156.812V156.02L575.154 156.56C574.002 156.74 573.138 157.28 573.138 158.54C573.138 159.476 573.75 160.376 575.262 160.376ZM593.763 163.832H588.471V137.768H593.835V147.632C594.591 146.516 596.571 145.508 599.019 145.508C604.203 145.508 607.335 149.468 607.335 154.832C607.335 160.304 603.807 164.228 598.803 164.228C596.427 164.228 594.591 163.184 593.763 161.816V163.832ZM601.863 154.868C601.863 151.844 599.955 150.44 597.831 150.44C595.707 150.44 593.763 151.844 593.763 154.868C593.763 157.82 595.707 159.332 597.831 159.332C599.955 159.332 601.863 157.856 601.863 154.868ZM616.337 163.832H610.865V145.94H616.337V163.832ZM610.397 140.468C610.397 138.704 611.837 137.264 613.565 137.264C615.365 137.264 616.805 138.704 616.805 140.468C616.805 142.232 615.365 143.672 613.565 143.672C611.837 143.672 610.397 142.232 610.397 140.468ZM626.603 163.832H621.131V137.768H626.603V163.832ZM636.904 163.832H631.432V145.94H636.904V163.832ZM630.964 140.468C630.964 138.704 632.404 137.264 634.132 137.264C635.932 137.264 637.372 138.704 637.372 140.468C637.372 142.232 635.932 143.672 634.132 143.672C632.404 143.672 630.964 142.232 630.964 140.468ZM648.249 140.72V145.94H651.741V150.728H648.249V157.424C648.249 158.9 649.041 159.296 650.229 159.296C650.805 159.296 651.345 159.188 651.669 159.116V163.652C651.453 163.76 650.553 164.156 648.825 164.156C645.117 164.156 642.849 161.96 642.849 158.396V150.728H639.681V145.94H640.581C642.453 145.94 643.353 144.68 643.353 143.024V140.72H648.249ZM654.68 158.9C654.68 155.732 657.02 153.932 659.972 153.5L664.184 152.852C665.156 152.708 665.48 152.24 665.48 151.628C665.48 150.584 664.58 149.684 662.852 149.684C660.944 149.684 659.9 150.98 659.792 152.312L655.04 151.34C655.256 148.784 657.632 145.4 662.888 145.4C668.684 145.4 670.808 148.64 670.808 152.312V161.06C670.808 162.464 670.988 163.652 671.024 163.832H666.092C666.056 163.688 665.912 163.04 665.912 161.816C664.976 163.328 663.248 164.336 660.872 164.336C656.948 164.336 654.68 161.744 654.68 158.9ZM662.204 160.376C663.824 160.376 665.48 159.584 665.48 156.812V156.02L662.096 156.56C660.944 156.74 660.08 157.28 660.08 158.54C660.08 159.476 660.692 160.376 662.204 160.376ZM661.376 143.816L656.264 138.38H662.492L665.84 143.816H661.376Z" fill="white"/>
<path d="M198.393 110.035H213.498C215.778 110.035 217.393 107.755 216.633 105.57L197.063 46.9548C196.398 44.9598 194.403 43.5348 192.218 43.5348H173.598C171.413 43.5348 169.513 44.9598 168.753 46.9548L149.183 105.57C148.423 107.755 150.133 110.035 152.413 110.035H167.423C169.323 110.035 171.033 108.8 171.508 106.9L173.503 99.7748H192.313L194.308 106.9C194.878 108.8 196.493 110.035 198.393 110.035ZM177.588 84.9548L182.908 65.6698L188.228 84.9548H177.588Z" fill="#BFD3FB"/>
<path d="M263.106 47.7148V77.1648L243.631 45.9098C242.681 44.3898 241.066 43.5348 239.356 43.5348H227.101C224.726 43.5348 222.921 45.4348 222.921 47.7148V105.76C222.921 108.135 224.726 110.035 227.101 110.035H240.021C242.396 110.035 244.296 108.135 244.296 105.76V76.4048L263.676 107.66C264.626 109.085 266.241 110.035 267.951 110.035H280.206C282.581 110.035 284.481 108.135 284.481 105.76V47.7148C284.481 45.4348 282.581 43.5348 280.206 43.5348H267.286C264.911 43.5348 263.106 45.4348 263.106 47.7148Z" fill="#BFD3FB"/>
<path d="M339.205 43.5348H295.22C292.845 43.5348 290.945 45.4348 290.945 47.7148V58.8298C290.945 61.2048 292.845 63.1048 295.22 63.1048H306.525V105.76C306.525 108.135 308.425 110.035 310.705 110.035H323.625C326 110.035 327.9 108.135 327.9 105.76V63.1048H339.205C341.485 63.1048 343.385 61.2048 343.385 58.8298V47.7148C343.385 45.4348 341.485 43.5348 339.205 43.5348Z" fill="#BFD3FB"/>
<path d="M391.455 110.035H406.56C408.84 110.035 410.455 107.755 409.695 105.57L390.125 46.9548C389.46 44.9598 387.465 43.5348 385.28 43.5348H366.66C364.475 43.5348 362.575 44.9598 361.815 46.9548L342.245 105.57C341.485 107.755 343.195 110.035 345.475 110.035H360.485C362.385 110.035 364.095 108.8 364.57 106.9L366.565 99.7748H385.375L387.37 106.9C387.94 108.8 389.555 110.035 391.455 110.035ZM370.65 84.9548L375.97 65.6698L381.29 84.9548H370.65Z" fill="#BFD3FB"/>
<path d="M445.786 90.4648C437.806 90.4648 432.011 84.7648 432.011 76.7848C432.011 68.8048 437.806 63.1048 445.786 63.1048C449.396 63.1048 452.531 64.2448 454.906 66.3348C456.141 67.3798 457.756 67.5698 459.086 66.7148L471.341 58.5448C473.051 57.4998 473.431 55.0298 472.006 53.5098C465.641 46.5748 456.426 42.2998 445.786 42.2998C425.836 42.2998 410.731 57.1198 410.731 76.7848C410.731 96.3548 425.836 111.175 445.786 111.175C456.426 111.175 465.641 106.995 472.006 100.06C473.431 98.5398 473.051 96.0698 471.341 94.9298L459.086 86.8548C457.756 85.9998 456.141 86.1898 454.906 87.2348C452.531 89.3248 449.396 90.4648 445.786 90.4648Z" fill="#BFD3FB"/>
<path d="M526.162 110.035H541.267C543.547 110.035 545.162 107.755 544.402 105.57L524.832 46.9548C524.167 44.9598 522.172 43.5348 519.987 43.5348H501.367C499.182 43.5348 497.282 44.9598 496.522 46.9548L476.952 105.57C476.192 107.755 477.902 110.035 480.182 110.035H495.192C497.092 110.035 498.802 108.8 499.277 106.9L501.272 99.7748H520.082L522.077 106.9C522.647 108.8 524.262 110.035 526.162 110.035ZM505.357 84.9548L510.677 65.6698L515.997 84.9548H505.357Z" fill="#BFD3FB"/>
<path d="M578.904 43.5348H554.964C552.589 43.5348 550.689 45.4348 550.689 47.7148V105.76C550.689 108.135 552.589 110.035 554.964 110.035H567.884C570.164 110.035 572.064 108.135 572.064 105.76V91.9848H578.904C595.624 91.9848 606.929 84.6698 606.929 68.1398C606.929 52.7498 597.239 43.5348 578.904 43.5348ZM578.904 74.1248H572.064V62.2498H578.904C583.274 62.2498 585.364 64.7198 585.364 68.1398C585.364 71.6548 583.274 74.1248 578.904 74.1248Z" fill="#BFD3FB"/>
<path d="M646.27 42.3948C626.32 42.3948 611.215 57.2148 611.215 76.7848C611.215 96.4498 626.32 111.27 646.27 111.27C666.22 111.27 681.325 96.4498 681.325 76.7848C681.325 57.2148 666.22 42.3948 646.27 42.3948ZM646.27 90.4648C638.385 90.4648 632.59 84.8598 632.59 76.7848C632.59 68.8048 638.385 63.1048 646.27 63.1048C654.155 63.1048 659.95 68.8048 659.95 76.7848C659.95 84.8598 654.155 90.4648 646.27 90.4648Z" fill="#BFD3FB"/>
<path d="M13.7545 126.965C38.3484 175.573 87.5004 200.197 123.539 181.963C144.954 171.128 155.976 152.511 157 125C157.5 120 155 117.167 152.5 117C146.5 116.6 145 122.5 142.998 127C140.107 133.5 134.401 140.751 125.42 145.295C102.215 157.035 69.663 139.394 52.7123 105.892C35.7615 72.3895 40.8312 35.7129 64.0357 23.9724C72.1647 19.8595 81.1723 19.5074 90.3797 22.1077C97.3373 24.0727 102.984 29.0931 109.643 31.9084C112.083 32.9398 114.294 33.2821 115.49 32.0863C118.29 29.2863 113.656 23.253 110.99 20.5863C86.6392 0.803301 58.2131 -6.07384 34.4763 5.93603C-1.56194 24.1699 -10.8394 78.3563 13.7545 126.965Z" fill="#3670E5"/>
<path d="M66.5752 50.1199L53.8891 84.4469C52.658 87.7783 52.5539 91.4317 53.9003 94.7182C55.3636 98.29 57.6563 103.26 60.7397 108.086C63.7368 112.777 67.0735 117.061 69.5815 120.087C71.3966 122.278 74.7919 121.752 75.9796 119.167L80.6516 108.999C81.4671 107.224 83.2416 106.086 85.195 106.086H118.724C121.278 106.086 123.552 104.47 124.391 102.058L128.679 89.729C129.809 86.4798 127.397 83.0864 123.957 83.0864H96.3488C92.9586 83.0864 90.5513 79.784 91.5887 76.5564L92.8744 72.5564C93.539 70.4886 95.4626 69.0864 97.6345 69.0864H145.452C147.572 69.0864 149.462 67.7496 150.167 65.7505L155.638 50.2505C156.786 46.9974 154.373 43.5864 150.923 43.5864H75.9551C71.7692 43.5864 68.0262 46.1936 66.5752 50.1199Z" fill="#BFD3FB"/>
</svg>
