<svg width="682" height="188" viewBox="0 0 682 188" fill="none" xmlns="http://www.w3.org/2000/svg">
<path d="M198.393 110.035H213.498C215.778 110.035 217.393 107.755 216.633 105.57L197.063 46.9551C196.398 44.96 194.403 43.535 192.218 43.535H173.598C171.413 43.535 169.513 44.96 168.753 46.9551L149.183 105.57C148.423 107.755 150.133 110.035 152.413 110.035H167.423C169.323 110.035 171.033 108.8 171.508 106.9L173.503 99.7751H192.313L194.308 106.9C194.878 108.8 196.493 110.035 198.393 110.035ZM177.588 84.9551L182.908 65.6701L188.228 84.9551H177.588Z" fill="white"/>
<path d="M263.106 47.7151V77.1651L243.631 45.9101C242.681 44.3901 241.066 43.535 239.356 43.535H227.101C224.726 43.535 222.921 45.4351 222.921 47.7151V105.76C222.921 108.135 224.726 110.035 227.101 110.035H240.021C242.396 110.035 244.296 108.135 244.296 105.76V76.4051L263.676 107.66C264.626 109.085 266.241 110.035 267.951 110.035H280.206C282.581 110.035 284.481 108.135 284.481 105.76V47.7151C284.481 45.4351 282.581 43.535 280.206 43.535H267.286C264.911 43.535 263.106 45.4351 263.106 47.7151Z" fill="white"/>
<path d="M339.205 43.535H295.22C292.845 43.535 290.945 45.4351 290.945 47.7151V58.8301C290.945 61.2051 292.845 63.1051 295.22 63.1051H306.525V105.76C306.525 108.135 308.425 110.035 310.705 110.035H323.625C326 110.035 327.9 108.135 327.9 105.76V63.1051H339.205C341.485 63.1051 343.385 61.2051 343.385 58.8301V47.7151C343.385 45.4351 341.485 43.535 339.205 43.535Z" fill="white"/>
<path d="M391.455 110.035H406.56C408.84 110.035 410.455 107.755 409.695 105.57L390.125 46.9551C389.46 44.96 387.465 43.535 385.28 43.535H366.66C364.475 43.535 362.575 44.96 361.815 46.9551L342.245 105.57C341.485 107.755 343.195 110.035 345.475 110.035H360.485C362.385 110.035 364.095 108.8 364.57 106.9L366.565 99.7751H385.375L387.37 106.9C387.94 108.8 389.555 110.035 391.455 110.035ZM370.65 84.9551L375.97 65.6701L381.29 84.9551H370.65Z" fill="white"/>
<path d="M445.786 90.4651C437.806 90.4651 432.011 84.7651 432.011 76.7851C432.011 68.8051 437.806 63.1051 445.786 63.1051C449.396 63.1051 452.531 64.2451 454.906 66.3351C456.141 67.3801 457.756 67.5701 459.086 66.7151L471.341 58.545C473.051 57.5 473.431 55.03 472.006 53.5101C465.641 46.5751 456.426 42.3 445.786 42.3C425.836 42.3 410.731 57.1201 410.731 76.7851C410.731 96.3551 425.836 111.175 445.786 111.175C456.426 111.175 465.641 106.995 472.006 100.06C473.431 98.5401 473.051 96.0701 471.341 94.9301L459.086 86.8551C457.756 86.0001 456.141 86.1901 454.906 87.2351C452.531 89.3251 449.396 90.4651 445.786 90.4651Z" fill="white"/>
<path d="M526.162 110.035H541.267C543.547 110.035 545.162 107.755 544.402 105.57L524.832 46.9551C524.167 44.96 522.172 43.535 519.987 43.535H501.367C499.182 43.535 497.282 44.96 496.522 46.9551L476.952 105.57C476.192 107.755 477.902 110.035 480.182 110.035H495.192C497.092 110.035 498.802 108.8 499.277 106.9L501.272 99.7751H520.082L522.077 106.9C522.647 108.8 524.262 110.035 526.162 110.035ZM505.357 84.9551L510.677 65.6701L515.997 84.9551H505.357Z" fill="white"/>
<path d="M578.904 43.535H554.964C552.589 43.535 550.689 45.4351 550.689 47.7151V105.76C550.689 108.135 552.589 110.035 554.964 110.035H567.884C570.164 110.035 572.064 108.135 572.064 105.76V91.9851H578.904C595.624 91.9851 606.929 84.6701 606.929 68.1401C606.929 52.75 597.239 43.535 578.904 43.535ZM578.904 74.1251H572.064V62.2501H578.904C583.274 62.2501 585.364 64.7201 585.364 68.1401C585.364 71.6551 583.274 74.1251 578.904 74.1251Z" fill="white"/>
<path d="M646.27 42.3951C626.32 42.3951 611.215 57.215 611.215 76.7851C611.215 96.4501 626.32 111.27 646.27 111.27C666.22 111.27 681.325 96.4501 681.325 76.7851C681.325 57.215 666.22 42.3951 646.27 42.3951ZM646.27 90.4651C638.385 90.4651 632.59 84.8601 632.59 76.7851C632.59 68.8051 638.385 63.1051 646.27 63.1051C654.155 63.1051 659.95 68.8051 659.95 76.7851C659.95 84.8601 654.155 90.4651 646.27 90.4651Z" fill="white"/>
<path d="M13.7545 126.965C38.3484 175.573 87.5004 200.197 123.539 181.963C144.954 171.128 155.976 152.511 157 125C157.5 120 155 117.167 152.5 117C146.5 116.6 145 122.5 142.998 127C140.107 133.5 134.401 140.751 125.42 145.295C102.215 157.035 69.663 139.394 52.7123 105.892C35.7615 72.3895 40.8312 35.7129 64.0357 23.9724C72.1647 19.8595 81.1723 19.5074 90.3797 22.1077C97.3373 24.0727 102.984 29.0931 109.643 31.9084C112.083 32.9398 114.294 33.2821 115.49 32.0863C118.29 29.2863 113.656 23.253 110.99 20.5863C86.6392 0.803301 58.2131 -6.07384 34.4763 5.93603C-1.56194 24.1699 -10.8394 78.3563 13.7545 126.965Z" fill="white"/>
<path d="M66.5752 50.1199L53.8891 84.4469C52.658 87.7783 52.5539 91.4317 53.9003 94.7182C55.3636 98.29 57.6563 103.26 60.7397 108.086C63.7368 112.777 67.0735 117.061 69.5815 120.087C71.3966 122.278 74.7919 121.752 75.9796 119.167L80.6516 108.999C81.4671 107.224 83.2416 106.086 85.195 106.086H118.724C121.278 106.086 123.552 104.47 124.391 102.058L128.679 89.729C129.809 86.4798 127.397 83.0864 123.957 83.0864H96.3488C92.9586 83.0864 90.5513 79.784 91.5887 76.5564L92.8744 72.5564C93.539 70.4886 95.4626 69.0864 97.6345 69.0864H145.452C147.572 69.0864 149.462 67.7496 150.167 65.7505L155.638 50.2505C156.786 46.9974 154.373 43.5864 150.923 43.5864H75.9551C71.7692 43.5864 68.0262 46.1936 66.5752 50.1199Z" fill="white"/>
</svg>
