<svg width="682" height="188" viewBox="0 0 682 188" fill="none" xmlns="http://www.w3.org/2000/svg">
<path d="M198.393 110.035H213.498C215.778 110.035 217.393 107.755 216.633 105.57L197.063 46.9551C196.398 44.96 194.403 43.535 192.218 43.535H173.598C171.413 43.535 169.513 44.96 168.753 46.9551L149.183 105.57C148.423 107.755 150.133 110.035 152.413 110.035H167.423C169.323 110.035 171.033 108.8 171.508 106.9L173.503 99.7751H192.313L194.308 106.9C194.878 108.8 196.493 110.035 198.393 110.035ZM177.588 84.9551L182.908 65.6701L188.228 84.9551H177.588Z" fill="#E95252"/>
<path d="M263.106 47.7151V77.1651L243.631 45.9101C242.681 44.3901 241.066 43.535 239.356 43.535H227.101C224.726 43.535 222.921 45.4351 222.921 47.7151V105.76C222.921 108.135 224.726 110.035 227.101 110.035H240.021C242.396 110.035 244.296 108.135 244.296 105.76V76.4051L263.676 107.66C264.626 109.085 266.241 110.035 267.951 110.035H280.206C282.581 110.035 284.481 108.135 284.481 105.76V47.7151C284.481 45.4351 282.581 43.535 280.206 43.535H267.286C264.911 43.535 263.106 45.4351 263.106 47.7151Z" fill="#E95252"/>
<path d="M339.205 43.535H295.22C292.845 43.535 290.945 45.4351 290.945 47.7151V58.8301C290.945 61.2051 292.845 63.1051 295.22 63.1051H306.525V105.76C306.525 108.135 308.425 110.035 310.705 110.035H323.625C326 110.035 327.9 108.135 327.9 105.76V63.1051H339.205C341.485 63.1051 343.385 61.2051 343.385 58.8301V47.7151C343.385 45.4351 341.485 43.535 339.205 43.535Z" fill="#E95252"/>
<path d="M391.455 110.035H406.56C408.84 110.035 410.455 107.755 409.695 105.57L390.125 46.9551C389.46 44.96 387.465 43.535 385.28 43.535H366.66C364.475 43.535 362.575 44.96 361.815 46.9551L342.245 105.57C341.485 107.755 343.195 110.035 345.475 110.035H360.485C362.385 110.035 364.095 108.8 364.57 106.9L366.565 99.7751H385.375L387.37 106.9C387.94 108.8 389.555 110.035 391.455 110.035ZM370.65 84.9551L375.97 65.6701L381.29 84.9551H370.65Z" fill="#E95252"/>
<path d="M445.786 90.4651C437.806 90.4651 432.011 84.7651 432.011 76.7851C432.011 68.8051 437.806 63.1051 445.786 63.1051C449.396 63.1051 452.531 64.2451 454.906 66.3351C456.141 67.3801 457.756 67.5701 459.086 66.7151L471.341 58.545C473.051 57.5 473.431 55.03 472.006 53.5101C465.641 46.5751 456.426 42.3 445.786 42.3C425.836 42.3 410.731 57.1201 410.731 76.7851C410.731 96.3551 425.836 111.175 445.786 111.175C456.426 111.175 465.641 106.995 472.006 100.06C473.431 98.5401 473.051 96.0701 471.341 94.9301L459.086 86.8551C457.756 86.0001 456.141 86.1901 454.906 87.2351C452.531 89.3251 449.396 90.4651 445.786 90.4651Z" fill="#E95252"/>
<path d="M526.162 110.035H541.267C543.547 110.035 545.162 107.755 544.402 105.57L524.832 46.9551C524.167 44.96 522.172 43.535 519.987 43.535H501.367C499.182 43.535 497.282 44.96 496.522 46.9551L476.952 105.57C476.192 107.755 477.902 110.035 480.182 110.035H495.192C497.092 110.035 498.802 108.8 499.277 106.9L501.272 99.7751H520.082L522.077 106.9C522.647 108.8 524.262 110.035 526.162 110.035ZM505.357 84.9551L510.677 65.6701L515.997 84.9551H505.357Z" fill="#E95252"/>
<path d="M578.904 43.535H554.964C552.589 43.535 550.689 45.4351 550.689 47.7151V105.76C550.689 108.135 552.589 110.035 554.964 110.035H567.884C570.164 110.035 572.064 108.135 572.064 105.76V91.9851H578.904C595.624 91.9851 606.929 84.6701 606.929 68.1401C606.929 52.75 597.239 43.535 578.904 43.535ZM578.904 74.1251H572.064V62.2501H578.904C583.274 62.2501 585.364 64.7201 585.364 68.1401C585.364 71.6551 583.274 74.1251 578.904 74.1251Z" fill="#E95252"/>
<path d="M646.27 42.3951C626.32 42.3951 611.215 57.215 611.215 76.7851C611.215 96.4501 626.32 111.27 646.27 111.27C666.22 111.27 681.325 96.4501 681.325 76.7851C681.325 57.215 666.22 42.3951 646.27 42.3951ZM646.27 90.4651C638.385 90.4651 632.59 84.8601 632.59 76.7851C632.59 68.8051 638.385 63.1051 646.27 63.1051C654.155 63.1051 659.95 68.8051 659.95 76.7851C659.95 84.8601 654.155 90.4651 646.27 90.4651Z" fill="#E95252"/>
<path d="M13.7545 126.965C38.3484 175.573 87.5004 200.197 123.539 181.963C144.954 171.128 155.976 152.511 157 125C157.5 120 155 117.167 152.5 117C146.5 116.6 145 122.5 142.998 127C140.107 133.5 134.401 140.751 125.42 145.295C102.215 157.035 69.663 139.394 52.7123 105.892C35.7615 72.3895 40.8312 35.7129 64.0357 23.9724C72.1647 19.8595 81.1723 19.5074 90.3797 22.1077C97.3373 24.0727 102.984 29.0931 109.643 31.9084C112.083 32.9398 114.294 33.2821 115.49 32.0863C118.29 29.2863 113.656 23.253 110.99 20.5863C86.6392 0.803301 58.2131 -6.07384 34.4763 5.93603C-1.56194 24.1699 -10.8394 78.3563 13.7545 126.965Z" fill="#86E477"/>
<path d="M66.5752 50.1199L53.8891 84.4469C52.658 87.7783 52.5539 91.4317 53.9003 94.7182C55.3636 98.29 57.6563 103.26 60.7397 108.086C63.7368 112.777 67.0735 117.061 69.5815 120.087C71.3966 122.278 74.7919 121.752 75.9796 119.167L80.6516 108.999C81.4671 107.224 83.2416 106.086 85.195 106.086H118.724C121.278 106.086 123.552 104.47 124.391 102.058L128.679 89.729C129.809 86.4798 127.397 83.0864 123.957 83.0864H96.3488C92.9586 83.0864 90.5513 79.784 91.5887 76.5564L92.8744 72.5564C93.539 70.4886 95.4626 69.0864 97.6345 69.0864H145.452C147.572 69.0864 149.462 67.7496 150.167 65.7505L155.638 50.2505C156.786 46.9974 154.373 43.5864 150.923 43.5864H75.9551C71.7692 43.5864 68.0262 46.1936 66.5752 50.1199Z" fill="#E95252"/>
<path d="M13.7545 126.965C38.3484 175.573 87.5004 200.197 123.539 181.963C144.954 171.128 155.976 152.511 157 125C157.5 120 155 117.167 152.5 117C146.5 116.6 145 122.5 142.998 127C140.107 133.5 134.401 140.751 125.42 145.295C102.215 157.035 69.663 139.394 52.7123 105.892C35.7615 72.3895 40.8312 35.7129 64.0357 23.9724C72.1647 19.8595 81.1723 19.5074 90.3797 22.1077C97.3373 24.0727 102.984 29.0931 109.643 31.9084C112.083 32.9398 114.294 33.2821 115.49 32.0863C118.29 29.2863 113.656 23.253 110.99 20.5863C86.6392 0.803301 58.2131 -6.07384 34.4763 5.93603C-1.56194 24.1699 -10.8394 78.3563 13.7545 126.965Z" fill="#2D9CDB"/>
<path d="M66.5752 50.1199L53.8891 84.4469C52.658 87.7783 52.5539 91.4317 53.9003 94.7182C55.3636 98.29 57.6563 103.26 60.7397 108.086C63.7368 112.777 67.0735 117.061 69.5815 120.087C71.3966 122.278 74.7919 121.752 75.9796 119.167L80.6516 108.999C81.4671 107.224 83.2416 106.086 85.195 106.086H118.724C121.278 106.086 123.552 104.47 124.391 102.058L128.679 89.729C129.809 86.4798 127.397 83.0864 123.957 83.0864H96.3488C92.9586 83.0864 90.5513 79.784 91.5887 76.5564L92.8744 72.5564C93.539 70.4886 95.4626 69.0864 97.6345 69.0864H145.452C147.572 69.0864 149.462 67.7496 150.167 65.7505L155.638 50.2505C156.786 46.9974 154.373 43.5864 150.923 43.5864H75.9551C71.7692 43.5864 68.0262 46.1936 66.5752 50.1199Z" fill="#E95252"/>
<path d="M233.215 163.832V150.188H220.219V155.012H227.887C227.563 156.452 225.799 159.188 221.587 159.188C217.447 159.188 213.919 156.416 213.919 151.088C213.919 145.4 217.987 143.096 221.443 143.096C225.691 143.096 227.383 145.976 227.779 147.56L233.251 145.652C232.135 142.088 228.751 137.768 221.443 137.768C214.243 137.768 208.159 143.06 208.159 151.088C208.159 159.152 213.991 164.372 221.083 164.372C224.719 164.372 227.131 162.86 228.247 161.24L228.607 163.832H233.215ZM243.118 163.832V145.94H237.646V163.832H243.118ZM237.178 140.468C237.178 142.232 238.618 143.672 240.346 143.672C242.146 143.672 243.586 142.232 243.586 140.468C243.586 138.704 242.146 137.264 240.346 137.264C238.618 137.264 237.178 138.704 237.178 140.468ZM256.12 159.332C254.068 159.332 252.088 157.856 252.088 154.868C252.088 151.844 254.068 150.44 256.12 150.44C258.208 150.44 260.152 151.844 260.152 154.868C260.152 157.892 258.208 159.332 256.12 159.332ZM256.12 145.4C250.792 145.4 246.616 149.324 246.616 154.868C246.616 160.412 250.792 164.372 256.12 164.372C261.484 164.372 265.624 160.412 265.624 154.868C265.624 149.324 261.484 145.4 256.12 145.4ZM277.39 150.44C279.514 150.44 280.594 151.736 280.99 153.104L285.886 151.628C285.094 148.424 282.214 145.4 277.282 145.4C272.026 145.4 267.85 149.324 267.85 154.904C267.85 160.448 272.134 164.372 277.462 164.372C282.25 164.372 285.202 161.276 285.994 158.144L281.17 156.668C280.774 158 279.586 159.332 277.462 159.332C275.194 159.332 273.286 157.748 273.286 154.904C273.286 152.024 275.122 150.44 277.39 150.44ZM288.211 158.9C288.211 161.744 290.479 164.336 294.403 164.336C296.779 164.336 298.507 163.328 299.443 161.816C299.443 163.04 299.587 163.688 299.623 163.832H304.555C304.519 163.652 304.339 162.464 304.339 161.06V152.312C304.339 148.64 302.215 145.4 296.419 145.4C291.163 145.4 288.787 148.784 288.571 151.34L293.323 152.312C293.431 150.98 294.475 149.684 296.383 149.684C298.111 149.684 299.011 150.584 299.011 151.628C299.011 152.24 298.687 152.708 297.715 152.852L293.503 153.5C290.551 153.932 288.211 155.732 288.211 158.9ZM295.735 160.376C294.223 160.376 293.611 159.476 293.611 158.54C293.611 157.28 294.475 156.74 295.627 156.56L299.011 156.02V156.812C299.011 159.584 297.355 160.376 295.735 160.376ZM326.047 150.44C328.171 150.44 329.251 151.736 329.647 153.104L334.543 151.628C333.751 148.424 330.871 145.4 325.939 145.4C320.683 145.4 316.507 149.324 316.507 154.904C316.507 160.448 320.791 164.372 326.119 164.372C330.907 164.372 333.859 161.276 334.651 158.144L329.827 156.668C329.431 158 328.243 159.332 326.119 159.332C323.851 159.332 321.943 157.748 321.943 154.904C321.943 152.024 323.779 150.44 326.047 150.44ZM346.015 159.332C343.963 159.332 341.983 157.856 341.983 154.868C341.983 151.844 343.963 150.44 346.015 150.44C348.103 150.44 350.047 151.844 350.047 154.868C350.047 157.892 348.103 159.332 346.015 159.332ZM346.015 145.4C340.687 145.4 336.511 149.324 336.511 154.868C336.511 160.412 340.687 164.372 346.015 164.372C351.379 164.372 355.519 160.412 355.519 154.868C355.519 149.324 351.379 145.4 346.015 145.4ZM364.513 153.572C364.513 151.772 365.665 150.44 367.465 150.44C369.445 150.44 370.381 151.772 370.381 153.536V163.832H375.853V152.6C375.853 148.676 373.837 145.472 369.337 145.472C367.501 145.472 365.305 146.3 364.333 147.992V145.94H359.041V163.832H364.513V153.572ZM394.782 163.832V137.768H389.31V163.832H394.782ZM398.355 158.9C398.355 161.744 400.623 164.336 404.547 164.336C406.923 164.336 408.651 163.328 409.587 161.816C409.587 163.04 409.731 163.688 409.767 163.832H414.699C414.663 163.652 414.483 162.464 414.483 161.06V152.312C414.483 148.64 412.359 145.4 406.563 145.4C401.307 145.4 398.931 148.784 398.715 151.34L403.467 152.312C403.575 150.98 404.619 149.684 406.527 149.684C408.255 149.684 409.155 150.584 409.155 151.628C409.155 152.24 408.831 152.708 407.859 152.852L403.647 153.5C400.695 153.932 398.355 155.732 398.355 158.9ZM405.879 160.376C404.367 160.376 403.755 159.476 403.755 158.54C403.755 157.28 404.619 156.74 405.771 156.56L409.155 156.02V156.812C409.155 159.584 407.499 160.376 405.879 160.376ZM440.583 163.832H446.847L441.663 153.5C444.795 152.384 446.703 149.756 446.703 146.3C446.703 141.764 443.463 138.308 438.423 138.308H428.307V163.832H433.995V154.328H436.011L440.583 163.832ZM433.995 149.432V143.24H437.343C439.683 143.24 440.943 144.428 440.943 146.336C440.943 148.136 439.683 149.432 437.343 149.432H433.995ZM454.306 152.744C454.414 151.412 455.566 149.72 457.87 149.72C460.462 149.72 461.398 151.376 461.47 152.744H454.306ZM461.866 157.388C461.362 158.792 460.246 159.728 458.266 159.728C456.142 159.728 454.306 158.288 454.198 156.272H466.654C466.69 156.164 466.762 155.336 466.762 154.58C466.762 148.82 463.342 145.4 457.798 145.4C453.154 145.4 448.87 149.072 448.87 154.832C448.87 160.844 453.262 164.372 458.194 164.372C462.73 164.372 465.574 161.78 466.438 158.684L461.866 157.388ZM468.799 158.756C468.943 160.736 470.743 164.372 476.359 164.372C481.147 164.372 483.487 161.384 483.487 158.324C483.487 155.696 481.687 153.464 477.979 152.708L475.603 152.24C474.811 152.096 474.199 151.664 474.199 150.908C474.199 149.972 475.099 149.36 476.143 149.36C477.799 149.36 478.555 150.368 478.699 151.556L483.235 150.728C483.055 148.64 481.255 145.4 476.071 145.4C472.075 145.4 469.195 148.064 469.195 151.34C469.195 153.86 470.707 156.02 474.523 156.848L476.575 157.316C477.907 157.604 478.339 158.144 478.339 158.792C478.339 159.584 477.655 160.34 476.251 160.34C474.379 160.34 473.515 159.152 473.443 157.928L468.799 158.756ZM492.517 170.672V162.428C493.345 163.436 495.073 164.228 497.377 164.228C502.381 164.228 505.909 160.304 505.909 154.832C505.909 149.468 502.777 145.508 497.593 145.508C495.037 145.508 493.093 146.624 492.337 147.776V145.94H487.045V170.672H492.517ZM500.545 154.868C500.545 157.856 498.637 159.332 496.477 159.332C494.353 159.332 492.445 157.82 492.445 154.868C492.445 151.88 494.353 150.44 496.477 150.44C498.637 150.44 500.545 151.88 500.545 154.868ZM517.647 159.332C515.595 159.332 513.615 157.856 513.615 154.868C513.615 151.844 515.595 150.44 517.647 150.44C519.735 150.44 521.679 151.844 521.679 154.868C521.679 157.892 519.735 159.332 517.647 159.332ZM517.647 145.4C512.319 145.4 508.143 149.324 508.143 154.868C508.143 160.412 512.319 164.372 517.647 164.372C523.011 164.372 527.151 160.412 527.151 154.868C527.151 149.324 523.011 145.4 517.647 145.4ZM536.146 153.572C536.146 151.772 537.298 150.44 539.098 150.44C541.078 150.44 542.014 151.772 542.014 153.536V163.832H547.486V152.6C547.486 148.676 545.47 145.472 540.97 145.472C539.134 145.472 536.938 146.3 535.966 147.992V145.94H530.674V163.832H536.146V153.572ZM550.608 158.756C550.752 160.736 552.552 164.372 558.168 164.372C562.956 164.372 565.296 161.384 565.296 158.324C565.296 155.696 563.496 153.464 559.788 152.708L557.412 152.24C556.62 152.096 556.008 151.664 556.008 150.908C556.008 149.972 556.908 149.36 557.952 149.36C559.608 149.36 560.364 150.368 560.508 151.556L565.044 150.728C564.864 148.64 563.064 145.4 557.88 145.4C553.884 145.4 551.004 148.064 551.004 151.34C551.004 153.86 552.516 156.02 556.332 156.848L558.384 157.316C559.716 157.604 560.148 158.144 560.148 158.792C560.148 159.584 559.464 160.34 558.06 160.34C556.188 160.34 555.324 159.152 555.252 157.928L550.608 158.756ZM567.738 158.9C567.738 161.744 570.006 164.336 573.93 164.336C576.306 164.336 578.034 163.328 578.97 161.816C578.97 163.04 579.114 163.688 579.15 163.832H584.082C584.046 163.652 583.866 162.464 583.866 161.06V152.312C583.866 148.64 581.742 145.4 575.946 145.4C570.69 145.4 568.314 148.784 568.098 151.34L572.85 152.312C572.958 150.98 574.002 149.684 575.91 149.684C577.638 149.684 578.538 150.584 578.538 151.628C578.538 152.24 578.214 152.708 577.242 152.852L573.03 153.5C570.078 153.932 567.738 155.732 567.738 158.9ZM575.262 160.376C573.75 160.376 573.138 159.476 573.138 158.54C573.138 157.28 574.002 156.74 575.154 156.56L578.538 156.02V156.812C578.538 159.584 576.882 160.376 575.262 160.376ZM593.763 163.832V161.816C594.591 163.184 596.427 164.228 598.803 164.228C603.807 164.228 607.335 160.304 607.335 154.832C607.335 149.468 604.203 145.508 599.019 145.508C596.571 145.508 594.591 146.516 593.835 147.632V137.768H588.471V163.832H593.763ZM601.863 154.868C601.863 157.856 599.955 159.332 597.831 159.332C595.707 159.332 593.763 157.82 593.763 154.868C593.763 151.844 595.707 150.44 597.831 150.44C599.955 150.44 601.863 151.844 601.863 154.868ZM616.337 163.832V145.94H610.865V163.832H616.337ZM610.397 140.468C610.397 142.232 611.837 143.672 613.565 143.672C615.365 143.672 616.805 142.232 616.805 140.468C616.805 138.704 615.365 137.264 613.565 137.264C611.837 137.264 610.397 138.704 610.397 140.468ZM626.603 163.832V137.768H621.131V163.832H626.603ZM636.904 163.832V145.94H631.432V163.832H636.904ZM630.964 140.468C630.964 142.232 632.404 143.672 634.132 143.672C635.932 143.672 637.372 142.232 637.372 140.468C637.372 138.704 635.932 137.264 634.132 137.264C632.404 137.264 630.964 138.704 630.964 140.468ZM648.249 140.72H643.353V143.024C643.353 144.68 642.453 145.94 640.581 145.94H639.681V150.728H642.849V158.396C642.849 161.96 645.117 164.156 648.825 164.156C650.553 164.156 651.453 163.76 651.669 163.652V159.116C651.345 159.188 650.805 159.296 650.229 159.296C649.041 159.296 648.249 158.9 648.249 157.424V150.728H651.741V145.94H648.249V140.72ZM654.68 158.9C654.68 161.744 656.948 164.336 660.872 164.336C663.248 164.336 664.976 163.328 665.912 161.816C665.912 163.04 666.056 163.688 666.092 163.832H671.024C670.988 163.652 670.808 162.464 670.808 161.06V152.312C670.808 148.64 668.684 145.4 662.888 145.4C657.632 145.4 655.256 148.784 655.04 151.34L659.792 152.312C659.9 150.98 660.944 149.684 662.852 149.684C664.58 149.684 665.48 150.584 665.48 151.628C665.48 152.24 665.156 152.708 664.184 152.852L659.972 153.5C657.02 153.932 654.68 155.732 654.68 158.9ZM662.204 160.376C660.692 160.376 660.08 159.476 660.08 158.54C660.08 157.28 660.944 156.74 662.096 156.56L665.48 156.02V156.812C665.48 159.584 663.824 160.376 662.204 160.376ZM661.376 143.816H665.84L662.492 138.38H656.264L661.376 143.816Z" fill="white"/>
</svg>
