<svg width="75" height="89" viewBox="0 0 75 89" fill="none" xmlns="http://www.w3.org/2000/svg">
<path d="M6.65713 59.8025C18.212 82.6401 41.305 94.2089 58.2368 85.6421C68.2982 80.5515 73.4768 71.8049 73.9579 58.8794C74.1928 56.5303 73.0183 55.1991 71.8437 55.1208C69.0247 54.9328 68.32 57.7048 67.3795 59.8191C66.021 62.8729 63.3402 66.2795 59.1207 68.4144C48.2185 73.9305 32.9245 65.6421 24.9606 49.9018C16.9967 34.1615 19.3785 16.9298 30.2807 11.4138C34.0999 9.48141 38.3319 9.31602 42.6578 10.5377C45.9267 11.4609 48.5798 13.8196 51.7085 15.1423C52.8546 15.6269 53.8934 15.7877 54.4552 15.2259C55.7707 13.9104 53.5939 11.0758 52.341 9.8229C40.9004 0.528292 27.545 -2.70278 16.3928 2.93979C-0.538956 11.5066 -4.89777 36.9649 6.65713 59.8025Z" fill="white"/>
<path d="M31.4738 23.6985L25.5135 39.8263C24.9351 41.3915 24.8862 43.108 25.5188 44.6521C26.2063 46.3302 27.2834 48.6653 28.7321 50.9328C30.1402 53.1368 31.7079 55.1493 32.8862 56.5712C33.739 57.6003 35.3342 57.3534 35.8922 56.139L38.0873 51.3615C38.4704 50.5276 39.3041 49.9932 40.2219 49.9932H55.9748C57.1747 49.9932 58.2431 49.2336 58.6373 48.1003L60.652 42.308C61.183 40.7814 60.0495 39.1871 58.4333 39.1871H45.4623C43.8695 39.1871 42.7384 37.6355 43.2258 36.1191L43.8299 34.2398C44.1422 33.2683 45.0459 32.6095 46.0663 32.6095H68.5324C69.5284 32.6095 70.4161 31.9814 70.7476 31.0422L73.3179 23.7599C73.8573 22.2315 72.7234 20.6289 71.1026 20.6289H35.8807C33.9141 20.6289 32.1555 21.8538 31.4738 23.6985Z" fill="white"/>
</svg>
