<svg width="175" height="352" viewBox="0 0 175 352" fill="none" xmlns="http://www.w3.org/2000/svg">
<path d="M59.9518 62.9165H58.7682L58.6758 62.2507C58.3891 62.6668 57.7696 63.0552 56.8357 63.0552C55.0141 63.0552 53.5161 61.7144 53.5161 59.6432C53.5161 57.5812 55.0788 56.2219 56.9281 56.2219C58.8052 56.2219 59.6744 57.3315 59.961 58.2469L58.5555 58.737C58.4538 58.3301 58.0192 57.5904 56.9281 57.5904C56.0404 57.5904 54.9956 58.1822 54.9956 59.6432C54.9956 61.0117 55.9017 61.7237 56.9651 61.7237C58.047 61.7237 58.5001 61.0209 58.5833 60.6511H56.6137V59.412H59.9518V62.9165ZM62.4954 62.9165H61.0899V58.3209H62.4954V62.9165ZM60.9697 56.9154C60.9697 56.4623 61.3396 56.0924 61.7834 56.0924C62.2458 56.0924 62.6156 56.4623 62.6156 56.9154C62.6156 57.3685 62.2458 57.7384 61.7834 57.7384C61.3396 57.7384 60.9697 57.3685 60.9697 56.9154ZM65.8349 61.7607C66.3712 61.7607 66.8706 61.3908 66.8706 60.6141C66.8706 59.8374 66.3712 59.4767 65.8349 59.4767C65.3079 59.4767 64.7993 59.8374 64.7993 60.6141C64.7993 61.3816 65.3079 61.7607 65.8349 61.7607ZM65.8349 58.1822C67.2127 58.1822 68.2761 59.1901 68.2761 60.6141C68.2761 62.0381 67.2127 63.0552 65.8349 63.0552C64.4664 63.0552 63.3938 62.0381 63.3938 60.6141C63.3938 59.1901 64.4664 58.1822 65.8349 58.1822ZM71.2983 59.4767C70.7157 59.4767 70.2442 59.8836 70.2442 60.6233C70.2442 61.3538 70.7342 61.7607 71.3168 61.7607C71.8623 61.7607 72.1675 61.4185 72.2692 61.0764L73.5082 61.4555C73.3048 62.26 72.5466 63.0552 71.3168 63.0552C69.9483 63.0552 68.8479 62.0473 68.8479 60.6233C68.8479 59.1901 69.9205 58.1822 71.2705 58.1822C72.5373 58.1822 73.2771 58.9589 73.4805 59.7819L72.223 60.161C72.1212 59.8096 71.8438 59.4767 71.2983 59.4767ZM74.0776 61.6497C74.0776 60.836 74.6786 60.3737 75.4368 60.2627L76.5187 60.0963C76.7684 60.0593 76.8516 59.9391 76.8516 59.7819C76.8516 59.5137 76.6204 59.2826 76.1766 59.2826C75.6865 59.2826 75.4183 59.6154 75.3906 59.9576L74.17 59.7079C74.2255 59.0514 74.8358 58.1822 76.1858 58.1822C77.6745 58.1822 78.2201 59.0144 78.2201 59.9576V62.2045C78.2201 62.5651 78.2663 62.8703 78.2756 62.9165H77.0088C76.9995 62.8795 76.9625 62.7131 76.9625 62.3987C76.7221 62.7871 76.2783 63.046 75.668 63.046C74.6601 63.046 74.0776 62.3802 74.0776 61.6497ZM76.0101 62.0288C76.4262 62.0288 76.8516 61.8254 76.8516 61.1134V60.91L75.9824 61.0487C75.6865 61.0949 75.4646 61.2336 75.4646 61.5572C75.4646 61.7977 75.6218 62.0288 76.0101 62.0288ZM83.7958 59.4767C83.2132 59.4767 82.7416 59.8836 82.7416 60.6233C82.7416 61.3538 83.2317 61.7607 83.8143 61.7607C84.3598 61.7607 84.665 61.4185 84.7667 61.0764L86.0057 61.4555C85.8023 62.26 85.0441 63.0552 83.8143 63.0552C82.4457 63.0552 81.3454 62.0473 81.3454 60.6233C81.3454 59.1901 82.418 58.1822 83.768 58.1822C85.0348 58.1822 85.7746 58.9589 85.978 59.7819L84.7204 60.161C84.6187 59.8096 84.3413 59.4767 83.7958 59.4767ZM88.9246 61.7607C89.4609 61.7607 89.9602 61.3908 89.9602 60.6141C89.9602 59.8374 89.4609 59.4767 88.9246 59.4767C88.3975 59.4767 87.8889 59.8374 87.8889 60.6141C87.8889 61.3816 88.3975 61.7607 88.9246 61.7607ZM88.9246 58.1822C90.3023 58.1822 91.3657 59.1901 91.3657 60.6141C91.3657 62.0381 90.3023 63.0552 88.9246 63.0552C87.5561 63.0552 86.4834 62.0381 86.4834 60.6141C86.4834 59.1901 87.5561 58.1822 88.9246 58.1822ZM93.6759 60.2812V62.9165H92.2704V58.3209H93.6297V58.848C93.8794 58.4134 94.4434 58.2007 94.915 58.2007C96.0708 58.2007 96.5886 59.0236 96.5886 60.0315V62.9165H95.1831V60.2719C95.1831 59.8189 94.9427 59.4767 94.4342 59.4767C93.9718 59.4767 93.6759 59.8189 93.6759 60.2812ZM101.451 62.9165H100.045V56.2219H101.451V62.9165ZM102.368 61.6497C102.368 60.836 102.97 60.3737 103.728 60.2627L104.81 60.0963C105.059 60.0593 105.142 59.9391 105.142 59.7819C105.142 59.5137 104.911 59.2826 104.467 59.2826C103.977 59.2826 103.709 59.6154 103.681 59.9576L102.461 59.7079C102.516 59.0514 103.127 58.1822 104.477 58.1822C105.965 58.1822 106.511 59.0144 106.511 59.9576V62.2045C106.511 62.5651 106.557 62.8703 106.566 62.9165H105.3C105.29 62.8795 105.253 62.7131 105.253 62.3987C105.013 62.7871 104.569 63.046 103.959 63.046C102.951 63.046 102.368 62.3802 102.368 61.6497ZM104.301 62.0288C104.717 62.0288 105.142 61.8254 105.142 61.1134V60.91L104.273 61.0487C103.977 61.0949 103.755 61.2336 103.755 61.5572C103.755 61.7977 103.913 62.0288 104.301 62.0288ZM113.215 62.9165L112.04 60.4754H111.523V62.9165H110.062V56.3606H112.66C113.955 56.3606 114.787 57.2483 114.787 58.4134C114.787 59.301 114.297 59.9761 113.492 60.2627L114.824 62.9165H113.215ZM111.523 59.2178H112.383C112.984 59.2178 113.307 58.8849 113.307 58.4226C113.307 57.9325 112.984 57.6274 112.383 57.6274H111.523V59.2178ZM116.739 60.0685H118.58C118.561 59.7171 118.321 59.2918 117.655 59.2918C117.063 59.2918 116.767 59.7264 116.739 60.0685ZM118.681 61.2613L119.856 61.5942C119.634 62.3894 118.903 63.0552 117.738 63.0552C116.471 63.0552 115.343 62.149 115.343 60.6048C115.343 59.1254 116.444 58.1822 117.636 58.1822C119.06 58.1822 119.939 59.0606 119.939 60.5401C119.939 60.7343 119.92 60.947 119.911 60.9747H116.712C116.739 61.4925 117.211 61.8624 117.757 61.8624C118.265 61.8624 118.552 61.622 118.681 61.2613ZM120.462 61.6127L121.655 61.4C121.673 61.7144 121.895 62.0196 122.376 62.0196C122.737 62.0196 122.913 61.8254 122.913 61.622C122.913 61.4555 122.802 61.3168 122.459 61.2429L121.932 61.1226C120.952 60.91 120.564 60.3552 120.564 59.7079C120.564 58.8665 121.304 58.1822 122.33 58.1822C123.662 58.1822 124.124 59.0144 124.17 59.5507L123.005 59.7634C122.968 59.4582 122.774 59.1993 122.348 59.1993C122.08 59.1993 121.849 59.3565 121.849 59.5969C121.849 59.7911 122.006 59.9021 122.21 59.9391L122.82 60.0593C123.772 60.2535 124.235 60.8268 124.235 61.5018C124.235 62.2877 123.634 63.0552 122.404 63.0552C120.961 63.0552 120.499 62.1213 120.462 61.6127ZM126.554 64.6734H125.149V58.3209H126.508V58.7925C126.702 58.4966 127.201 58.2099 127.858 58.2099C129.189 58.2099 129.994 59.2271 129.994 60.6048C129.994 62.0103 129.088 63.0182 127.802 63.0182C127.211 63.0182 126.767 62.8148 126.554 62.5559V64.6734ZM128.616 60.6141C128.616 59.8466 128.126 59.4767 127.571 59.4767C127.026 59.4767 126.536 59.8466 126.536 60.6141C126.536 61.3723 127.026 61.7607 127.571 61.7607C128.126 61.7607 128.616 61.3816 128.616 60.6141ZM133.009 61.7607C133.545 61.7607 134.045 61.3908 134.045 60.6141C134.045 59.8374 133.545 59.4767 133.009 59.4767C132.482 59.4767 131.973 59.8374 131.973 60.6141C131.973 61.3816 132.482 61.7607 133.009 61.7607ZM133.009 58.1822C134.387 58.1822 135.45 59.1901 135.45 60.6141C135.45 62.0381 134.387 63.0552 133.009 63.0552C131.64 63.0552 130.568 62.0381 130.568 60.6141C130.568 59.1901 131.64 58.1822 133.009 58.1822ZM137.76 60.2812V62.9165H136.355V58.3209H137.714V58.848C137.964 58.4134 138.528 58.2007 138.999 58.2007C140.155 58.2007 140.673 59.0236 140.673 60.0315V62.9165H139.267V60.2719C139.267 59.8189 139.027 59.4767 138.518 59.4767C138.056 59.4767 137.76 59.8189 137.76 60.2812ZM141.475 61.6127L142.668 61.4C142.686 61.7144 142.908 62.0196 143.389 62.0196C143.75 62.0196 143.925 61.8254 143.925 61.622C143.925 61.4555 143.814 61.3168 143.472 61.2429L142.945 61.1226C141.965 60.91 141.577 60.3552 141.577 59.7079C141.577 58.8665 142.316 58.1822 143.343 58.1822C144.674 58.1822 145.137 59.0144 145.183 59.5507L144.018 59.7634C143.981 59.4582 143.787 59.1993 143.361 59.1993C143.093 59.1993 142.862 59.3565 142.862 59.5969C142.862 59.7911 143.019 59.9021 143.223 59.9391L143.833 60.0593C144.785 60.2535 145.248 60.8268 145.248 61.5018C145.248 62.2877 144.647 63.0552 143.417 63.0552C141.974 63.0552 141.512 62.1213 141.475 61.6127ZM145.875 61.6497C145.875 60.836 146.476 60.3737 147.234 60.2627L148.316 60.0963C148.566 60.0593 148.649 59.9391 148.649 59.7819C148.649 59.5137 148.418 59.2826 147.974 59.2826C147.484 59.2826 147.216 59.6154 147.188 59.9576L145.967 59.7079C146.023 59.0514 146.633 58.1822 147.983 58.1822C149.472 58.1822 150.017 59.0144 150.017 59.9576V62.2045C150.017 62.5651 150.064 62.8703 150.073 62.9165H148.806C148.797 62.8795 148.76 62.7131 148.76 62.3987C148.519 62.7871 148.076 63.046 147.465 63.046C146.457 63.046 145.875 62.3802 145.875 61.6497ZM147.807 62.0288C148.224 62.0288 148.649 61.8254 148.649 61.1134V60.91L147.78 61.0487C147.484 61.0949 147.262 61.2336 147.262 61.5572C147.262 61.7977 147.419 62.0288 147.807 62.0288ZM152.559 62.9165H151.2V56.2219H152.578V58.7555C152.772 58.4688 153.281 58.2099 153.909 58.2099C155.241 58.2099 156.045 59.2271 156.045 60.6048C156.045 62.0103 155.139 63.0182 153.854 63.0182C153.244 63.0182 152.772 62.7501 152.559 62.3987V62.9165ZM154.64 60.6141C154.64 59.8374 154.15 59.4767 153.604 59.4767C153.059 59.4767 152.559 59.8374 152.559 60.6141C152.559 61.3723 153.059 61.7607 153.604 61.7607C154.15 61.7607 154.64 61.3816 154.64 60.6141ZM158.358 62.9165H156.952V58.3209H158.358V62.9165ZM156.832 56.9154C156.832 56.4623 157.202 56.0924 157.646 56.0924C158.108 56.0924 158.478 56.4623 158.478 56.9154C158.478 57.3685 158.108 57.7384 157.646 57.7384C157.202 57.7384 156.832 57.3685 156.832 56.9154ZM160.994 62.9165H159.589V56.2219H160.994V62.9165ZM163.64 62.9165H162.235V58.3209H163.64V62.9165ZM162.114 56.9154C162.114 56.4623 162.484 56.0924 162.928 56.0924C163.39 56.0924 163.76 56.4623 163.76 56.9154C163.76 57.3685 163.39 57.7384 162.928 57.7384C162.484 57.7384 162.114 57.3685 162.114 56.9154ZM166.554 56.9801V58.3209H167.451V59.5507H166.554V61.2706C166.554 61.6497 166.758 61.7514 167.063 61.7514C167.211 61.7514 167.35 61.7237 167.433 61.7052V62.8703C167.377 62.898 167.146 62.9997 166.702 62.9997C165.75 62.9997 165.167 62.4357 165.167 61.5203V59.5507H164.354V58.3209H164.585C165.066 58.3209 165.297 57.9973 165.297 57.5719V56.9801H166.554ZM168.206 61.6497C168.206 60.836 168.807 60.3737 169.565 60.2627L170.647 60.0963C170.897 60.0593 170.98 59.9391 170.98 59.7819C170.98 59.5137 170.749 59.2826 170.305 59.2826C169.815 59.2826 169.547 59.6154 169.519 59.9576L168.298 59.7079C168.354 59.0514 168.964 58.1822 170.314 58.1822C171.803 58.1822 172.349 59.0144 172.349 59.9576V62.2045C172.349 62.5651 172.395 62.8703 172.404 62.9165H171.137C171.128 62.8795 171.091 62.7131 171.091 62.3987C170.851 62.7871 170.407 63.046 169.796 63.046C168.789 63.046 168.206 62.3802 168.206 61.6497ZM170.139 62.0288C170.555 62.0288 170.98 61.8254 170.98 61.1134V60.91L170.111 61.0487C169.815 61.0949 169.593 61.2336 169.593 61.5572C169.593 61.7977 169.75 62.0288 170.139 62.0288ZM169.926 57.7753L168.613 56.3791H170.213L171.072 57.7753H169.926Z" fill="white"/>
<path d="M50.9577 49.2627H54.8375C55.4231 49.2627 55.8379 48.677 55.6427 48.1158L50.6161 33.0604C50.4453 32.548 49.9329 32.182 49.3716 32.182H44.5891C44.0278 32.182 43.5398 32.548 43.3446 33.0604L38.318 48.1158C38.1228 48.677 38.562 49.2627 39.1476 49.2627H43.003C43.491 49.2627 43.9302 48.9454 44.0522 48.4574L44.5647 46.6273H49.3961L49.9085 48.4574C50.0549 48.9454 50.4697 49.2627 50.9577 49.2627ZM45.6139 42.8208L46.9804 37.8674L48.3468 42.8208H45.6139Z" fill="#FF9D9D"/>
<path d="M67.5794 33.2556V40.8199L62.5772 32.792C62.3332 32.4016 61.9183 32.182 61.4791 32.182H58.3314C57.7214 32.182 57.2577 32.67 57.2577 33.2556V48.1646C57.2577 48.7746 57.7214 49.2627 58.3314 49.2627H61.6499C62.2599 49.2627 62.748 48.7746 62.748 48.1646V40.6247L67.7258 48.6526C67.9698 49.0186 68.3846 49.2627 68.8238 49.2627H71.9715C72.5816 49.2627 73.0696 48.7746 73.0696 48.1646V33.2556C73.0696 32.67 72.5816 32.182 71.9715 32.182H68.653C68.043 32.182 67.5794 32.67 67.5794 33.2556Z" fill="#FF9D9D"/>
<path d="M87.1257 32.182H75.828C75.218 32.182 74.73 32.67 74.73 33.2556V36.1105C74.73 36.7205 75.218 37.2086 75.828 37.2086H78.7318V48.1646C78.7318 48.7746 79.2198 49.2627 79.8054 49.2627H83.1239C83.734 49.2627 84.222 48.7746 84.222 48.1646V37.2086H87.1257C87.7113 37.2086 88.1993 36.7205 88.1993 36.1105V33.2556C88.1993 32.67 87.7113 32.182 87.1257 32.182Z" fill="#FF9D9D"/>
<path d="M100.546 49.2627H104.426C105.011 49.2627 105.426 48.677 105.231 48.1158L100.204 33.0604C100.034 32.548 99.5212 32.182 98.96 32.182H94.1774C93.6162 32.182 93.1282 32.548 92.9329 33.0604L87.9063 48.1158C87.7111 48.677 88.1504 49.2627 88.736 49.2627H92.5913C93.0793 49.2627 93.5186 48.9454 93.6406 48.4574L94.153 46.6273H98.9844L99.4968 48.4574C99.6432 48.9454 100.058 49.2627 100.546 49.2627ZM95.2022 42.8208L96.5687 37.8674L97.9351 42.8208H95.2022Z" fill="#FF9D9D"/>
<path d="M114.501 44.236C112.452 44.236 110.963 42.772 110.963 40.7223C110.963 38.6726 112.452 37.2086 114.501 37.2086C115.429 37.2086 116.234 37.5014 116.844 38.0382C117.161 38.3066 117.576 38.3554 117.917 38.1358L121.065 36.0373C121.504 35.7689 121.602 35.1345 121.236 34.7441C119.601 32.9628 117.234 31.8647 114.501 31.8647C109.377 31.8647 105.497 35.6713 105.497 40.7223C105.497 45.7489 109.377 49.5555 114.501 49.5555C117.234 49.5555 119.601 48.4818 121.236 46.7005C121.602 46.3101 121.504 45.6757 121.065 45.3829L117.917 43.3088C117.576 43.0892 117.161 43.138 116.844 43.4064C116.234 43.9432 115.429 44.236 114.501 44.236Z" fill="#FF9D9D"/>
<path d="M135.146 49.2627H139.026C139.611 49.2627 140.026 48.677 139.831 48.1158L134.804 33.0604C134.633 32.548 134.121 32.182 133.56 32.182H128.777C128.216 32.182 127.728 32.548 127.533 33.0604L122.506 48.1158C122.311 48.677 122.75 49.2627 123.336 49.2627H127.191C127.679 49.2627 128.118 48.9454 128.24 48.4574L128.753 46.6273H133.584L134.097 48.4574C134.243 48.9454 134.658 49.2627 135.146 49.2627ZM129.802 42.8208L131.169 37.8674L132.535 42.8208H129.802Z" fill="#FF9D9D"/>
<path d="M148.693 32.182H142.544C141.934 32.182 141.446 32.67 141.446 33.2556V48.1646C141.446 48.7746 141.934 49.2627 142.544 49.2627H145.863C146.448 49.2627 146.936 48.7746 146.936 48.1646V44.6265H148.693C152.988 44.6265 155.891 42.7476 155.891 38.5018C155.891 34.5489 153.402 32.182 148.693 32.182ZM148.693 40.0391H146.936V36.989H148.693C149.815 36.989 150.352 37.6234 150.352 38.5018C150.352 39.4047 149.815 40.0391 148.693 40.0391Z" fill="#FF9D9D"/>
<path d="M165.996 31.8891C160.872 31.8891 156.992 35.6957 156.992 40.7223C156.992 45.7733 160.872 49.5799 165.996 49.5799C171.12 49.5799 175 45.7733 175 40.7223C175 35.6957 171.12 31.8891 165.996 31.8891ZM165.996 44.236C163.971 44.236 162.482 42.7964 162.482 40.7223C162.482 38.6726 163.971 37.2086 165.996 37.2086C168.021 37.2086 169.51 38.6726 169.51 40.7223C169.51 42.7964 168.021 44.236 165.996 44.236Z" fill="#FF9D9D"/>
<g clip-path="url(#clip0_2760_2390)">
<path d="M3.53288 53.6112C9.84988 66.0964 22.4747 72.421 31.7312 67.7376C37.2317 64.9546 40.0628 60.1729 40.3258 53.1066C40.4543 51.8223 39.8121 51.0946 39.17 51.0517C37.6289 50.949 37.2436 52.4644 36.7295 53.6203C35.9868 55.2898 34.5212 57.1522 32.2144 58.3193C26.2543 61.3349 17.8931 56.8037 13.5393 48.1985C9.18543 39.5934 10.4876 30.173 16.4477 27.1574C18.5357 26.101 20.8493 26.0105 23.2142 26.6784C25.0013 27.1831 26.4518 28.4726 28.1622 29.1958C28.7888 29.4607 29.3567 29.5486 29.6638 29.2414C30.383 28.5223 29.1929 26.9726 28.508 26.2876C22.2535 21.2063 14.9522 19.4399 8.85532 22.5247C-0.401187 27.2081 -2.78413 41.126 3.53288 53.6112Z" fill="#E95252"/>
<path d="M17.0999 33.8735L13.8415 42.6904C13.5253 43.5461 13.4985 44.4845 13.8444 45.3286C14.2202 46.2461 14.8091 47.5226 15.6011 48.7623C16.3709 49.9672 17.2279 51.0674 17.8721 51.8448C18.3383 52.4074 19.2104 52.2724 19.5155 51.6085L20.7155 48.9967C20.925 48.5408 21.3808 48.2486 21.8825 48.2486H30.4945C31.1505 48.2486 31.7346 47.8333 31.9501 47.2138L33.0515 44.0472C33.3418 43.2126 32.7222 42.341 31.8386 42.341H24.7474C23.8766 42.341 23.2583 41.4927 23.5247 40.6637L23.855 39.6363C24.0257 39.1052 24.5197 38.7451 25.0776 38.7451H37.3597C37.9042 38.7451 38.3895 38.4017 38.5707 37.8882L39.9759 33.907C40.2708 33.0714 39.6509 32.1953 38.7648 32.1953H19.5092C18.434 32.1953 17.4727 32.865 17.0999 33.8735Z" fill="#FF9D9D"/>
</g>
<path d="M5.91373 7L5.10002 4.97497H1.96539L1.16093 7H0.532155L3.18596 0.444095H3.8887L6.54251 7H5.91373ZM3.52808 1.02664L2.17807 4.43867H4.88735L3.52808 1.02664ZM8.04358 4.36469V7H7.48877V2.58933H8.02508V3.29208C8.2655 2.8205 8.78331 2.47837 9.45832 2.47837C10.4939 2.47837 11.021 3.2181 11.021 4.12428V7H10.4662V4.21675C10.4662 3.52324 10.1241 2.97769 9.27339 2.97769C8.51516 2.97769 8.04358 3.61571 8.04358 4.36469ZM13.307 1.19308V2.58933H14.4536V3.08865H13.307V5.7517C13.307 6.288 13.5567 6.54691 14.056 6.54691C14.2132 6.54691 14.3704 6.50993 14.4536 6.47294V6.96301C14.3797 7 14.1762 7.04623 13.9081 7.04623C13.1961 7.04623 12.7522 6.61164 12.7522 5.80718V3.08865H11.8183V2.58933H12.1512C12.5858 2.58933 12.7707 2.39515 12.7707 1.94206V1.19308H13.307ZM17.3305 7.12021C16.1007 7.12021 15.139 6.17704 15.139 4.79929C15.139 3.41228 16.0914 2.47837 17.3305 2.47837C18.5603 2.47837 19.522 3.41228 19.522 4.79929C19.522 6.17704 18.5603 7.12021 17.3305 7.12021ZM15.7031 4.79929C15.7031 5.94588 16.4613 6.62089 17.3305 6.62089C18.1997 6.62089 18.9579 5.94588 18.9579 4.79929C18.9579 3.64345 18.1997 2.97769 17.3305 2.97769C16.4613 2.97769 15.7031 3.64345 15.7031 4.79929ZM21.2544 4.36469V7H20.6996V2.58933H21.2359V3.29208C21.4763 2.8205 21.9942 2.47837 22.6692 2.47837C23.7048 2.47837 24.2319 3.2181 24.2319 4.12428V7H23.6771V4.21675C23.6771 3.52324 23.3349 2.97769 22.4842 2.97769C21.726 2.97769 21.2544 3.61571 21.2544 4.36469ZM26.2209 7H25.6661V2.58933H26.2209V7ZM25.4812 0.758483C25.4812 0.490329 25.6846 0.296148 25.9435 0.296148C26.2024 0.296148 26.4058 0.490329 26.4058 0.758483C26.4058 1.02664 26.2024 1.22082 25.9435 1.22082C25.6846 1.22082 25.4812 1.02664 25.4812 0.758483ZM28.2527 4.36469V7H27.6979V2.58933H28.2342V3.29208C28.4746 2.8205 28.9924 2.47837 29.6674 2.47837C30.703 2.47837 31.2301 3.2181 31.2301 4.12428V7H30.6753V4.21675C30.6753 3.52324 30.3332 2.97769 29.4825 2.97769C28.7242 2.97769 28.2527 3.61571 28.2527 4.36469ZM34.5507 7.12021C33.3209 7.12021 32.3592 6.17704 32.3592 4.79929C32.3592 3.41228 33.3116 2.47837 34.5507 2.47837C35.7805 2.47837 36.7421 3.41228 36.7421 4.79929C36.7421 6.17704 35.7805 7.12021 34.5507 7.12021ZM32.9232 4.79929C32.9232 5.94588 33.6815 6.62089 34.5507 6.62089C35.4199 6.62089 36.1781 5.94588 36.1781 4.79929C36.1781 3.64345 35.4199 2.97769 34.5507 2.97769C33.6815 2.97769 32.9232 3.64345 32.9232 4.79929ZM44.4183 7H40.0816C40.1 5.98286 40.6364 5.24313 41.7182 4.51264L42.6891 3.85612C43.3179 3.43078 43.7525 2.90372 43.7525 2.25645C43.7525 1.48897 43.2254 0.832456 42.273 0.832456C41.3114 0.832456 40.6826 1.47973 40.6826 2.44138C40.6826 2.54309 40.6826 2.64481 40.7011 2.75577L40.1278 2.67255C40.1185 2.58933 40.1093 2.45063 40.1093 2.37665C40.1093 1.22082 41.0247 0.323888 42.273 0.323888C43.5953 0.323888 44.335 1.20232 44.335 2.2472C44.335 3.69893 42.8278 4.38319 41.6905 5.15066C41.2559 5.44656 40.8675 5.8719 40.7751 6.46369H44.4183V7ZM46.0191 3.72667C46.0191 5.37258 46.5924 6.61164 47.9239 6.61164C49.2462 6.61164 49.8287 5.36334 49.8287 3.72667C49.8287 2.09001 49.2462 0.832456 47.9239 0.832456C46.5924 0.832456 46.0191 2.08076 46.0191 3.72667ZM45.455 3.72667C45.455 2.08076 46.0653 0.323888 47.9239 0.323888C49.7732 0.323888 50.3928 2.08076 50.3928 3.72667C50.3928 5.37258 49.7732 7.12021 47.9239 7.12021C46.0653 7.12021 45.455 5.37258 45.455 3.72667ZM55.778 7H51.4413C51.4598 5.98286 51.9961 5.24313 53.0779 4.51264L54.0488 3.85612C54.6776 3.43078 55.1122 2.90372 55.1122 2.25645C55.1122 1.48897 54.5851 0.832456 53.6327 0.832456C52.6711 0.832456 52.0423 1.47973 52.0423 2.44138C52.0423 2.54309 52.0423 2.64481 52.0608 2.75577L51.4875 2.67255C51.4782 2.58933 51.469 2.45063 51.469 2.37665C51.469 1.22082 52.3844 0.323888 53.6327 0.323888C54.955 0.323888 55.6947 1.20232 55.6947 2.2472C55.6947 3.69893 54.1875 4.38319 53.0502 5.15066C52.6156 5.44656 52.2272 5.8719 52.1348 6.46369H55.778V7ZM58.7381 0.444095V7H58.174V1.50746C57.8874 1.89583 57.1661 2.26569 56.5373 2.27494V1.79411C57.4158 1.72014 58.0538 1.1376 58.211 0.444095H58.7381ZM66.658 7H62.7929V0.444095H66.658V0.980403H63.3847V3.44927H66.3713V3.98558H63.3847V6.46369H66.658V7ZM68.0316 4.79004C68.0316 5.82567 68.6234 6.62089 69.5573 6.62089C70.4727 6.62089 71.0552 5.82567 71.0552 4.79004C71.0552 3.74516 70.4727 2.96844 69.5665 2.96844C68.6418 2.96844 68.0316 3.72667 68.0316 4.79004ZM71.0552 6.3065V6.13081C70.8611 6.5839 70.371 7.12021 69.511 7.12021C68.272 7.12021 67.4768 6.10307 67.4768 4.79004C67.4768 3.4955 68.2905 2.46912 69.511 2.46912C70.4542 2.46912 70.8888 3.04242 71.046 3.42153V0.323888H71.6008V6.15855C71.6008 6.63013 71.6378 6.95377 71.647 7H71.1015C71.083 6.88904 71.0552 6.62089 71.0552 6.3065ZM73.6463 7H73.0915V2.58933H73.6463V7ZM72.9066 0.758483C72.9066 0.490329 73.11 0.296148 73.3689 0.296148C73.6278 0.296148 73.8313 0.490329 73.8313 0.758483C73.8313 1.02664 73.6278 1.22082 73.3689 1.22082C73.11 1.22082 72.9066 1.02664 72.9066 0.758483ZM76.0202 1.19308V2.58933H77.1668V3.08865H76.0202V5.7517C76.0202 6.288 76.2699 6.54691 76.7692 6.54691C76.9264 6.54691 77.0836 6.50993 77.1668 6.47294V6.96301C77.0928 7 76.8894 7.04623 76.6212 7.04623C75.9092 7.04623 75.4654 6.61164 75.4654 5.80718V3.08865H74.5315V2.58933H74.8644C75.299 2.58933 75.4839 2.39515 75.4839 1.94206V1.19308H76.0202ZM78.7121 7H78.1573V2.58933H78.7121V7ZM77.9724 0.758483C77.9724 0.490329 78.1758 0.296148 78.4347 0.296148C78.6936 0.296148 78.8971 0.490329 78.8971 0.758483C78.8971 1.02664 78.6936 1.22082 78.4347 1.22082C78.1758 1.22082 77.9724 1.02664 77.9724 0.758483ZM82.0754 7.12021C80.8456 7.12021 79.8839 6.17704 79.8839 4.79929C79.8839 3.41228 80.8364 2.47837 82.0754 2.47837C83.3052 2.47837 84.2669 3.41228 84.2669 4.79929C84.2669 6.17704 83.3052 7.12021 82.0754 7.12021ZM80.448 4.79929C80.448 5.94588 81.2062 6.62089 82.0754 6.62089C82.9446 6.62089 83.7028 5.94588 83.7028 4.79929C83.7028 3.64345 82.9446 2.97769 82.0754 2.97769C81.2062 2.97769 80.448 3.64345 80.448 4.79929ZM85.9993 4.36469V7H85.4445V2.58933H85.9808V3.29208C86.2212 2.8205 86.7391 2.47837 87.4141 2.47837C88.4497 2.47837 88.9768 3.2181 88.9768 4.12428V7H88.422V4.21675C88.422 3.52324 88.0798 2.97769 87.2291 2.97769C86.4709 2.97769 85.9993 3.61571 85.9993 4.36469Z" fill="white"/>
<path d="M59.9518 203.917H58.7682L58.6758 203.251C58.3891 203.667 57.7696 204.055 56.8357 204.055C55.0141 204.055 53.5161 202.714 53.5161 200.643C53.5161 198.581 55.0788 197.222 56.9281 197.222C58.8052 197.222 59.6744 198.332 59.961 199.247L58.5555 199.737C58.4538 199.33 58.0192 198.59 56.9281 198.59C56.0404 198.59 54.9956 199.182 54.9956 200.643C54.9956 202.012 55.9017 202.724 56.9651 202.724C58.047 202.724 58.5001 202.021 58.5833 201.651H56.6137V200.412H59.9518V203.917ZM62.4954 203.917H61.0899V199.321H62.4954V203.917ZM60.9697 197.915C60.9697 197.462 61.3396 197.092 61.7834 197.092C62.2458 197.092 62.6156 197.462 62.6156 197.915C62.6156 198.368 62.2458 198.738 61.7834 198.738C61.3396 198.738 60.9697 198.368 60.9697 197.915ZM65.8349 202.761C66.3712 202.761 66.8706 202.391 66.8706 201.614C66.8706 200.837 66.3712 200.477 65.8349 200.477C65.3079 200.477 64.7993 200.837 64.7993 201.614C64.7993 202.382 65.3079 202.761 65.8349 202.761ZM65.8349 199.182C67.2127 199.182 68.2761 200.19 68.2761 201.614C68.2761 203.038 67.2127 204.055 65.8349 204.055C64.4664 204.055 63.3938 203.038 63.3938 201.614C63.3938 200.19 64.4664 199.182 65.8349 199.182ZM71.2983 200.477C70.7157 200.477 70.2442 200.884 70.2442 201.623C70.2442 202.354 70.7342 202.761 71.3168 202.761C71.8623 202.761 72.1675 202.419 72.2692 202.076L73.5082 202.456C73.3048 203.26 72.5466 204.055 71.3168 204.055C69.9483 204.055 68.8479 203.047 68.8479 201.623C68.8479 200.19 69.9205 199.182 71.2705 199.182C72.5373 199.182 73.2771 199.959 73.4805 200.782L72.223 201.161C72.1212 200.81 71.8438 200.477 71.2983 200.477ZM74.0776 202.65C74.0776 201.836 74.6786 201.374 75.4368 201.263L76.5187 201.096C76.7684 201.059 76.8516 200.939 76.8516 200.782C76.8516 200.514 76.6204 200.283 76.1766 200.283C75.6865 200.283 75.4183 200.615 75.3906 200.958L74.17 200.708C74.2255 200.051 74.8358 199.182 76.1858 199.182C77.6745 199.182 78.2201 200.014 78.2201 200.958V203.205C78.2201 203.565 78.2663 203.87 78.2756 203.917H77.0088C76.9995 203.88 76.9625 203.713 76.9625 203.399C76.7221 203.787 76.2783 204.046 75.668 204.046C74.6601 204.046 74.0776 203.38 74.0776 202.65ZM76.0101 203.029C76.4262 203.029 76.8516 202.825 76.8516 202.113V201.91L75.9824 202.049C75.6865 202.095 75.4646 202.234 75.4646 202.557C75.4646 202.798 75.6218 203.029 76.0101 203.029ZM83.7958 200.477C83.2132 200.477 82.7416 200.884 82.7416 201.623C82.7416 202.354 83.2317 202.761 83.8143 202.761C84.3598 202.761 84.665 202.419 84.7667 202.076L86.0057 202.456C85.8023 203.26 85.0441 204.055 83.8143 204.055C82.4457 204.055 81.3454 203.047 81.3454 201.623C81.3454 200.19 82.418 199.182 83.768 199.182C85.0348 199.182 85.7746 199.959 85.978 200.782L84.7204 201.161C84.6187 200.81 84.3413 200.477 83.7958 200.477ZM88.9246 202.761C89.4609 202.761 89.9602 202.391 89.9602 201.614C89.9602 200.837 89.4609 200.477 88.9246 200.477C88.3975 200.477 87.8889 200.837 87.8889 201.614C87.8889 202.382 88.3975 202.761 88.9246 202.761ZM88.9246 199.182C90.3023 199.182 91.3657 200.19 91.3657 201.614C91.3657 203.038 90.3023 204.055 88.9246 204.055C87.5561 204.055 86.4834 203.038 86.4834 201.614C86.4834 200.19 87.5561 199.182 88.9246 199.182ZM93.6759 201.281V203.917H92.2704V199.321H93.6297V199.848C93.8794 199.413 94.4434 199.201 94.915 199.201C96.0708 199.201 96.5886 200.024 96.5886 201.032V203.917H95.1831V201.272C95.1831 200.819 94.9427 200.477 94.4342 200.477C93.9718 200.477 93.6759 200.819 93.6759 201.281ZM101.451 203.917H100.045V197.222H101.451V203.917ZM102.368 202.65C102.368 201.836 102.97 201.374 103.728 201.263L104.81 201.096C105.059 201.059 105.142 200.939 105.142 200.782C105.142 200.514 104.911 200.283 104.467 200.283C103.977 200.283 103.709 200.615 103.681 200.958L102.461 200.708C102.516 200.051 103.127 199.182 104.477 199.182C105.965 199.182 106.511 200.014 106.511 200.958V203.205C106.511 203.565 106.557 203.87 106.566 203.917H105.3C105.29 203.88 105.253 203.713 105.253 203.399C105.013 203.787 104.569 204.046 103.959 204.046C102.951 204.046 102.368 203.38 102.368 202.65ZM104.301 203.029C104.717 203.029 105.142 202.825 105.142 202.113V201.91L104.273 202.049C103.977 202.095 103.755 202.234 103.755 202.557C103.755 202.798 103.913 203.029 104.301 203.029ZM113.215 203.917L112.04 201.475H111.523V203.917H110.062V197.361H112.66C113.955 197.361 114.787 198.248 114.787 199.413C114.787 200.301 114.297 200.976 113.492 201.263L114.824 203.917H113.215ZM111.523 200.218H112.383C112.984 200.218 113.307 199.885 113.307 199.423C113.307 198.933 112.984 198.627 112.383 198.627H111.523V200.218ZM116.739 201.069H118.58C118.561 200.717 118.321 200.292 117.655 200.292C117.063 200.292 116.767 200.726 116.739 201.069ZM118.681 202.261L119.856 202.594C119.634 203.389 118.903 204.055 117.738 204.055C116.471 204.055 115.343 203.149 115.343 201.605C115.343 200.125 116.444 199.182 117.636 199.182C119.06 199.182 119.939 200.061 119.939 201.54C119.939 201.734 119.92 201.947 119.911 201.975H116.712C116.739 202.493 117.211 202.862 117.757 202.862C118.265 202.862 118.552 202.622 118.681 202.261ZM120.462 202.613L121.655 202.4C121.673 202.714 121.895 203.02 122.376 203.02C122.737 203.02 122.913 202.825 122.913 202.622C122.913 202.456 122.802 202.317 122.459 202.243L121.932 202.123C120.952 201.91 120.564 201.355 120.564 200.708C120.564 199.866 121.304 199.182 122.33 199.182C123.662 199.182 124.124 200.014 124.17 200.551L123.005 200.763C122.968 200.458 122.774 200.199 122.348 200.199C122.08 200.199 121.849 200.357 121.849 200.597C121.849 200.791 122.006 200.902 122.21 200.939L122.82 201.059C123.772 201.253 124.235 201.827 124.235 202.502C124.235 203.288 123.634 204.055 122.404 204.055C120.961 204.055 120.499 203.121 120.462 202.613ZM126.554 205.673H125.149V199.321H126.508V199.792C126.702 199.497 127.201 199.21 127.858 199.21C129.189 199.21 129.994 200.227 129.994 201.605C129.994 203.01 129.088 204.018 127.802 204.018C127.211 204.018 126.767 203.815 126.554 203.556V205.673ZM128.616 201.614C128.616 200.847 128.126 200.477 127.571 200.477C127.026 200.477 126.536 200.847 126.536 201.614C126.536 202.372 127.026 202.761 127.571 202.761C128.126 202.761 128.616 202.382 128.616 201.614ZM133.009 202.761C133.545 202.761 134.045 202.391 134.045 201.614C134.045 200.837 133.545 200.477 133.009 200.477C132.482 200.477 131.973 200.837 131.973 201.614C131.973 202.382 132.482 202.761 133.009 202.761ZM133.009 199.182C134.387 199.182 135.45 200.19 135.45 201.614C135.45 203.038 134.387 204.055 133.009 204.055C131.64 204.055 130.568 203.038 130.568 201.614C130.568 200.19 131.64 199.182 133.009 199.182ZM137.76 201.281V203.917H136.355V199.321H137.714V199.848C137.964 199.413 138.528 199.201 138.999 199.201C140.155 199.201 140.673 200.024 140.673 201.032V203.917H139.267V201.272C139.267 200.819 139.027 200.477 138.518 200.477C138.056 200.477 137.76 200.819 137.76 201.281ZM141.475 202.613L142.668 202.4C142.686 202.714 142.908 203.02 143.389 203.02C143.75 203.02 143.925 202.825 143.925 202.622C143.925 202.456 143.814 202.317 143.472 202.243L142.945 202.123C141.965 201.91 141.577 201.355 141.577 200.708C141.577 199.866 142.316 199.182 143.343 199.182C144.674 199.182 145.137 200.014 145.183 200.551L144.018 200.763C143.981 200.458 143.787 200.199 143.361 200.199C143.093 200.199 142.862 200.357 142.862 200.597C142.862 200.791 143.019 200.902 143.223 200.939L143.833 201.059C144.785 201.253 145.248 201.827 145.248 202.502C145.248 203.288 144.647 204.055 143.417 204.055C141.974 204.055 141.512 203.121 141.475 202.613ZM145.875 202.65C145.875 201.836 146.476 201.374 147.234 201.263L148.316 201.096C148.566 201.059 148.649 200.939 148.649 200.782C148.649 200.514 148.418 200.283 147.974 200.283C147.484 200.283 147.216 200.615 147.188 200.958L145.967 200.708C146.023 200.051 146.633 199.182 147.983 199.182C149.472 199.182 150.017 200.014 150.017 200.958V203.205C150.017 203.565 150.064 203.87 150.073 203.917H148.806C148.797 203.88 148.76 203.713 148.76 203.399C148.519 203.787 148.076 204.046 147.465 204.046C146.457 204.046 145.875 203.38 145.875 202.65ZM147.807 203.029C148.224 203.029 148.649 202.825 148.649 202.113V201.91L147.78 202.049C147.484 202.095 147.262 202.234 147.262 202.557C147.262 202.798 147.419 203.029 147.807 203.029ZM152.559 203.917H151.2V197.222H152.578V199.755C152.772 199.469 153.281 199.21 153.909 199.21C155.241 199.21 156.045 200.227 156.045 201.605C156.045 203.01 155.139 204.018 153.854 204.018C153.244 204.018 152.772 203.75 152.559 203.399V203.917ZM154.64 201.614C154.64 200.837 154.15 200.477 153.604 200.477C153.059 200.477 152.559 200.837 152.559 201.614C152.559 202.372 153.059 202.761 153.604 202.761C154.15 202.761 154.64 202.382 154.64 201.614ZM158.358 203.917H156.952V199.321H158.358V203.917ZM156.832 197.915C156.832 197.462 157.202 197.092 157.646 197.092C158.108 197.092 158.478 197.462 158.478 197.915C158.478 198.368 158.108 198.738 157.646 198.738C157.202 198.738 156.832 198.368 156.832 197.915ZM160.994 203.917H159.589V197.222H160.994V203.917ZM163.64 203.917H162.235V199.321H163.64V203.917ZM162.114 197.915C162.114 197.462 162.484 197.092 162.928 197.092C163.39 197.092 163.76 197.462 163.76 197.915C163.76 198.368 163.39 198.738 162.928 198.738C162.484 198.738 162.114 198.368 162.114 197.915ZM166.554 197.98V199.321H167.451V200.551H166.554V202.271C166.554 202.65 166.758 202.751 167.063 202.751C167.211 202.751 167.35 202.724 167.433 202.705V203.87C167.377 203.898 167.146 204 166.702 204C165.75 204 165.167 203.436 165.167 202.52V200.551H164.354V199.321H164.585C165.066 199.321 165.297 198.997 165.297 198.572V197.98H166.554ZM168.206 202.65C168.206 201.836 168.807 201.374 169.565 201.263L170.647 201.096C170.897 201.059 170.98 200.939 170.98 200.782C170.98 200.514 170.749 200.283 170.305 200.283C169.815 200.283 169.547 200.615 169.519 200.958L168.298 200.708C168.354 200.051 168.964 199.182 170.314 199.182C171.803 199.182 172.349 200.014 172.349 200.958V203.205C172.349 203.565 172.395 203.87 172.404 203.917H171.137C171.128 203.88 171.091 203.713 171.091 203.399C170.851 203.787 170.407 204.046 169.796 204.046C168.789 204.046 168.206 203.38 168.206 202.65ZM170.139 203.029C170.555 203.029 170.98 202.825 170.98 202.113V201.91L170.111 202.049C169.815 202.095 169.593 202.234 169.593 202.557C169.593 202.798 169.75 203.029 170.139 203.029ZM169.926 198.775L168.613 197.379H170.213L171.072 198.775H169.926Z" fill="white"/>
<path d="M50.9577 190.263H54.8375C55.4231 190.263 55.8379 189.677 55.6427 189.116L50.6161 174.06C50.4453 173.548 49.9329 173.182 49.3716 173.182H44.5891C44.0278 173.182 43.5398 173.548 43.3446 174.06L38.318 189.116C38.1228 189.677 38.562 190.263 39.1476 190.263H43.003C43.491 190.263 43.9302 189.945 44.0522 189.457L44.5647 187.627H49.3961L49.9085 189.457C50.0549 189.945 50.4697 190.263 50.9577 190.263ZM45.6139 183.821L46.9804 178.867L48.3468 183.821H45.6139Z" fill="#BFD3FB"/>
<path d="M67.5794 174.256V181.82L62.5772 173.792C62.3332 173.402 61.9183 173.182 61.4791 173.182H58.3314C57.7214 173.182 57.2577 173.67 57.2577 174.256V189.165C57.2577 189.775 57.7214 190.263 58.3314 190.263H61.6499C62.2599 190.263 62.748 189.775 62.748 189.165V181.625L67.7258 189.653C67.9698 190.019 68.3846 190.263 68.8238 190.263H71.9715C72.5816 190.263 73.0696 189.775 73.0696 189.165V174.256C73.0696 173.67 72.5816 173.182 71.9715 173.182H68.653C68.043 173.182 67.5794 173.67 67.5794 174.256Z" fill="#BFD3FB"/>
<path d="M87.1257 173.182H75.828C75.218 173.182 74.73 173.67 74.73 174.256V177.111C74.73 177.721 75.218 178.209 75.828 178.209H78.7318V189.165C78.7318 189.775 79.2198 190.263 79.8054 190.263H83.1239C83.734 190.263 84.222 189.775 84.222 189.165V178.209H87.1257C87.7113 178.209 88.1993 177.721 88.1993 177.111V174.256C88.1993 173.67 87.7113 173.182 87.1257 173.182Z" fill="#BFD3FB"/>
<path d="M100.546 190.263H104.426C105.011 190.263 105.426 189.677 105.231 189.116L100.204 174.06C100.034 173.548 99.5212 173.182 98.96 173.182H94.1774C93.6162 173.182 93.1282 173.548 92.9329 174.06L87.9063 189.116C87.7111 189.677 88.1504 190.263 88.736 190.263H92.5913C93.0793 190.263 93.5186 189.945 93.6406 189.457L94.153 187.627H98.9844L99.4968 189.457C99.6432 189.945 100.058 190.263 100.546 190.263ZM95.2022 183.821L96.5687 178.867L97.9351 183.821H95.2022Z" fill="#BFD3FB"/>
<path d="M114.501 185.236C112.452 185.236 110.963 183.772 110.963 181.722C110.963 179.673 112.452 178.209 114.501 178.209C115.429 178.209 116.234 178.501 116.844 179.038C117.161 179.307 117.576 179.355 117.917 179.136L121.065 177.037C121.504 176.769 121.602 176.134 121.236 175.744C119.601 173.963 117.234 172.865 114.501 172.865C109.377 172.865 105.497 176.671 105.497 181.722C105.497 186.749 109.377 190.555 114.501 190.555C117.234 190.555 119.601 189.482 121.236 187.701C121.602 187.31 121.504 186.676 121.065 186.383L117.917 184.309C117.576 184.089 117.161 184.138 116.844 184.406C116.234 184.943 115.429 185.236 114.501 185.236Z" fill="#BFD3FB"/>
<path d="M135.146 190.263H139.026C139.611 190.263 140.026 189.677 139.831 189.116L134.804 174.06C134.633 173.548 134.121 173.182 133.56 173.182H128.777C128.216 173.182 127.728 173.548 127.533 174.06L122.506 189.116C122.311 189.677 122.75 190.263 123.336 190.263H127.191C127.679 190.263 128.118 189.945 128.24 189.457L128.753 187.627H133.584L134.097 189.457C134.243 189.945 134.658 190.263 135.146 190.263ZM129.802 183.821L131.169 178.867L132.535 183.821H129.802Z" fill="#BFD3FB"/>
<path d="M148.693 173.182H142.544C141.934 173.182 141.446 173.67 141.446 174.256V189.165C141.446 189.775 141.934 190.263 142.544 190.263H145.863C146.448 190.263 146.936 189.775 146.936 189.165V185.626H148.693C152.988 185.626 155.891 183.748 155.891 179.502C155.891 175.549 153.402 173.182 148.693 173.182ZM148.693 181.039H146.936V177.989H148.693C149.815 177.989 150.352 178.623 150.352 179.502C150.352 180.405 149.815 181.039 148.693 181.039Z" fill="#BFD3FB"/>
<path d="M165.996 172.889C160.872 172.889 156.992 176.696 156.992 181.722C156.992 186.773 160.872 190.58 165.996 190.58C171.12 190.58 175 186.773 175 181.722C175 176.696 171.12 172.889 165.996 172.889ZM165.996 185.236C163.971 185.236 162.482 183.796 162.482 181.722C162.482 179.673 163.971 178.209 165.996 178.209C168.021 178.209 169.51 179.673 169.51 181.722C169.51 183.796 168.021 185.236 165.996 185.236Z" fill="#BFD3FB"/>
<g clip-path="url(#clip1_2760_2390)">
<path d="M3.53288 194.611C9.84988 207.096 22.4747 213.421 31.7312 208.738C37.2317 205.955 40.0628 201.173 40.3258 194.107C40.4543 192.822 39.8121 192.095 39.17 192.052C37.6289 191.949 37.2436 193.464 36.7295 194.62C35.9868 196.29 34.5212 198.152 32.2144 199.319C26.2543 202.335 17.8931 197.804 13.5393 189.199C9.18543 180.593 10.4876 171.173 16.4477 168.157C18.5357 167.101 20.8493 167.011 23.2142 167.678C25.0013 168.183 26.4518 169.473 28.1622 170.196C28.7888 170.461 29.3567 170.549 29.6638 170.241C30.383 169.522 29.1929 167.973 28.508 167.288C22.2535 162.206 14.9522 160.44 8.85532 163.525C-0.401187 168.208 -2.78413 182.126 3.53288 194.611Z" fill="#3670E5"/>
<path d="M17.0999 174.873L13.8415 183.69C13.5253 184.546 13.4985 185.484 13.8444 186.329C14.2202 187.246 14.8091 188.523 15.6011 189.762C16.3709 190.967 17.2279 192.067 17.8721 192.845C18.3383 193.407 19.2104 193.272 19.5155 192.608L20.7155 189.997C20.925 189.541 21.3808 189.249 21.8825 189.249H30.4945C31.1505 189.249 31.7346 188.833 31.9501 188.214L33.0515 185.047C33.3418 184.213 32.7222 183.341 31.8386 183.341H24.7474C23.8766 183.341 23.2583 182.493 23.5247 181.664L23.855 180.636C24.0257 180.105 24.5197 179.745 25.0776 179.745H37.3597C37.9042 179.745 38.3895 179.402 38.5707 178.888L39.9759 174.907C40.2708 174.071 39.6509 173.195 38.7648 173.195H19.5092C18.434 173.195 17.4727 173.865 17.0999 174.873Z" fill="#BFD3FB"/>
</g>
<path d="M6.89177 148H6.42944L6.37396 146.733C6.1243 147.297 5.42155 148.12 3.99756 148.12C2.46261 148.12 0.909161 146.927 0.909161 144.717C0.909161 142.517 2.47185 141.324 4.08078 141.324C5.48627 141.324 6.54964 142.119 6.92876 143.293L6.4017 143.515C6.07806 142.498 5.22737 141.86 4.08078 141.86C2.7585 141.86 1.50095 142.831 1.50095 144.717C1.50095 146.604 2.77699 147.593 4.01605 147.593C5.73593 147.593 6.31848 146.289 6.33697 145.457H3.91434V144.921H6.89177V148ZM8.80237 148H8.24757V143.589H8.80237V148ZM8.06263 141.758C8.06263 141.49 8.26606 141.296 8.52497 141.296C8.78388 141.296 8.9873 141.49 8.9873 141.758C8.9873 142.027 8.78388 142.221 8.52497 142.221C8.26606 142.221 8.06263 142.027 8.06263 141.758ZM12.1656 148.12C10.9358 148.12 9.97417 147.177 9.97417 145.799C9.97417 144.412 10.9266 143.478 12.1656 143.478C13.3954 143.478 14.3571 144.412 14.3571 145.799C14.3571 147.177 13.3954 148.12 12.1656 148.12ZM10.5382 145.799C10.5382 146.946 11.2964 147.621 12.1656 147.621C13.0348 147.621 13.7931 146.946 13.7931 145.799C13.7931 144.643 13.0348 143.978 12.1656 143.978C11.2964 143.978 10.5382 144.643 10.5382 145.799ZM17.3933 143.968C16.5149 143.968 15.7844 144.662 15.7844 145.799C15.7844 146.918 16.5057 147.621 17.3933 147.621C18.244 147.621 18.6786 147.029 18.8266 146.539L19.3167 146.742C19.104 147.427 18.4567 148.12 17.3933 148.12C16.145 148.12 15.2296 147.149 15.2296 145.799C15.2296 144.44 16.1543 143.469 17.3933 143.469C18.4475 143.469 19.0762 144.116 19.2797 144.856L18.7896 145.06C18.6416 144.542 18.244 143.968 17.3933 143.968ZM20.9838 148H20.429V141.324H20.9838V148ZM22.7381 145.439H25.6786C25.6601 144.616 25.133 143.968 24.2084 143.968C23.3854 143.968 22.7936 144.625 22.7381 145.439ZM25.7433 146.576L26.2334 146.752C25.9837 147.501 25.318 148.12 24.3008 148.12C23.1358 148.12 22.1556 147.26 22.1556 145.781C22.1556 144.394 23.0988 143.469 24.1991 143.469C25.5029 143.469 26.2519 144.394 26.2611 145.698C26.2611 145.772 26.2611 145.827 26.2519 145.901H22.7197V145.938C22.7289 146.955 23.4316 147.621 24.3008 147.621C25.0961 147.621 25.5584 147.159 25.7433 146.576ZM33.9076 148H29.5709C29.5894 146.983 30.1257 146.243 31.2076 145.513L32.1785 144.856C32.8073 144.431 33.2419 143.904 33.2419 143.256C33.2419 142.489 32.7148 141.832 31.7624 141.832C30.8008 141.832 30.172 142.48 30.172 143.441C30.172 143.543 30.172 143.645 30.1905 143.756L29.6172 143.673C29.6079 143.589 29.5987 143.451 29.5987 143.377C29.5987 142.221 30.5141 141.324 31.7624 141.324C33.0847 141.324 33.8244 142.202 33.8244 143.247C33.8244 144.699 32.3172 145.383 31.1799 146.151C30.7453 146.447 30.3569 146.872 30.2644 147.464H33.9076V148ZM35.5085 144.727C35.5085 146.373 36.0818 147.612 37.4133 147.612C38.7356 147.612 39.3181 146.363 39.3181 144.727C39.3181 143.09 38.7356 141.832 37.4133 141.832C36.0818 141.832 35.5085 143.081 35.5085 144.727ZM34.9444 144.727C34.9444 143.081 35.5547 141.324 37.4133 141.324C39.2626 141.324 39.8822 143.081 39.8822 144.727C39.8822 146.373 39.2626 148.12 37.4133 148.12C35.5547 148.12 34.9444 146.373 34.9444 144.727ZM45.2673 148H40.9306C40.9491 146.983 41.4855 146.243 42.5673 145.513L43.5382 144.856C44.167 144.431 44.6016 143.904 44.6016 143.256C44.6016 142.489 44.0745 141.832 43.1221 141.832C42.1605 141.832 41.5317 142.48 41.5317 143.441C41.5317 143.543 41.5317 143.645 41.5502 143.756L40.9769 143.673C40.9676 143.589 40.9584 143.451 40.9584 143.377C40.9584 142.221 41.8738 141.324 43.1221 141.324C44.4444 141.324 45.1841 142.202 45.1841 143.247C45.1841 144.699 43.6769 145.383 42.5396 146.151C42.105 146.447 41.7166 146.872 41.6242 147.464H45.2673V148ZM48.8655 144.135C49.8826 144.135 50.8535 144.782 50.8535 146.067C50.8535 147.279 49.8549 148.12 48.5603 148.12C47.2103 148.12 46.2764 147.27 46.2117 146.132L46.7665 146.003C46.8127 147.02 47.6449 147.612 48.5696 147.612C49.5497 147.612 50.2802 146.964 50.2802 146.086C50.2802 145.124 49.5405 144.606 48.662 144.606C48.4494 144.606 48.2552 144.634 48.0425 144.69L47.7651 144.209L49.9658 141.98H46.3781V141.444H50.7148V141.98L48.5511 144.163C48.662 144.144 48.7822 144.135 48.8655 144.135ZM58.5584 148H54.6933V141.444H58.5584V141.98H55.2851V144.449H58.2717V144.986H55.2851V147.464H58.5584V148ZM59.932 145.79C59.932 146.826 60.5237 147.621 61.4577 147.621C62.3731 147.621 62.9556 146.826 62.9556 145.79C62.9556 144.745 62.3731 143.968 61.4669 143.968C60.5422 143.968 59.932 144.727 59.932 145.79ZM62.9556 147.306V147.131C62.7614 147.584 62.2714 148.12 61.4114 148.12C60.1724 148.12 59.3771 147.103 59.3771 145.79C59.3771 144.496 60.1909 143.469 61.4114 143.469C62.3546 143.469 62.7892 144.042 62.9464 144.422V141.324H63.5012V147.159C63.5012 147.63 63.5382 147.954 63.5474 148H63.0019C62.9834 147.889 62.9556 147.621 62.9556 147.306ZM65.5467 148H64.9919V143.589H65.5467V148ZM64.807 141.758C64.807 141.49 65.0104 141.296 65.2693 141.296C65.5282 141.296 65.7317 141.49 65.7317 141.758C65.7317 142.027 65.5282 142.221 65.2693 142.221C65.0104 142.221 64.807 142.027 64.807 141.758ZM67.9206 142.193V143.589H69.0672V144.089H67.9206V146.752C67.9206 147.288 68.1702 147.547 68.6696 147.547C68.8268 147.547 68.984 147.51 69.0672 147.473V147.963C68.9932 148 68.7898 148.046 68.5216 148.046C67.8096 148.046 67.3658 147.612 67.3658 146.807V144.089H66.4319V143.589H66.7647C67.1993 143.589 67.3843 143.395 67.3843 142.942V142.193H67.9206ZM70.6125 148H70.0577V143.589H70.6125V148ZM69.8728 141.758C69.8728 141.49 70.0762 141.296 70.3351 141.296C70.594 141.296 70.7975 141.49 70.7975 141.758C70.7975 142.027 70.594 142.221 70.3351 142.221C70.0762 142.221 69.8728 142.027 69.8728 141.758ZM73.9758 148.12C72.746 148.12 71.7843 147.177 71.7843 145.799C71.7843 144.412 72.7367 143.478 73.9758 143.478C75.2056 143.478 76.1673 144.412 76.1673 145.799C76.1673 147.177 75.2056 148.12 73.9758 148.12ZM72.3484 145.799C72.3484 146.946 73.1066 147.621 73.9758 147.621C74.845 147.621 75.6032 146.946 75.6032 145.799C75.6032 144.643 74.845 143.978 73.9758 143.978C73.1066 143.978 72.3484 144.643 72.3484 145.799ZM77.8997 145.365V148H77.3449V143.589H77.8812V144.292C78.1216 143.82 78.6395 143.478 79.3145 143.478C80.3501 143.478 80.8772 144.218 80.8772 145.124V148H80.3223V145.217C80.3223 144.523 79.9802 143.978 79.1295 143.978C78.3713 143.978 77.8997 144.616 77.8997 145.365Z" fill="white"/>
<path d="M59.9518 344.917H58.7682L58.6758 344.251C58.3891 344.667 57.7696 345.055 56.8357 345.055C55.0141 345.055 53.5161 343.714 53.5161 341.643C53.5161 339.581 55.0788 338.222 56.9281 338.222C58.8052 338.222 59.6744 339.332 59.961 340.247L58.5555 340.737C58.4538 340.33 58.0192 339.59 56.9281 339.59C56.0404 339.59 54.9956 340.182 54.9956 341.643C54.9956 343.012 55.9017 343.724 56.9651 343.724C58.047 343.724 58.5001 343.021 58.5833 342.651H56.6137V341.412H59.9518V344.917ZM62.4954 344.917H61.0899V340.321H62.4954V344.917ZM60.9697 338.915C60.9697 338.462 61.3396 338.092 61.7834 338.092C62.2458 338.092 62.6156 338.462 62.6156 338.915C62.6156 339.368 62.2458 339.738 61.7834 339.738C61.3396 339.738 60.9697 339.368 60.9697 338.915ZM65.8349 343.761C66.3712 343.761 66.8706 343.391 66.8706 342.614C66.8706 341.837 66.3712 341.477 65.8349 341.477C65.3079 341.477 64.7993 341.837 64.7993 342.614C64.7993 343.382 65.3079 343.761 65.8349 343.761ZM65.8349 340.182C67.2127 340.182 68.2761 341.19 68.2761 342.614C68.2761 344.038 67.2127 345.055 65.8349 345.055C64.4664 345.055 63.3938 344.038 63.3938 342.614C63.3938 341.19 64.4664 340.182 65.8349 340.182ZM71.2983 341.477C70.7157 341.477 70.2442 341.884 70.2442 342.623C70.2442 343.354 70.7342 343.761 71.3168 343.761C71.8623 343.761 72.1675 343.419 72.2692 343.076L73.5082 343.456C73.3048 344.26 72.5466 345.055 71.3168 345.055C69.9483 345.055 68.8479 344.047 68.8479 342.623C68.8479 341.19 69.9205 340.182 71.2705 340.182C72.5373 340.182 73.2771 340.959 73.4805 341.782L72.223 342.161C72.1212 341.81 71.8438 341.477 71.2983 341.477ZM74.0776 343.65C74.0776 342.836 74.6786 342.374 75.4368 342.263L76.5187 342.096C76.7684 342.059 76.8516 341.939 76.8516 341.782C76.8516 341.514 76.6204 341.283 76.1766 341.283C75.6865 341.283 75.4183 341.615 75.3906 341.958L74.17 341.708C74.2255 341.051 74.8358 340.182 76.1858 340.182C77.6745 340.182 78.2201 341.014 78.2201 341.958V344.205C78.2201 344.565 78.2663 344.87 78.2756 344.917H77.0088C76.9995 344.88 76.9625 344.713 76.9625 344.399C76.7221 344.787 76.2783 345.046 75.668 345.046C74.6601 345.046 74.0776 344.38 74.0776 343.65ZM76.0101 344.029C76.4262 344.029 76.8516 343.825 76.8516 343.113V342.91L75.9824 343.049C75.6865 343.095 75.4646 343.234 75.4646 343.557C75.4646 343.798 75.6218 344.029 76.0101 344.029ZM83.7958 341.477C83.2132 341.477 82.7416 341.884 82.7416 342.623C82.7416 343.354 83.2317 343.761 83.8143 343.761C84.3598 343.761 84.665 343.419 84.7667 343.076L86.0057 343.456C85.8023 344.26 85.0441 345.055 83.8143 345.055C82.4457 345.055 81.3454 344.047 81.3454 342.623C81.3454 341.19 82.418 340.182 83.768 340.182C85.0348 340.182 85.7746 340.959 85.978 341.782L84.7204 342.161C84.6187 341.81 84.3413 341.477 83.7958 341.477ZM88.9246 343.761C89.4609 343.761 89.9602 343.391 89.9602 342.614C89.9602 341.837 89.4609 341.477 88.9246 341.477C88.3975 341.477 87.8889 341.837 87.8889 342.614C87.8889 343.382 88.3975 343.761 88.9246 343.761ZM88.9246 340.182C90.3023 340.182 91.3657 341.19 91.3657 342.614C91.3657 344.038 90.3023 345.055 88.9246 345.055C87.5561 345.055 86.4834 344.038 86.4834 342.614C86.4834 341.19 87.5561 340.182 88.9246 340.182ZM93.6759 342.281V344.917H92.2704V340.321H93.6297V340.848C93.8794 340.413 94.4434 340.201 94.915 340.201C96.0708 340.201 96.5886 341.024 96.5886 342.032V344.917H95.1831V342.272C95.1831 341.819 94.9427 341.477 94.4342 341.477C93.9718 341.477 93.6759 341.819 93.6759 342.281ZM101.451 344.917H100.045V338.222H101.451V344.917ZM102.368 343.65C102.368 342.836 102.97 342.374 103.728 342.263L104.81 342.096C105.059 342.059 105.142 341.939 105.142 341.782C105.142 341.514 104.911 341.283 104.467 341.283C103.977 341.283 103.709 341.615 103.681 341.958L102.461 341.708C102.516 341.051 103.127 340.182 104.477 340.182C105.965 340.182 106.511 341.014 106.511 341.958V344.205C106.511 344.565 106.557 344.87 106.566 344.917H105.3C105.29 344.88 105.253 344.713 105.253 344.399C105.013 344.787 104.569 345.046 103.959 345.046C102.951 345.046 102.368 344.38 102.368 343.65ZM104.301 344.029C104.717 344.029 105.142 343.825 105.142 343.113V342.91L104.273 343.049C103.977 343.095 103.755 343.234 103.755 343.557C103.755 343.798 103.913 344.029 104.301 344.029ZM113.215 344.917L112.04 342.475H111.523V344.917H110.062V338.361H112.66C113.955 338.361 114.787 339.248 114.787 340.413C114.787 341.301 114.297 341.976 113.492 342.263L114.824 344.917H113.215ZM111.523 341.218H112.383C112.984 341.218 113.307 340.885 113.307 340.423C113.307 339.933 112.984 339.627 112.383 339.627H111.523V341.218ZM116.739 342.069H118.58C118.561 341.717 118.321 341.292 117.655 341.292C117.063 341.292 116.767 341.726 116.739 342.069ZM118.681 343.261L119.856 343.594C119.634 344.389 118.903 345.055 117.738 345.055C116.471 345.055 115.343 344.149 115.343 342.605C115.343 341.125 116.444 340.182 117.636 340.182C119.06 340.182 119.939 341.061 119.939 342.54C119.939 342.734 119.92 342.947 119.911 342.975H116.712C116.739 343.493 117.211 343.862 117.757 343.862C118.265 343.862 118.552 343.622 118.681 343.261ZM120.462 343.613L121.655 343.4C121.673 343.714 121.895 344.02 122.376 344.02C122.737 344.02 122.913 343.825 122.913 343.622C122.913 343.456 122.802 343.317 122.459 343.243L121.932 343.123C120.952 342.91 120.564 342.355 120.564 341.708C120.564 340.866 121.304 340.182 122.33 340.182C123.662 340.182 124.124 341.014 124.17 341.551L123.005 341.763C122.968 341.458 122.774 341.199 122.348 341.199C122.08 341.199 121.849 341.357 121.849 341.597C121.849 341.791 122.006 341.902 122.21 341.939L122.82 342.059C123.772 342.253 124.235 342.827 124.235 343.502C124.235 344.288 123.634 345.055 122.404 345.055C120.961 345.055 120.499 344.121 120.462 343.613ZM126.554 346.673H125.149V340.321H126.508V340.792C126.702 340.497 127.201 340.21 127.858 340.21C129.189 340.21 129.994 341.227 129.994 342.605C129.994 344.01 129.088 345.018 127.802 345.018C127.211 345.018 126.767 344.815 126.554 344.556V346.673ZM128.616 342.614C128.616 341.847 128.126 341.477 127.571 341.477C127.026 341.477 126.536 341.847 126.536 342.614C126.536 343.372 127.026 343.761 127.571 343.761C128.126 343.761 128.616 343.382 128.616 342.614ZM133.009 343.761C133.545 343.761 134.045 343.391 134.045 342.614C134.045 341.837 133.545 341.477 133.009 341.477C132.482 341.477 131.973 341.837 131.973 342.614C131.973 343.382 132.482 343.761 133.009 343.761ZM133.009 340.182C134.387 340.182 135.45 341.19 135.45 342.614C135.45 344.038 134.387 345.055 133.009 345.055C131.64 345.055 130.568 344.038 130.568 342.614C130.568 341.19 131.64 340.182 133.009 340.182ZM137.76 342.281V344.917H136.355V340.321H137.714V340.848C137.964 340.413 138.528 340.201 138.999 340.201C140.155 340.201 140.673 341.024 140.673 342.032V344.917H139.267V342.272C139.267 341.819 139.027 341.477 138.518 341.477C138.056 341.477 137.76 341.819 137.76 342.281ZM141.475 343.613L142.668 343.4C142.686 343.714 142.908 344.02 143.389 344.02C143.75 344.02 143.925 343.825 143.925 343.622C143.925 343.456 143.814 343.317 143.472 343.243L142.945 343.123C141.965 342.91 141.577 342.355 141.577 341.708C141.577 340.866 142.316 340.182 143.343 340.182C144.674 340.182 145.137 341.014 145.183 341.551L144.018 341.763C143.981 341.458 143.787 341.199 143.361 341.199C143.093 341.199 142.862 341.357 142.862 341.597C142.862 341.791 143.019 341.902 143.223 341.939L143.833 342.059C144.785 342.253 145.248 342.827 145.248 343.502C145.248 344.288 144.647 345.055 143.417 345.055C141.974 345.055 141.512 344.121 141.475 343.613ZM145.875 343.65C145.875 342.836 146.476 342.374 147.234 342.263L148.316 342.096C148.566 342.059 148.649 341.939 148.649 341.782C148.649 341.514 148.418 341.283 147.974 341.283C147.484 341.283 147.216 341.615 147.188 341.958L145.967 341.708C146.023 341.051 146.633 340.182 147.983 340.182C149.472 340.182 150.017 341.014 150.017 341.958V344.205C150.017 344.565 150.064 344.87 150.073 344.917H148.806C148.797 344.88 148.76 344.713 148.76 344.399C148.519 344.787 148.076 345.046 147.465 345.046C146.457 345.046 145.875 344.38 145.875 343.65ZM147.807 344.029C148.224 344.029 148.649 343.825 148.649 343.113V342.91L147.78 343.049C147.484 343.095 147.262 343.234 147.262 343.557C147.262 343.798 147.419 344.029 147.807 344.029ZM152.559 344.917H151.2V338.222H152.578V340.755C152.772 340.469 153.281 340.21 153.909 340.21C155.241 340.21 156.045 341.227 156.045 342.605C156.045 344.01 155.139 345.018 153.854 345.018C153.244 345.018 152.772 344.75 152.559 344.399V344.917ZM154.64 342.614C154.64 341.837 154.15 341.477 153.604 341.477C153.059 341.477 152.559 341.837 152.559 342.614C152.559 343.372 153.059 343.761 153.604 343.761C154.15 343.761 154.64 343.382 154.64 342.614ZM158.358 344.917H156.952V340.321H158.358V344.917ZM156.832 338.915C156.832 338.462 157.202 338.092 157.646 338.092C158.108 338.092 158.478 338.462 158.478 338.915C158.478 339.368 158.108 339.738 157.646 339.738C157.202 339.738 156.832 339.368 156.832 338.915ZM160.994 344.917H159.589V338.222H160.994V344.917ZM163.64 344.917H162.235V340.321H163.64V344.917ZM162.114 338.915C162.114 338.462 162.484 338.092 162.928 338.092C163.39 338.092 163.76 338.462 163.76 338.915C163.76 339.368 163.39 339.738 162.928 339.738C162.484 339.738 162.114 339.368 162.114 338.915ZM166.554 338.98V340.321H167.451V341.551H166.554V343.271C166.554 343.65 166.758 343.751 167.063 343.751C167.211 343.751 167.35 343.724 167.433 343.705V344.87C167.377 344.898 167.146 345 166.702 345C165.75 345 165.167 344.436 165.167 343.52V341.551H164.354V340.321H164.585C165.066 340.321 165.297 339.997 165.297 339.572V338.98H166.554ZM168.206 343.65C168.206 342.836 168.807 342.374 169.565 342.263L170.647 342.096C170.897 342.059 170.98 341.939 170.98 341.782C170.98 341.514 170.749 341.283 170.305 341.283C169.815 341.283 169.547 341.615 169.519 341.958L168.298 341.708C168.354 341.051 168.964 340.182 170.314 340.182C171.803 340.182 172.349 341.014 172.349 341.958V344.205C172.349 344.565 172.395 344.87 172.404 344.917H171.137C171.128 344.88 171.091 344.713 171.091 344.399C170.851 344.787 170.407 345.046 169.796 345.046C168.789 345.046 168.206 344.38 168.206 343.65ZM170.139 344.029C170.555 344.029 170.98 343.825 170.98 343.113V342.91L170.111 343.049C169.815 343.095 169.593 343.234 169.593 343.557C169.593 343.798 169.75 344.029 170.139 344.029ZM169.926 339.775L168.613 338.379H170.213L171.072 339.775H169.926Z" fill="white"/>
<path d="M50.9577 331.263H54.8375C55.4231 331.263 55.8379 330.677 55.6427 330.116L50.6161 315.06C50.4453 314.548 49.9329 314.182 49.3716 314.182H44.5891C44.0278 314.182 43.5398 314.548 43.3446 315.06L38.318 330.116C38.1228 330.677 38.562 331.263 39.1476 331.263H43.003C43.491 331.263 43.9302 330.945 44.0522 330.457L44.5647 328.627H49.3961L49.9085 330.457C50.0549 330.945 50.4697 331.263 50.9577 331.263ZM45.6139 324.821L46.9804 319.867L48.3468 324.821H45.6139Z" fill="#FFC28F"/>
<path d="M67.5794 315.256V322.82L62.5772 314.792C62.3332 314.402 61.9183 314.182 61.4791 314.182H58.3314C57.7214 314.182 57.2577 314.67 57.2577 315.256V330.165C57.2577 330.775 57.7214 331.263 58.3314 331.263H61.6499C62.2599 331.263 62.748 330.775 62.748 330.165V322.625L67.7258 330.653C67.9698 331.019 68.3846 331.263 68.8238 331.263H71.9715C72.5816 331.263 73.0696 330.775 73.0696 330.165V315.256C73.0696 314.67 72.5816 314.182 71.9715 314.182H68.653C68.043 314.182 67.5794 314.67 67.5794 315.256Z" fill="#FFC28F"/>
<path d="M87.1257 314.182H75.828C75.218 314.182 74.73 314.67 74.73 315.256V318.111C74.73 318.721 75.218 319.209 75.828 319.209H78.7318V330.165C78.7318 330.775 79.2198 331.263 79.8054 331.263H83.1239C83.734 331.263 84.222 330.775 84.222 330.165V319.209H87.1257C87.7113 319.209 88.1993 318.721 88.1993 318.111V315.256C88.1993 314.67 87.7113 314.182 87.1257 314.182Z" fill="#FFC28F"/>
<path d="M100.546 331.263H104.426C105.011 331.263 105.426 330.677 105.231 330.116L100.204 315.06C100.034 314.548 99.5212 314.182 98.96 314.182H94.1774C93.6162 314.182 93.1282 314.548 92.9329 315.06L87.9063 330.116C87.7111 330.677 88.1504 331.263 88.736 331.263H92.5913C93.0793 331.263 93.5186 330.945 93.6406 330.457L94.153 328.627H98.9844L99.4968 330.457C99.6432 330.945 100.058 331.263 100.546 331.263ZM95.2022 324.821L96.5687 319.867L97.9351 324.821H95.2022Z" fill="#FFC28F"/>
<path d="M114.501 326.236C112.452 326.236 110.963 324.772 110.963 322.722C110.963 320.673 112.452 319.209 114.501 319.209C115.429 319.209 116.234 319.501 116.844 320.038C117.161 320.307 117.576 320.355 117.917 320.136L121.065 318.037C121.504 317.769 121.602 317.134 121.236 316.744C119.601 314.963 117.234 313.865 114.501 313.865C109.377 313.865 105.497 317.671 105.497 322.722C105.497 327.749 109.377 331.555 114.501 331.555C117.234 331.555 119.601 330.482 121.236 328.701C121.602 328.31 121.504 327.676 121.065 327.383L117.917 325.309C117.576 325.089 117.161 325.138 116.844 325.406C116.234 325.943 115.429 326.236 114.501 326.236Z" fill="#FFC28F"/>
<path d="M135.146 331.263H139.026C139.611 331.263 140.026 330.677 139.831 330.116L134.804 315.06C134.633 314.548 134.121 314.182 133.56 314.182H128.777C128.216 314.182 127.728 314.548 127.533 315.06L122.506 330.116C122.311 330.677 122.75 331.263 123.336 331.263H127.191C127.679 331.263 128.118 330.945 128.24 330.457L128.753 328.627H133.584L134.097 330.457C134.243 330.945 134.658 331.263 135.146 331.263ZM129.802 324.821L131.169 319.867L132.535 324.821H129.802Z" fill="#FFC28F"/>
<path d="M148.693 314.182H142.544C141.934 314.182 141.446 314.67 141.446 315.256V330.165C141.446 330.775 141.934 331.263 142.544 331.263H145.863C146.448 331.263 146.936 330.775 146.936 330.165V326.626H148.693C152.988 326.626 155.891 324.748 155.891 320.502C155.891 316.549 153.402 314.182 148.693 314.182ZM148.693 322.039H146.936V318.989H148.693C149.815 318.989 150.352 319.623 150.352 320.502C150.352 321.405 149.815 322.039 148.693 322.039Z" fill="#FFC28F"/>
<path d="M165.996 313.889C160.872 313.889 156.992 317.696 156.992 322.722C156.992 327.773 160.872 331.58 165.996 331.58C171.12 331.58 175 327.773 175 322.722C175 317.696 171.12 313.889 165.996 313.889ZM165.996 326.236C163.971 326.236 162.482 324.796 162.482 322.722C162.482 320.673 163.971 319.209 165.996 319.209C168.021 319.209 169.51 320.673 169.51 322.722C169.51 324.796 168.021 326.236 165.996 326.236Z" fill="#FFC28F"/>
<g clip-path="url(#clip2_2760_2390)">
<path d="M3.53288 335.611C9.84988 348.096 22.4747 354.421 31.7312 349.738C37.2317 346.955 40.0628 342.173 40.3258 335.107C40.4543 333.822 39.8121 333.095 39.17 333.052C37.6289 332.949 37.2436 334.464 36.7295 335.62C35.9868 337.29 34.5212 339.152 32.2144 340.319C26.2543 343.335 17.8931 338.804 13.5393 330.199C9.18543 321.593 10.4876 312.173 16.4477 309.157C18.5357 308.101 20.8493 308.011 23.2142 308.678C25.0013 309.183 26.4518 310.473 28.1622 311.196C28.7888 311.461 29.3567 311.549 29.6638 311.241C30.383 310.522 29.1929 308.973 28.508 308.288C22.2535 303.206 14.9522 301.44 8.85532 304.525C-0.401187 309.208 -2.78413 323.126 3.53288 335.611Z" fill="#F78E37"/>
<path d="M17.0999 315.873L13.8415 324.69C13.5253 325.546 13.4985 326.484 13.8444 327.329C14.2202 328.246 14.8091 329.523 15.6011 330.762C16.3709 331.967 17.2279 333.067 17.8721 333.845C18.3383 334.407 19.2104 334.272 19.5155 333.608L20.7155 330.997C20.925 330.541 21.3808 330.249 21.8825 330.249H30.4945C31.1505 330.249 31.7346 329.833 31.9501 329.214L33.0515 326.047C33.3418 325.213 32.7222 324.341 31.8386 324.341H24.7474C23.8766 324.341 23.2583 323.493 23.5247 322.664L23.855 321.636C24.0257 321.105 24.5197 320.745 25.0776 320.745H37.3597C37.9042 320.745 38.3895 320.402 38.5707 319.888L39.9759 315.907C40.2708 315.071 39.6509 314.195 38.7648 314.195H19.5092C18.434 314.195 17.4727 314.865 17.0999 315.873Z" fill="#FFC28F"/>
</g>
<path d="M1.83563 285.699H3.3151C4.24901 285.699 4.82231 285.144 4.82231 284.34C4.82231 283.535 4.24901 282.971 3.3151 282.971H1.83563V285.699ZM3.40756 286.226H1.83563V289H1.24384V282.444H3.40756C4.60963 282.444 5.4141 283.258 5.4141 284.34C5.4141 285.422 4.60963 286.226 3.40756 286.226ZM6.41093 286.439H9.35138C9.33289 285.616 8.80582 284.968 7.88116 284.968C7.0582 284.968 6.46641 285.625 6.41093 286.439ZM9.41611 287.576L9.90618 287.752C9.65652 288.501 8.99076 289.12 7.97362 289.12C6.80854 289.12 5.82839 288.26 5.82839 286.781C5.82839 285.394 6.77155 284.469 7.87191 284.469C9.17569 284.469 9.92467 285.394 9.93392 286.698C9.93392 286.772 9.93392 286.827 9.92467 286.901H6.39244V286.938C6.40168 287.955 7.10443 288.621 7.97362 288.621C8.76884 288.621 9.23117 288.159 9.41611 287.576ZM11.6368 290.757H11.082V284.589H11.6275V285.468C11.8402 285.015 12.358 284.469 13.2364 284.469C14.4847 284.469 15.2337 285.486 15.2337 286.79C15.2337 288.103 14.457 289.12 13.2179 289.12C12.3672 289.12 11.8587 288.612 11.6368 288.168V290.757ZM14.6789 286.79C14.6789 285.754 14.0686 284.968 13.144 284.968C12.2285 284.968 11.6275 285.764 11.6275 286.79C11.6275 287.835 12.2285 288.621 13.144 288.621C14.0686 288.621 14.6789 287.826 14.6789 286.79ZM17.5375 289.111C16.6128 289.111 16.095 288.501 16.095 287.863C16.095 287.114 16.6128 286.679 17.4173 286.559L18.5916 286.383C18.9708 286.328 19.054 286.161 19.054 285.958C19.054 285.375 18.6656 284.959 17.9444 284.959C17.2416 284.959 16.7793 285.348 16.7053 285.986L16.1875 285.875C16.2892 285.033 16.992 284.478 17.9351 284.478C19.0817 284.478 19.6088 285.172 19.6088 286.013V288.242C19.6088 288.593 19.6365 288.815 19.6735 289H19.128C19.1095 288.898 19.0725 288.602 19.0725 288.242C18.869 288.658 18.342 289.111 17.5375 289.111ZM17.6022 288.639C18.4437 288.639 19.054 288.085 19.054 287.197V286.698C19.0262 286.725 18.906 286.781 18.7303 286.809L17.5005 286.993C16.9827 287.067 16.6591 287.354 16.6591 287.835C16.6591 288.242 16.992 288.639 17.6022 288.639ZM20.6721 287.844L21.1807 287.668C21.2639 288.205 21.6708 288.639 22.392 288.639C22.9376 288.639 23.3722 288.316 23.3722 287.853C23.3722 287.447 23.0948 287.225 22.6232 287.114L21.9112 286.947C21.2639 286.799 20.8293 286.411 20.8293 285.773C20.8293 285.061 21.5136 284.478 22.3181 284.478C23.3444 284.478 23.779 285.089 23.8992 285.616L23.4092 285.801C23.3259 285.375 23.0208 284.959 22.3181 284.959C21.8187 284.959 21.3749 285.274 21.3749 285.736C21.3749 286.115 21.6153 286.337 22.0684 286.439L22.7711 286.596C23.5016 286.762 23.9177 287.178 23.9177 287.816C23.9177 288.473 23.3629 289.12 22.3828 289.12C21.3009 289.12 20.7554 288.427 20.6721 287.844ZM31.604 289H27.2673C27.2858 287.983 27.8221 287.243 28.9039 286.513L29.8748 285.856C30.5036 285.431 30.9382 284.904 30.9382 284.256C30.9382 283.489 30.4112 282.832 29.4587 282.832C28.4971 282.832 27.8683 283.48 27.8683 284.441C27.8683 284.543 27.8683 284.645 27.8868 284.756L27.3135 284.673C27.3043 284.589 27.295 284.451 27.295 284.377C27.295 283.221 28.2104 282.324 29.4587 282.324C30.781 282.324 31.5208 283.202 31.5208 284.247C31.5208 285.699 30.0135 286.383 28.8762 287.151C28.4416 287.447 28.0532 287.872 27.9608 288.464H31.604V289ZM33.2048 285.727C33.2048 287.373 33.7781 288.612 35.1096 288.612C36.4319 288.612 37.0144 287.363 37.0144 285.727C37.0144 284.09 36.4319 282.832 35.1096 282.832C33.7781 282.832 33.2048 284.081 33.2048 285.727ZM32.6408 285.727C32.6408 284.081 33.251 282.324 35.1096 282.324C36.959 282.324 37.5785 284.081 37.5785 285.727C37.5785 287.373 36.959 289.12 35.1096 289.12C33.251 289.12 32.6408 287.373 32.6408 285.727ZM42.9637 289H38.627C38.6455 287.983 39.1818 287.243 40.2636 286.513L41.2346 285.856C41.8633 285.431 42.2979 284.904 42.2979 284.256C42.2979 283.489 41.7709 282.832 40.8185 282.832C39.8568 282.832 39.228 283.48 39.228 284.441C39.228 284.543 39.228 284.645 39.2465 284.756L38.6732 284.673C38.664 284.589 38.6547 284.451 38.6547 284.377C38.6547 283.221 39.5701 282.324 40.8185 282.324C42.1407 282.324 42.8805 283.202 42.8805 284.247C42.8805 285.699 41.3733 286.383 40.2359 287.151C39.8013 287.447 39.413 287.872 39.3205 288.464H42.9637V289ZM48.3742 282.444V283.027C47.1351 284.173 45.7296 285.949 45.3967 289H44.8049C45.1378 285.69 46.8854 283.813 47.7639 282.971H43.7046V282.444H48.3742ZM55.6768 289H51.8117V282.444H55.6768V282.98H52.4035V285.449H55.3902V285.986H52.4035V288.464H55.6768V289ZM57.0504 286.79C57.0504 287.826 57.6422 288.621 58.5761 288.621C59.4915 288.621 60.074 287.826 60.074 286.79C60.074 285.745 59.4915 284.968 58.5853 284.968C57.6606 284.968 57.0504 285.727 57.0504 286.79ZM60.074 288.306V288.131C59.8799 288.584 59.3898 289.12 58.5298 289.12C57.2908 289.12 56.4956 288.103 56.4956 286.79C56.4956 285.496 57.3093 284.469 58.5298 284.469C59.473 284.469 59.9076 285.042 60.0648 285.422V282.324H60.6196V288.159C60.6196 288.63 60.6566 288.954 60.6658 289H60.1203C60.1018 288.889 60.074 288.621 60.074 288.306ZM62.6651 289H62.1103V284.589H62.6651V289ZM61.9254 282.758C61.9254 282.49 62.1288 282.296 62.3877 282.296C62.6466 282.296 62.8501 282.49 62.8501 282.758C62.8501 283.027 62.6466 283.221 62.3877 283.221C62.1288 283.221 61.9254 283.027 61.9254 282.758ZM65.039 283.193V284.589H66.1856V285.089H65.039V287.752C65.039 288.288 65.2887 288.547 65.788 288.547C65.9452 288.547 66.1024 288.51 66.1856 288.473V288.963C66.1116 289 65.9082 289.046 65.64 289.046C64.928 289.046 64.4842 288.612 64.4842 287.807V285.089H63.5503V284.589H63.8832C64.3178 284.589 64.5027 284.395 64.5027 283.942V283.193H65.039ZM67.7309 289H67.1761V284.589H67.7309V289ZM66.9912 282.758C66.9912 282.49 67.1946 282.296 67.4535 282.296C67.7125 282.296 67.9159 282.49 67.9159 282.758C67.9159 283.027 67.7125 283.221 67.4535 283.221C67.1946 283.221 66.9912 283.027 66.9912 282.758ZM71.0942 289.12C69.8644 289.12 68.9027 288.177 68.9027 286.799C68.9027 285.412 69.8552 284.478 71.0942 284.478C72.324 284.478 73.2857 285.412 73.2857 286.799C73.2857 288.177 72.324 289.12 71.0942 289.12ZM69.4668 286.799C69.4668 287.946 70.225 288.621 71.0942 288.621C71.9634 288.621 72.7216 287.946 72.7216 286.799C72.7216 285.643 71.9634 284.978 71.0942 284.978C70.225 284.978 69.4668 285.643 69.4668 286.799ZM75.0181 286.365V289H74.4633V284.589H74.9996V285.292C75.2401 284.82 75.7579 284.478 76.4329 284.478C77.4685 284.478 77.9956 285.218 77.9956 286.124V289H77.4408V286.217C77.4408 285.523 77.0986 284.978 76.2479 284.978C75.4897 284.978 75.0181 285.616 75.0181 286.365Z" fill="white"/>
<defs>
<clipPath id="clip0_2760_2390">
<rect width="174.917" height="48.2883" fill="white" transform="translate(0 21)"/>
</clipPath>
<clipPath id="clip1_2760_2390">
<rect width="174.917" height="48.2883" fill="white" transform="translate(0 162)"/>
</clipPath>
<clipPath id="clip2_2760_2390">
<rect width="174.917" height="48.2883" fill="white" transform="translate(0 303)"/>
</clipPath>
</defs>
</svg>
